<svg xmlns="http://www.w3.org/2000/svg" width="197.849" height="40.448" viewBox="0 0 197.849 40.448">
  <g id="Grupo_156" data-name="Grupo 156" transform="translate(-340 -24.226)">
    <g id="Logo" transform="translate(331.4 -159.274)">
      <g id="Grupo_134" data-name="Grupo 134" transform="translate(8.6 183.5)">
        <path id="Caminho_539" data-name="Caminho 539" d="M15.557,209.355a.594.594,0,0,1,.389-.155.585.585,0,0,1,.428.155l2.06,2.06c.078.078.117.117.117.194.039.078.039.155.078.194,0,.078-.039.117-.039.194-.039.078-.039.155-.117.194l-4.237,4.314,4.237,4.237a.628.628,0,0,1,.155.389.808.808,0,0,1-.194.466l-2.138,2.06a.447.447,0,0,1-.738,0L8.794,216.9a.619.619,0,0,1-.194-.389.54.54,0,0,1,.194-.389Z" transform="translate(-8.6 -202.709)" fill="#4d519d"/>
        <path id="Caminho_540" data-name="Caminho 540" d="M49.275,201.03a3.643,3.643,0,0,1,.661-.7,4.986,4.986,0,0,1,1.011-.622,5.891,5.891,0,0,1,1.244-.466,5.828,5.828,0,0,1,1.438-.155,5.429,5.429,0,0,1,2.565.583,5.289,5.289,0,0,1,1.788,1.555,6.909,6.909,0,0,1,1.049,2.293,10.824,10.824,0,0,1,.35,2.8v8.473a1.287,1.287,0,0,1-.194.738.854.854,0,0,1-.661.233H55.533a1.252,1.252,0,0,1-.777-.194c-.155-.117-.194-.35-.194-.738v-8.551a2.387,2.387,0,0,0-.777-1.866,2.156,2.156,0,0,0-.855-.544,2.919,2.919,0,0,0-1.011-.194,2.55,2.55,0,0,0-1.71.738,3.112,3.112,0,0,0-.583.816,2.981,2.981,0,0,0-.272,1.049v8.512a1.4,1.4,0,0,1-.078.428.79.79,0,0,1-.233.35,2.294,2.294,0,0,1-.311.155.965.965,0,0,1-.35.039H45.349a1.039,1.039,0,0,1-.816-.272,1.121,1.121,0,0,1-.233-.738V195.472a.95.95,0,0,1,.233-.7.988.988,0,0,1,.816-.272h2.915a1.577,1.577,0,0,1,.661.194.566.566,0,0,1,.233.35,1.653,1.653,0,0,1,.078.428v5.558Z" transform="translate(-30.424 -193.723)" fill="#231f20"/>
        <path id="Caminho_541" data-name="Caminho 541" d="M93.7,214.612a9.063,9.063,0,0,1,.311-2.293,8.545,8.545,0,0,1,.855-2.021,8.049,8.049,0,0,1,1.322-1.71,9.549,9.549,0,0,1,1.71-1.322,11.685,11.685,0,0,1,2.021-.855,8.829,8.829,0,0,1,2.293-.311,8.642,8.642,0,0,1,3.3.661,8.529,8.529,0,0,1,2.682,1.788,9.112,9.112,0,0,1,1.827,2.682,8.547,8.547,0,0,1,.661,3.343,9.062,9.062,0,0,1-.311,2.293,8.545,8.545,0,0,1-.855,2.021,8.049,8.049,0,0,1-1.321,1.71,9.551,9.551,0,0,1-1.71,1.322,9.286,9.286,0,0,1-2.021.855,8.533,8.533,0,0,1-2.254.311,9.062,9.062,0,0,1-2.293-.311,7.2,7.2,0,0,1-2.021-.855,8.049,8.049,0,0,1-1.71-1.322,9.55,9.55,0,0,1-1.322-1.71,9.288,9.288,0,0,1-.855-2.021A8.314,8.314,0,0,1,93.7,214.612Zm4.7,0a4.294,4.294,0,0,0,.272,1.594,4.115,4.115,0,0,0,.738,1.283,3.247,3.247,0,0,0,1.166.855,3.961,3.961,0,0,0,1.555.311,3.912,3.912,0,0,0,1.516-.311,3.623,3.623,0,0,0,1.166-.855,4.115,4.115,0,0,0,.738-1.283,5.265,5.265,0,0,0,.233-1.594,5.452,5.452,0,0,0-.233-1.594,4,4,0,0,0-.738-1.322,3.367,3.367,0,0,0-2.682-1.2,3.961,3.961,0,0,0-1.555.311,3.342,3.342,0,0,0-1.166.894,4,4,0,0,0-.738,1.322A4.583,4.583,0,0,0,98.4,214.612Z" transform="translate(-60.623 -200.814)" fill="#231f20"/>
        <path id="Caminho_542" data-name="Caminho 542" d="M147.778,207.566a1.4,1.4,0,0,1,.078-.428,2.155,2.155,0,0,1,.233-.311.959.959,0,0,1,.35-.155,1.075,1.075,0,0,1,.35-.039h1.943a.671.671,0,0,1,.505.194,1.6,1.6,0,0,1,.311.505c.078.194.155.428.233.661l.233.7c.272-.272.505-.544.777-.855.272-.272.544-.505.816-.738a3.316,3.316,0,0,1,.972-.505,3.725,3.725,0,0,1,1.2-.194,5.883,5.883,0,0,1,1.244.117,5.373,5.373,0,0,1,1.049.311,5.807,5.807,0,0,1,.972.505c.311.194.661.466,1.049.738.389.233.544.466.544.777a1.239,1.239,0,0,1-.233.661l-1.166,2.021a.977.977,0,0,1-.855.505,1.305,1.305,0,0,1-.583-.155,5.14,5.14,0,0,0-1.127-.816,2.873,2.873,0,0,0-1.322-.272,2.16,2.16,0,0,0-.894.155,2.475,2.475,0,0,0-.7.389,4.557,4.557,0,0,0-.583.622,7.431,7.431,0,0,0-.544.816v9.367a1.052,1.052,0,0,1-.233.738,1.094,1.094,0,0,1-.777.233h-2.915A.9.9,0,0,1,147.7,222.1V207.566Z" transform="translate(-93.635 -200.997)" fill="#231f20"/>
        <path id="Caminho_543" data-name="Caminho 543" d="M205.213,221.9a1.653,1.653,0,0,1-.078.428.692.692,0,0,1-.272.311.752.752,0,0,1-.35.194,1.076,1.076,0,0,1-.35.039h-2.526a1.2,1.2,0,0,1-.428-.078.7.7,0,0,1-.272-.194.781.781,0,0,1-.155-.311,1.625,1.625,0,0,0-.155-.389l-.155-.583c-.233.233-.505.466-.777.7a4.954,4.954,0,0,1-.972.583,8.13,8.13,0,0,1-1.166.428,4.641,4.641,0,0,1-1.283.155,8.763,8.763,0,0,1-2.254-.311,7.71,7.71,0,0,1-2.021-.855,8.049,8.049,0,0,1-1.71-1.322,9.551,9.551,0,0,1-1.322-1.71,9.286,9.286,0,0,1-.855-2.021,8.829,8.829,0,0,1-.311-2.293,8.69,8.69,0,0,1,.661-3.343,8.529,8.529,0,0,1,1.788-2.682,7.556,7.556,0,0,1,2.682-1.788,8.5,8.5,0,0,1,3.3-.661,5.665,5.665,0,0,1,1.477.194,4.648,4.648,0,0,1,1.283.505,7.182,7.182,0,0,1,1.049.738,4.689,4.689,0,0,1,.816.933l.389-1.166c.078-.233.155-.389.194-.505a.846.846,0,0,1,.194-.311.336.336,0,0,1,.233-.117,1.084,1.084,0,0,1,.389-.039H204.2a1.339,1.339,0,0,1,.35.039.631.631,0,0,1,.35.194,1.047,1.047,0,0,1,.272.311,1.4,1.4,0,0,1,.078.428v14.5Zm-12.71-7.229a4.294,4.294,0,0,0,.272,1.594,4.115,4.115,0,0,0,.738,1.283,3.623,3.623,0,0,0,1.166.855,3.912,3.912,0,0,0,1.516.311,4.159,4.159,0,0,0,1.594-.311,3.93,3.93,0,0,0,2.138-2.138,4.311,4.311,0,0,0,.311-1.594,4.471,4.471,0,0,0-.311-1.594,4.3,4.3,0,0,0-.855-1.322,3.8,3.8,0,0,0-1.283-.894,4.04,4.04,0,0,0-3.109,0,3.341,3.341,0,0,0-1.166.894,4,4,0,0,0-.738,1.322A4.583,4.583,0,0,0,192.5,214.673Z" transform="translate(-118.149 -200.875)" fill="#231f20"/>
        <path id="Caminho_544" data-name="Caminho 544" d="M249.64,200.344a.987.987,0,0,1,.311-.389.717.717,0,0,1,.505-.155h3.576a1.035,1.035,0,0,1,.466.117.346.346,0,0,1,.194.311c0,.078,0,.155-.039.155l-8.162,18.035a1,1,0,0,1-.272.428.58.58,0,0,1-.389.117h-3.887c-.35,0-.544-.117-.544-.35v-.039l.039-.194Z" transform="translate(-74.915 -197.963)" fill="#4d519d"/>
        <path id="Caminho_545" data-name="Caminho 545" d="M286.3,217.6a3.482,3.482,0,0,0,.738.583c.272.155.544.272.777.389a2.486,2.486,0,0,0,.661.194,3.25,3.25,0,0,0,.389.078,3.785,3.785,0,0,0,.622-.039,2.263,2.263,0,0,0,.738-.117,1.4,1.4,0,0,0,.583-.311.82.82,0,0,0,.233-.622.937.937,0,0,0-.155-.583.782.782,0,0,0-.428-.35,2.6,2.6,0,0,0-.661-.272c-.272-.078-.544-.155-.894-.272a10.069,10.069,0,0,1-2.565-1.011,6.057,6.057,0,0,1-1.594-1.283,4.279,4.279,0,0,1-.816-1.555,6.339,6.339,0,0,1-.233-1.749,4.591,4.591,0,0,1,.428-1.943,4.526,4.526,0,0,1,1.2-1.516,5.873,5.873,0,0,1,1.9-.972,8.1,8.1,0,0,1,2.449-.35,9.236,9.236,0,0,1,1.516.117,5.538,5.538,0,0,1,1.36.428,5.829,5.829,0,0,1,1.244.738,7.823,7.823,0,0,1,1.2,1.088.752.752,0,0,1,.233.466.6.6,0,0,1-.272.466c-.35.272-.661.544-.972.816s-.622.583-.933.894c-.117.078-.194.155-.311.155a.429.429,0,0,1-.311,0c-.078-.039-.194-.078-.272-.117a1.32,1.32,0,0,1-.233-.233,2.189,2.189,0,0,0-1.049-.661,3.68,3.68,0,0,0-1.088-.155,1.945,1.945,0,0,0-1.011.233.764.764,0,0,0-.35.661.693.693,0,0,0,.233.505,2.478,2.478,0,0,0,.544.311,4.7,4.7,0,0,0,.7.194c.233.039.466.117.661.155a15.291,15.291,0,0,1,2.138.816,6.536,6.536,0,0,1,1.671,1.088,4.2,4.2,0,0,1,1.088,1.516,5.893,5.893,0,0,1,.389,2.177,4.859,4.859,0,0,1-.505,2.293,5.418,5.418,0,0,1-1.4,1.71,5.918,5.918,0,0,1-2.1,1.049,9.453,9.453,0,0,1-2.643.35,7.743,7.743,0,0,1-1.632-.155,5.77,5.77,0,0,1-1.594-.466,6.157,6.157,0,0,1-1.477-.816,6.093,6.093,0,0,1-1.244-1.2,1.215,1.215,0,0,1-.194-.389,1.38,1.38,0,0,1-.078-.389,1.134,1.134,0,0,1,.078-.35.522.522,0,0,1,.233-.272l1.671-1.671a.676.676,0,0,1,.544-.194A1.878,1.878,0,0,1,286.3,217.6Z" transform="translate(-176.346 -200.692)" fill="#231f20"/>
        <path id="Caminho_546" data-name="Caminho 546" d="M326.4,214.612a9.061,9.061,0,0,1,.311-2.293,8.541,8.541,0,0,1,.855-2.021,8.047,8.047,0,0,1,1.321-1.71,9.549,9.549,0,0,1,1.71-1.322,11.687,11.687,0,0,1,2.021-.855,8.829,8.829,0,0,1,2.293-.311,8.642,8.642,0,0,1,3.3.661,8.529,8.529,0,0,1,2.682,1.788,9.114,9.114,0,0,1,1.827,2.682,8.546,8.546,0,0,1,.661,3.343,9.061,9.061,0,0,1-.311,2.293,8.543,8.543,0,0,1-.855,2.021,8.048,8.048,0,0,1-1.322,1.71,9.548,9.548,0,0,1-1.71,1.322,9.287,9.287,0,0,1-2.021.855,8.763,8.763,0,0,1-2.254.311,9.062,9.062,0,0,1-2.293-.311,7.2,7.2,0,0,1-2.021-.855,8.049,8.049,0,0,1-1.71-1.322,9.549,9.549,0,0,1-1.321-1.71,9.284,9.284,0,0,1-.855-2.021A8.314,8.314,0,0,1,326.4,214.612Zm4.7,0a4.293,4.293,0,0,0,.272,1.594,4.115,4.115,0,0,0,.738,1.283,3.247,3.247,0,0,0,1.166.855,3.961,3.961,0,0,0,1.555.311,3.912,3.912,0,0,0,1.516-.311,3.623,3.623,0,0,0,1.166-.855,4.116,4.116,0,0,0,.738-1.283,5.267,5.267,0,0,0,.233-1.594,5.453,5.453,0,0,0-.233-1.594,4,4,0,0,0-.738-1.322,3.367,3.367,0,0,0-2.682-1.2,3.961,3.961,0,0,0-1.555.311,3.342,3.342,0,0,0-1.166.894,4,4,0,0,0-.738,1.322A5.712,5.712,0,0,0,331.1,214.612Z" transform="translate(-202.878 -200.814)" fill="#231f20"/>
        <path id="Caminho_547" data-name="Caminho 547" d="M381.093,198.33a4.917,4.917,0,0,1,.505-2.254,6.4,6.4,0,0,1,3.381-3.109,5.949,5.949,0,0,1,2.332-.466h.272a.754.754,0,0,1,.661.272,1.121,1.121,0,0,1,.233.738v2.449a1.234,1.234,0,0,1-.233.777.83.83,0,0,1-.661.311h-.272a1.97,1.97,0,0,0-.505.078,1.605,1.605,0,0,0-.427.272,1.522,1.522,0,0,0-.311.389,1.076,1.076,0,0,0-.117.505v1.477h2.021a.854.854,0,0,1,.661.233,1.052,1.052,0,0,1,.233.738v2.371a1.2,1.2,0,0,1-.233.816.938.938,0,0,1-.661.272h-2.021v9.251a.936.936,0,0,1-.311.738,1.254,1.254,0,0,1-.7.233h-2.8a.968.968,0,0,1-.738-.272.937.937,0,0,1-.272-.7V204.2h-1.322a.968.968,0,0,1-.738-.272.988.988,0,0,1-.272-.816V200.74a.865.865,0,0,1,.272-.738,1.121,1.121,0,0,1,.738-.233h1.322V198.33Z" transform="translate(-234.911 -192.5)" fill="#231f20"/>
        <path id="Caminho_548" data-name="Caminho 548" d="M412.271,197.182a.614.614,0,0,1,.272-.583,4.249,4.249,0,0,1,.738-.389L416.2,195.2h.233c.311,0,.544.078.622.272a1.39,1.39,0,0,1,.155.738v3.537H419a.915.915,0,0,1,.661.233,1.064,1.064,0,0,1,.272.738v2.488a.95.95,0,0,1-.272.777.915.915,0,0,1-.661.233h-1.788V215.1a.914.914,0,0,1-.272.738,1.233,1.233,0,0,1-.777.233h-2.915a.9.9,0,0,1-1.011-1.011V204.178h-1.322a.916.916,0,0,1-1.011-1.049v-2.488c0-.661.35-.972,1.011-.972h1.322Z" transform="translate(-253.923 -194.151)" fill="#231f20"/>
        <path id="Caminho_549" data-name="Caminho 549" d="M446.482,209.689a2.226,2.226,0,0,1,.311-.272.7.7,0,0,1,.428-.117.475.475,0,0,1,.35.155c.117.078.194.194.311.272l6.491,6.452a.619.619,0,0,1,.194.389.725.725,0,0,1-.194.389l-6.763,6.763a.618.618,0,0,1-.389.194.464.464,0,0,1-.35-.194l-2.138-2.06a.672.672,0,0,1-.233-.466.557.557,0,0,1,.155-.389l4.237-4.237-4.237-4.237a1.01,1.01,0,0,1-.155-.389.54.54,0,0,1,.194-.389Z" transform="translate(-265.075 -202.77)" fill="#4d519d"/>
        <path id="Caminho_550" data-name="Caminho 550" d="M480.039,238.583a.584.584,0,0,1,.156-.428.484.484,0,0,1,.427-.155h3.42a.5.5,0,0,1,.389.155.557.557,0,0,1,.194.428v3.109a.6.6,0,0,1-.622.622h-3.42a.515.515,0,0,1-.583-.583v-3.148Z" transform="translate(-286.776 -220.315)" fill="#4d519d"/>
      </g>
      <g id="Grupo_135" data-name="Grupo 135" transform="translate(39.383 213.92)">
        <path id="Caminho_551" data-name="Caminho 551" d="M89.044,289.848a1.03,1.03,0,0,0,.233.194c.078.039.194.078.272.117s.155.039.233.078a.17.17,0,0,1,.117.039h.194a.493.493,0,0,0,.233-.039c.078-.039.155-.039.194-.117a.3.3,0,0,0,.078-.194.291.291,0,0,0-.039-.194.536.536,0,0,0-.155-.117.417.417,0,0,0-.233-.078.915.915,0,0,1-.311-.078,2.462,2.462,0,0,1-.855-.35,2.041,2.041,0,0,1-.544-.428,1.612,1.612,0,0,1-.272-.505,3,3,0,0,1-.078-.583,1.277,1.277,0,0,1,.155-.661,1.6,1.6,0,0,1,.389-.505,1.563,1.563,0,0,1,.622-.311,2.584,2.584,0,0,1,.816-.117,2.053,2.053,0,0,1,.505.039,2.194,2.194,0,0,1,.466.155c.155.078.272.155.428.233a3.508,3.508,0,0,1,.389.35.194.194,0,0,1,0,.311,2.222,2.222,0,0,0-.311.272,2.347,2.347,0,0,0-.311.311.143.143,0,0,1-.117.039h-.117a.136.136,0,0,1-.078-.039l-.078-.078a.918.918,0,0,0-.35-.233,1.076,1.076,0,0,0-.35-.039.928.928,0,0,0-.35.078.235.235,0,0,0-.117.233.2.2,0,0,0,.078.155.85.85,0,0,0,.194.117c.078.039.155.039.233.078.078,0,.155.039.233.039a2.92,2.92,0,0,1,.7.272,3.311,3.311,0,0,1,.544.35,1.48,1.48,0,0,1,.35.505,1.959,1.959,0,0,1,.117.738,1.74,1.74,0,0,1-.155.777,1.721,1.721,0,0,1-.466.583,1.973,1.973,0,0,1-.7.35,3.115,3.115,0,0,1-.894.117,2.567,2.567,0,0,1-.544-.039,2.867,2.867,0,0,1-.544-.155,3.215,3.215,0,0,1-.505-.272,2.038,2.038,0,0,1-.428-.389c-.039-.039-.039-.078-.078-.117,0-.039-.039-.078-.039-.117a.143.143,0,0,1,.039-.117.084.084,0,0,1,.078-.078l.544-.544c.078-.039.117-.078.194-.078C88.927,289.731,88.966,289.77,89.044,289.848Z" transform="translate(-87.8 -283.901)" fill="#4d519d"/>
        <path id="Caminho_552" data-name="Caminho 552" d="M102.7,288.837a2.693,2.693,0,0,1,.117-.777,3.365,3.365,0,0,1,.272-.661,5.561,5.561,0,0,1,.428-.583,2.263,2.263,0,0,1,.583-.428,3.364,3.364,0,0,1,.661-.272,2.506,2.506,0,0,1,.777-.117,2.608,2.608,0,0,1,1.088.233,2.969,2.969,0,0,1,.894.583,2.848,2.848,0,0,1,.622.894,2.658,2.658,0,0,1,.233,1.127,2.693,2.693,0,0,1-.117.777,3.363,3.363,0,0,1-.272.661,5.567,5.567,0,0,1-.428.583,2.265,2.265,0,0,1-.583.428,1.98,1.98,0,0,1-.661.272,2.44,2.44,0,0,1-.739.117,2.692,2.692,0,0,1-.777-.117,2.6,2.6,0,0,1-.661-.272,5.57,5.57,0,0,1-.583-.428,2.266,2.266,0,0,1-.428-.583,1.981,1.981,0,0,1-.272-.661A1.853,1.853,0,0,1,102.7,288.837Zm1.555,0a2.625,2.625,0,0,0,.078.544,4.231,4.231,0,0,0,.233.428.888.888,0,0,0,.389.272,1.153,1.153,0,0,0,1.011,0,1.4,1.4,0,0,0,.389-.272.926.926,0,0,0,.233-.428,2.294,2.294,0,0,0,.078-.544,2.624,2.624,0,0,0-.078-.544,1.508,1.508,0,0,0-.233-.428,1.058,1.058,0,0,0-.389-.311,1.153,1.153,0,0,0-1.011,0,.987.987,0,0,0-.389.311.927.927,0,0,0-.233.428A2.624,2.624,0,0,0,104.255,288.837Z" transform="translate(-96.909 -283.901)" fill="#4d519d"/>
        <path id="Caminho_553" data-name="Caminho 553" d="M120.7,282.411a.552.552,0,0,1,.078-.233c.039-.078.117-.078.233-.078h1.049c.039,0,.078,0,.078.039a.084.084,0,0,1,.078.078c.039.039.039.078.078.117,0,.039.039.078.039.117v6.413a.329.329,0,0,1-.078.233.552.552,0,0,1-.233.078h-1.011a.329.329,0,0,1-.233-.078.417.417,0,0,1-.078-.233Z" transform="translate(-107.912 -281.517)" fill="#4d519d"/>
        <path id="Caminho_554" data-name="Caminho 554" d="M134.114,291.542c-.039.039-.078.039-.117.078h-.777a.143.143,0,0,1-.117-.039.084.084,0,0,1-.078-.078c-.039-.039-.039-.078-.078-.117,0-.039-.039-.078-.039-.117l-.078-.428a.729.729,0,0,1-.233.272,1.4,1.4,0,0,1-.389.272,1.954,1.954,0,0,1-.505.194,3.02,3.02,0,0,1-.622.078,1.845,1.845,0,0,1-1.477-.7,2.431,2.431,0,0,1-.389-.777,3.608,3.608,0,0,1-.117-.933v-2.837a.275.275,0,0,1,.311-.311h1.011a.562.562,0,0,1,.272.078.329.329,0,0,1,.078.233v2.8a1.135,1.135,0,0,0,.078.35,1.365,1.365,0,0,0,.194.311.7.7,0,0,0,.272.194,1.135,1.135,0,0,0,.35.078,1.076,1.076,0,0,0,.35-.039,1.379,1.379,0,0,0,.35-.156.907.907,0,0,0,.272-.272.783.783,0,0,0,.117-.428v-2.8a.234.234,0,0,1,.039-.155c0-.039.039-.078.078-.117a.143.143,0,0,1,.117-.039h1.088a.562.562,0,0,1,.272.078.552.552,0,0,1,.078.233v4.82a.233.233,0,0,1-.039.155.888.888,0,0,0-.272.117Z" transform="translate(-113.048 -283.962)" fill="#4d519d"/>
        <path id="Caminho_555" data-name="Caminho 555" d="M149.692,289.948a.143.143,0,0,1,.117-.039h.078a.143.143,0,0,1,.117.039l.117.117.466.738c0,.039.039.039.039.078s.039.039.039.078a.2.2,0,0,1-.078.156l-.117.117a2.913,2.913,0,0,1-.777.389,2.528,2.528,0,0,1-1.632.039,3.361,3.361,0,0,1-.661-.272,5.564,5.564,0,0,1-.583-.428,2.265,2.265,0,0,1-.428-.583,1.98,1.98,0,0,1-.272-.661,2.506,2.506,0,0,1-.117-.777,2.693,2.693,0,0,1,.117-.777,3.362,3.362,0,0,1,.272-.661,5.566,5.566,0,0,1,.428-.583,2.264,2.264,0,0,1,.583-.428,3.363,3.363,0,0,1,.661-.272,2.441,2.441,0,0,1,.738-.117,3.032,3.032,0,0,1,.855.117,1.936,1.936,0,0,1,.738.389h0a.537.537,0,0,1,.155.117.291.291,0,0,1,.039.194.234.234,0,0,1-.039.155l-.389.661a.32.32,0,0,1-.311.194h-.078c-.039,0-.078-.039-.117-.078a1.815,1.815,0,0,0-.389-.194,1.67,1.67,0,0,0-.466-.078,1.076,1.076,0,0,0-.505.117.987.987,0,0,0-.389.311.927.927,0,0,0-.233.428,1.235,1.235,0,0,0-.078.544,2.624,2.624,0,0,0,.078.544,4.236,4.236,0,0,0,.233.428.889.889,0,0,0,.389.272,1.076,1.076,0,0,0,.505.117,1.949,1.949,0,0,0,.466-.078A2.311,2.311,0,0,1,149.692,289.948Zm-.194,1.671c-.078.039-.078.078-.078.155,0,.039.039.078.078.117s.117.078.155.117c.078.039.117.078.194.117a.848.848,0,0,1,.194.155.682.682,0,0,1,.155.194.562.562,0,0,1,.078.272.738.738,0,0,1-.117.35,1.258,1.258,0,0,1-.311.35,1.4,1.4,0,0,1-.466.311,1.833,1.833,0,0,1-.583.233h-.039c-.039,0-.078-.039-.155-.078a.357.357,0,0,1-.155-.233l-.117-.233a.294.294,0,0,1-.039-.155c0-.039,0-.078.039-.078.505-.117.738-.272.738-.466a.2.2,0,0,0-.078-.155c-.039-.039-.117-.078-.155-.155-.078-.039-.117-.078-.194-.117a.388.388,0,0,1-.194-.155c-.078-.039-.117-.117-.155-.155a.553.553,0,0,1-.078-.233V291.7a.559.559,0,0,1,.078-.117h1.2Z" transform="translate(-123.379 -283.962)" fill="#4d519d"/>
        <path id="Caminho_556" data-name="Caminho 556" d="M161.3,286.025a2.693,2.693,0,0,1,.117-.777,3.362,3.362,0,0,1,.272-.661,5.562,5.562,0,0,1,.428-.583,2.264,2.264,0,0,1,.583-.428,4.747,4.747,0,0,1,.661-.272,2.505,2.505,0,0,1,.777-.117,2.609,2.609,0,0,1,1.088.233,3.548,3.548,0,0,1,.894.583,2.847,2.847,0,0,1,.622.894,2.658,2.658,0,0,1,.233,1.127,2.693,2.693,0,0,1-.117.777,3.362,3.362,0,0,1-.272.661,5.562,5.562,0,0,1-.428.583,2.265,2.265,0,0,1-.583.428,1.981,1.981,0,0,1-.661.272,2.441,2.441,0,0,1-.738.117,2.694,2.694,0,0,1-.777-.117,3.363,3.363,0,0,1-.661-.272,5.565,5.565,0,0,1-.583-.428,2.265,2.265,0,0,1-.428-.583,2.379,2.379,0,0,1-.272-.661A1.853,1.853,0,0,1,161.3,286.025Zm1.322-4.12a.468.468,0,0,1,.194-.194.813.813,0,0,1,.233-.155c.078-.039.194-.078.272-.117a.661.661,0,0,1,.272-.039h.155c.078,0,.117.039.194.078l.233.117a3.589,3.589,0,0,1,.311.194.12.12,0,0,0,.078.039h.117c.078,0,.117,0,.155-.039s.078-.039.117-.078l.155-.155c.039-.039.039-.039.078-.039s.039,0,.078.039l.428.389c.039.039.039.078.078.078,0,.039,0,.039-.039.078l-.117.155a2.035,2.035,0,0,1-.428.389,1.242,1.242,0,0,1-.544.117c-.117,0-.233-.039-.35-.039a1.381,1.381,0,0,1-.35-.155l-.233-.155a.12.12,0,0,0-.078-.039h-.117a.234.234,0,0,0-.155.039c-.039.039-.078.039-.117.078l-.117.155c0,.039-.039.039-.078.039a.143.143,0,0,1-.117-.039l-.428-.389-.039-.039v-.039h0v-.039a.136.136,0,0,0,.039-.078A.536.536,0,0,1,162.622,281.905Zm.272,4.12a2.624,2.624,0,0,0,.078.544,4.232,4.232,0,0,0,.233.428.889.889,0,0,0,.389.272,1.153,1.153,0,0,0,1.011,0,1.4,1.4,0,0,0,.389-.272.926.926,0,0,0,.233-.428,2.294,2.294,0,0,0,.078-.544,2.626,2.626,0,0,0-.078-.544.927.927,0,0,0-.233-.428,1.522,1.522,0,0,0-.389-.311,1.153,1.153,0,0,0-1.011,0,.987.987,0,0,0-.389.311.926.926,0,0,0-.233.428A2.625,2.625,0,0,0,162.894,286.025Z" transform="translate(-132.732 -281.089)" fill="#4d519d"/>
        <path id="Caminho_557" data-name="Caminho 557" d="M183.981,290.9a2.471,2.471,0,0,1-.855.544,2.92,2.92,0,0,1-1.011.194,2.789,2.789,0,0,1-1.127-.233,3.785,3.785,0,0,1-.933-.583,2.848,2.848,0,0,1-.622-.894,2.658,2.658,0,0,1-.233-1.127,4.765,4.765,0,0,1,.078-.739,3.363,3.363,0,0,1,.272-.661,2.783,2.783,0,0,1,.428-.583,2.933,2.933,0,0,1,.544-.428,1.98,1.98,0,0,1,.661-.272,2.263,2.263,0,0,1,.738-.117,4.282,4.282,0,0,1,.7.078,3.009,3.009,0,0,1,.622.272,1.891,1.891,0,0,1,.544.428,2.938,2.938,0,0,1,.428.544,3.008,3.008,0,0,1,.272.622,1.926,1.926,0,0,1,.078.661v.35a.553.553,0,0,1-.078.233.848.848,0,0,1-.194.117,1.208,1.208,0,0,1-.428.039h-3.109a1.311,1.311,0,0,0,.156.466,1.183,1.183,0,0,0,.311.311,1.381,1.381,0,0,0,.35.155,1.075,1.075,0,0,0,.35.039.855.855,0,0,0,.311-.039c.117-.039.233-.039.311-.078a1.9,1.9,0,0,0,.272-.117.848.848,0,0,0,.194-.155c.039-.039.078-.078.117-.078s.078-.039.117-.039a.143.143,0,0,1,.117.039l.117.117.466.505c.039.039.039.078.078.117v.078a.234.234,0,0,1-.039.156C184.059,290.859,184.02,290.9,183.981,290.9Zm-2.1-3.576a.732.732,0,0,0-.311.078,1.362,1.362,0,0,0-.311.194,1.691,1.691,0,0,0-.233.272c-.078.078-.117.194-.194.272h2.215a2.173,2.173,0,0,0-.194-.311c-.078-.078-.155-.194-.233-.233a2.006,2.006,0,0,0-.738-.272Z" transform="translate(-143.675 -283.901)" fill="#4d519d"/>
        <path id="Caminho_558" data-name="Caminho 558" d="M196.844,289.848a1.03,1.03,0,0,0,.233.194c.078.039.194.078.272.117s.155.039.233.078a.17.17,0,0,1,.117.039h.194a.493.493,0,0,0,.233-.039c.078-.039.155-.039.194-.117a.3.3,0,0,0,.078-.194.291.291,0,0,0-.039-.194.536.536,0,0,0-.155-.117.417.417,0,0,0-.233-.078.914.914,0,0,1-.311-.078,2.462,2.462,0,0,1-.855-.35,2.041,2.041,0,0,1-.544-.428,1.613,1.613,0,0,1-.272-.505,3,3,0,0,1-.078-.583,1.278,1.278,0,0,1,.155-.661,1.6,1.6,0,0,1,.389-.505,1.87,1.87,0,0,1,.622-.311,2.584,2.584,0,0,1,.816-.117,2.053,2.053,0,0,1,.505.039,2.194,2.194,0,0,1,.466.155c.155.078.272.155.428.233a3.507,3.507,0,0,1,.389.35.194.194,0,0,1,0,.311,2.222,2.222,0,0,0-.311.272,2.346,2.346,0,0,0-.311.311.143.143,0,0,1-.117.039h-.117a.136.136,0,0,1-.078-.039l-.078-.078a.918.918,0,0,0-.35-.233,1.076,1.076,0,0,0-.35-.039.776.776,0,0,0-.35.078.235.235,0,0,0-.117.233.2.2,0,0,0,.078.155.85.85,0,0,0,.194.117c.078.039.155.039.233.078.078,0,.155.039.233.039a2.92,2.92,0,0,1,.7.272,3.31,3.31,0,0,1,.544.35,1.48,1.48,0,0,1,.35.505,1.959,1.959,0,0,1,.117.738,1.74,1.74,0,0,1-.155.777,1.721,1.721,0,0,1-.466.583,1.973,1.973,0,0,1-.7.35,3.115,3.115,0,0,1-.894.117,2.567,2.567,0,0,1-.544-.039,2.866,2.866,0,0,1-.544-.155,3.213,3.213,0,0,1-.505-.272,2.038,2.038,0,0,1-.428-.389c-.039-.039-.039-.078-.078-.117,0-.039-.039-.078-.039-.117a.143.143,0,0,1,.039-.117.084.084,0,0,1,.078-.078l.544-.544c.078-.039.117-.078.194-.078C196.688,289.731,196.766,289.77,196.844,289.848Z" transform="translate(-153.7 -283.901)" fill="#4d519d"/>
        <path id="Caminho_559" data-name="Caminho 559" d="M223.381,290.9a2.47,2.47,0,0,1-.855.544,2.92,2.92,0,0,1-1.011.194,2.789,2.789,0,0,1-1.127-.233,3.786,3.786,0,0,1-.933-.583,2.848,2.848,0,0,1-.622-.894,2.658,2.658,0,0,1-.233-1.127,4.765,4.765,0,0,1,.078-.739,3.363,3.363,0,0,1,.272-.661,2.783,2.783,0,0,1,.428-.583,2.933,2.933,0,0,1,.544-.428,1.98,1.98,0,0,1,.661-.272,2.263,2.263,0,0,1,.738-.117,4.282,4.282,0,0,1,.7.078,3.008,3.008,0,0,1,.622.272,1.89,1.89,0,0,1,.544.428,2.937,2.937,0,0,1,.428.544,3.009,3.009,0,0,1,.272.622,1.926,1.926,0,0,1,.078.661v.35a.553.553,0,0,1-.078.233.848.848,0,0,1-.194.117,1.208,1.208,0,0,1-.428.039h-3.109a1.312,1.312,0,0,0,.155.466,1.184,1.184,0,0,0,.311.311,1.381,1.381,0,0,0,.35.155,1.075,1.075,0,0,0,.35.039.855.855,0,0,0,.311-.039c.117-.039.233-.039.311-.078a1.894,1.894,0,0,0,.272-.117.848.848,0,0,0,.194-.155c.039-.039.078-.078.117-.078s.078-.039.117-.039a.143.143,0,0,1,.117.039l.117.117.466.505c.039.039.039.078.078.117v.078a.234.234,0,0,1-.039.156C223.458,290.859,223.42,290.9,223.381,290.9Zm-2.06-3.576a.732.732,0,0,0-.311.078,1.363,1.363,0,0,0-.311.194,1.693,1.693,0,0,0-.233.272c-.078.078-.117.194-.194.272h2.215a2.171,2.171,0,0,0-.194-.311c-.078-.078-.155-.194-.233-.233a2.3,2.3,0,0,0-.311-.155A.886.886,0,0,0,221.321,287.322Z" transform="translate(-167.761 -283.901)" fill="#4d519d"/>
        <path id="Caminho_560" data-name="Caminho 560" d="M236.217,286.255c.039-.039.078-.039.117-.078h.777a.143.143,0,0,1,.117.039.084.084,0,0,1,.078.078c.039.039.039.078.078.117,0,.039.039.078.039.117l.078.389a1.181,1.181,0,0,1,.194-.272,2.219,2.219,0,0,1,.311-.272,1.436,1.436,0,0,1,.428-.194,2.644,2.644,0,0,1,.583-.078,2.053,2.053,0,0,1,.505.039,1.165,1.165,0,0,1,.389.155,1.787,1.787,0,0,1,.622.622.728.728,0,0,1,.233-.272,3.362,3.362,0,0,1,.389-.272,1.953,1.953,0,0,1,.505-.194,3,3,0,0,1,.583-.078,1.845,1.845,0,0,1,1.477.7,2.373,2.373,0,0,1,.35.777,3.4,3.4,0,0,1,.117.933v2.837a.275.275,0,0,1-.311.311h-1.011a.562.562,0,0,1-.272-.078.329.329,0,0,1-.078-.233V288.51a1.076,1.076,0,0,0-.039-.35.626.626,0,0,0-.155-.272,1.03,1.03,0,0,0-.233-.194.66.66,0,0,0-.622,0,.7.7,0,0,0-.272.194,1.644,1.644,0,0,0-.194.272,1.134,1.134,0,0,0-.078.35v2.837a.275.275,0,0,1-.311.311h-.972a.562.562,0,0,1-.272-.078.329.329,0,0,1-.078-.233V288.51a1.076,1.076,0,0,0-.039-.35.627.627,0,0,0-.155-.272,1.031,1.031,0,0,0-.233-.194.732.732,0,0,0-.311-.078.915.915,0,0,0-.311.078,1.016,1.016,0,0,0-.466.466,1.134,1.134,0,0,0-.078.35v2.837a.234.234,0,0,1-.039.155c0,.039-.039.078-.078.117a.143.143,0,0,1-.117.039H236.45a.562.562,0,0,1-.272-.078.553.553,0,0,1-.078-.233v-4.82a.234.234,0,0,1,.039-.155.481.481,0,0,1,.078-.117Z" transform="translate(-178.459 -283.962)" fill="#4d519d"/>
        <path id="Caminho_561" data-name="Caminho 561" d="M268.916,283.061a.3.3,0,0,1,.078-.194l.233-.117.972-.35h.078c.117,0,.194.039.194.078a.494.494,0,0,1,.039.233v1.166h.583a.552.552,0,0,1,.233.078.417.417,0,0,1,.078.233V285a.562.562,0,0,1-.078.272.329.329,0,0,1-.233.078h-.583v3.615a.328.328,0,0,1-.078.233.562.562,0,0,1-.272.078h-.933a.309.309,0,0,1-.35-.35v-3.615h-.428a.309.309,0,0,1-.35-.35v-.816c0-.233.117-.311.35-.311h.428Z" transform="translate(-198.021 -281.7)" fill="#4d519d"/>
        <path id="Caminho_562" data-name="Caminho 562" d="M283.981,290.9a2.471,2.471,0,0,1-.855.544,2.92,2.92,0,0,1-1.011.194,2.789,2.789,0,0,1-1.127-.233,3.786,3.786,0,0,1-.933-.583,2.849,2.849,0,0,1-.622-.894,2.658,2.658,0,0,1-.233-1.127,4.761,4.761,0,0,1,.078-.739,3.361,3.361,0,0,1,.272-.661,2.782,2.782,0,0,1,.428-.583,2.933,2.933,0,0,1,.544-.428,1.98,1.98,0,0,1,.661-.272,2.263,2.263,0,0,1,.739-.117,4.282,4.282,0,0,1,.7.078,3.009,3.009,0,0,1,.622.272,1.891,1.891,0,0,1,.544.428,2.937,2.937,0,0,1,.428.544,3.01,3.01,0,0,1,.272.622,1.925,1.925,0,0,1,.078.661v.35a.552.552,0,0,1-.078.233.846.846,0,0,1-.194.117,1.208,1.208,0,0,1-.428.039h-3.109a1.311,1.311,0,0,0,.155.466,1.183,1.183,0,0,0,.311.311,1.38,1.38,0,0,0,.35.155,1.075,1.075,0,0,0,.35.039.855.855,0,0,0,.311-.039c.117-.039.233-.039.311-.078a1.9,1.9,0,0,0,.272-.117.849.849,0,0,0,.194-.155c.039-.039.078-.078.117-.078s.078-.039.117-.039a.143.143,0,0,1,.117.039l.117.117.466.505c.039.039.039.078.078.117v.078a.234.234,0,0,1-.039.156C284.1,290.859,284.059,290.9,283.981,290.9Zm-2.06-3.576a.732.732,0,0,0-.311.078,1.364,1.364,0,0,0-.311.194,1.693,1.693,0,0,0-.233.272c-.078.078-.117.194-.194.272h2.215a2.173,2.173,0,0,0-.194-.311c-.078-.078-.155-.194-.233-.233a2.3,2.3,0,0,0-.311-.155A.783.783,0,0,0,281.921,287.322Z" transform="translate(-204.807 -283.901)" fill="#4d519d"/>
        <path id="Caminho_563" data-name="Caminho 563" d="M299.992,289.948a.143.143,0,0,1,.117-.039h.078a.143.143,0,0,1,.117.039l.117.117.466.738c0,.039.039.039.039.078s.039.039.039.078a.2.2,0,0,1-.078.156l-.117.117a2.912,2.912,0,0,1-.777.389,2.528,2.528,0,0,1-1.632.039,3.364,3.364,0,0,1-.661-.272,5.561,5.561,0,0,1-.583-.428,2.265,2.265,0,0,1-.428-.583,1.981,1.981,0,0,1-.272-.661,2.505,2.505,0,0,1-.117-.777,2.692,2.692,0,0,1,.117-.777,3.366,3.366,0,0,1,.272-.661,5.564,5.564,0,0,1,.428-.583,2.264,2.264,0,0,1,.583-.428,3.366,3.366,0,0,1,.661-.272,2.441,2.441,0,0,1,.738-.117,3.031,3.031,0,0,1,.855.117,1.936,1.936,0,0,1,.738.389h0a.537.537,0,0,1,.155.117.291.291,0,0,1,.039.194.233.233,0,0,1-.039.155l-.389.661a.32.32,0,0,1-.311.194h-.078c-.039,0-.078-.039-.117-.078a1.814,1.814,0,0,0-.389-.194,1.67,1.67,0,0,0-.466-.078,1.076,1.076,0,0,0-.505.117.987.987,0,0,0-.389.311.927.927,0,0,0-.233.428,1.236,1.236,0,0,0-.078.544,2.627,2.627,0,0,0,.078.544,4.245,4.245,0,0,0,.233.428.888.888,0,0,0,.389.272,1.076,1.076,0,0,0,.505.117,1.949,1.949,0,0,0,.466-.078A1.489,1.489,0,0,1,299.992,289.948Z" transform="translate(-215.26 -283.962)" fill="#4d519d"/>
        <path id="Caminho_564" data-name="Caminho 564" d="M311.794,286.255c.039-.039.078-.039.117-.078h.777a.143.143,0,0,1,.117.039.084.084,0,0,1,.078.078c.039.039.039.078.078.117,0,.039.039.078.039.117l.078.389a1.18,1.18,0,0,1,.194-.272,2.736,2.736,0,0,1,.35-.272,1.95,1.95,0,0,1,.505-.194,3.018,3.018,0,0,1,.622-.078,2.307,2.307,0,0,1,.894.194,2.138,2.138,0,0,1,.661.505,2.5,2.5,0,0,1,.428.777,3.341,3.341,0,0,1,.155.933v2.837a.275.275,0,0,1-.311.311h-1.011a.562.562,0,0,1-.272-.078.328.328,0,0,1-.078-.233v-2.8a1.134,1.134,0,0,0-.078-.35.816.816,0,0,0-.233-.311.847.847,0,0,0-.311-.194,1.135,1.135,0,0,0-.35-.078.915.915,0,0,0-.311.078,1.366,1.366,0,0,0-.311.194c-.078.078-.155.194-.233.272a1.237,1.237,0,0,0-.117.35v2.8a.234.234,0,0,1-.039.155c0,.039-.039.078-.078.117a.143.143,0,0,1-.117.039H311.95a.562.562,0,0,1-.272-.078.552.552,0,0,1-.078-.233v-4.82a.234.234,0,0,1,.039-.155c.078-.039.117-.078.156-.078Z" transform="translate(-224.613 -283.962)" fill="#4d519d"/>
        <path id="Caminho_565" data-name="Caminho 565" d="M328.7,288.837a2.693,2.693,0,0,1,.117-.777,3.362,3.362,0,0,1,.272-.661,5.552,5.552,0,0,1,.428-.583,2.262,2.262,0,0,1,.583-.428,4.736,4.736,0,0,1,.661-.272,2.507,2.507,0,0,1,.777-.117,2.608,2.608,0,0,1,1.088.233,2.969,2.969,0,0,1,.894.583,2.848,2.848,0,0,1,.622.894,2.659,2.659,0,0,1,.233,1.127,2.693,2.693,0,0,1-.117.777,3.362,3.362,0,0,1-.272.661,5.568,5.568,0,0,1-.428.583,2.266,2.266,0,0,1-.583.428,1.98,1.98,0,0,1-.661.272,2.44,2.44,0,0,1-.738.117,2.693,2.693,0,0,1-.777-.117,3.36,3.36,0,0,1-.661-.272,5.572,5.572,0,0,1-.583-.428,2.265,2.265,0,0,1-.428-.583,1.979,1.979,0,0,1-.272-.661A1.852,1.852,0,0,1,328.7,288.837Zm1.555,0a2.622,2.622,0,0,0,.078.544,4.247,4.247,0,0,0,.233.428.889.889,0,0,0,.389.272,1.153,1.153,0,0,0,1.011,0,1.4,1.4,0,0,0,.389-.272.926.926,0,0,0,.233-.428,2.3,2.3,0,0,0,.078-.544,2.625,2.625,0,0,0-.078-.544,1.249,1.249,0,0,0-.622-.739,1.153,1.153,0,0,0-1.011,0,.988.988,0,0,0-.389.311.926.926,0,0,0-.233.428A2.621,2.621,0,0,0,330.255,288.837Z" transform="translate(-235.067 -283.901)" fill="#4d519d"/>
        <path id="Caminho_566" data-name="Caminho 566" d="M346.8,282.411a.552.552,0,0,1,.078-.233c.039-.078.117-.078.233-.078h1.049c.039,0,.078,0,.078.039a.084.084,0,0,1,.078.078c0,.039.039.078.078.117,0,.039.039.078.039.117v6.413a.328.328,0,0,1-.078.233.552.552,0,0,1-.233.078h-1.011a.328.328,0,0,1-.233-.078.416.416,0,0,1-.078-.233v-6.452Z" transform="translate(-246.132 -281.517)" fill="#4d519d"/>
        <path id="Caminho_567" data-name="Caminho 567" d="M354.5,288.837a2.694,2.694,0,0,1,.117-.777,3.364,3.364,0,0,1,.272-.661,5.56,5.56,0,0,1,.428-.583,2.263,2.263,0,0,1,.583-.428,4.737,4.737,0,0,1,.661-.272,2.506,2.506,0,0,1,.777-.117,2.608,2.608,0,0,1,1.088.233,2.969,2.969,0,0,1,.894.583,2.848,2.848,0,0,1,.622.894,2.659,2.659,0,0,1,.233,1.127,2.694,2.694,0,0,1-.117.777,3.362,3.362,0,0,1-.272.661,5.567,5.567,0,0,1-.428.583,2.266,2.266,0,0,1-.583.428,1.981,1.981,0,0,1-.661.272,2.44,2.44,0,0,1-.738.117,2.692,2.692,0,0,1-.777-.117,3.359,3.359,0,0,1-.661-.272,5.562,5.562,0,0,1-.583-.428,2.265,2.265,0,0,1-.428-.583,1.98,1.98,0,0,1-.272-.661A1.853,1.853,0,0,1,354.5,288.837Zm1.594,0a2.626,2.626,0,0,0,.078.544,4.241,4.241,0,0,0,.233.428.889.889,0,0,0,.389.272,1.153,1.153,0,0,0,1.011,0,1.4,1.4,0,0,0,.389-.272.926.926,0,0,0,.233-.428,2.294,2.294,0,0,0,.078-.544,2.623,2.623,0,0,0-.078-.544,1.507,1.507,0,0,0-.233-.428,1.523,1.523,0,0,0-.389-.311,1.153,1.153,0,0,0-1.011,0,.988.988,0,0,0-.389.311.927.927,0,0,0-.233.428A1.322,1.322,0,0,0,356.094,288.837Z" transform="translate(-250.839 -283.901)" fill="#4d519d"/>
        <path id="Caminho_568" data-name="Caminho 568" d="M376.442,291.425a.291.291,0,0,0,.039-.194v-.389a1.8,1.8,0,0,1-.272.272c-.078.078-.194.155-.272.233a1.378,1.378,0,0,1-.35.155,1.449,1.449,0,0,1-.466.078,3.373,3.373,0,0,1-1.088-.194,2.47,2.47,0,0,1-.855-.544,2.769,2.769,0,0,1-.583-.855,3.145,3.145,0,0,1,0-2.177,2.231,2.231,0,0,1,.583-.894,2.1,2.1,0,0,1,.855-.583,2.484,2.484,0,0,1,1.088-.233,1.967,1.967,0,0,1,.505.078,1.163,1.163,0,0,1,.389.155l.35.233a1.047,1.047,0,0,1,.272.311l.117-.389c0-.039.039-.078.039-.117s.039-.078.039-.117l.078-.078c.039,0,.078-.039.155-.039h.661a.143.143,0,0,1,.117.039c.039,0,.078.039.117.078s.078.078.078.117c.039.039.039.078.039.155v4.392a2.9,2.9,0,0,1-.233,1.2,2.968,2.968,0,0,1-.583.894,2.634,2.634,0,0,1-.894.544,3.612,3.612,0,0,1-1.127.194,2.39,2.39,0,0,1-.505-.039c-.194-.039-.35-.078-.544-.117a1.952,1.952,0,0,1-.505-.194,1.729,1.729,0,0,1-.428-.311l-.117-.117a.234.234,0,0,1-.039-.155.553.553,0,0,1,.078-.233l.428-.583c.039-.039.078-.078.117-.078a.143.143,0,0,1,.117-.039.336.336,0,0,1,.233.117.811.811,0,0,0,.233.155c.078.039.194.078.272.117a.857.857,0,0,0,.311.039h.272a1.324,1.324,0,0,0,.389-.039,1.165,1.165,0,0,0,.389-.155,2.155,2.155,0,0,0,.311-.233C376.326,291.658,376.4,291.58,376.442,291.425Zm-2.449-2.526a2.292,2.292,0,0,0,.078.544,4.222,4.222,0,0,0,.233.428.888.888,0,0,0,.389.272,1.153,1.153,0,0,0,1.011,0,1.6,1.6,0,0,0,.428-.272.888.888,0,0,0,.272-.389,1.076,1.076,0,0,0,.117-.505v-.155a1.076,1.076,0,0,0-.117-.505,1.168,1.168,0,0,0-.7-.7,1.2,1.2,0,0,0-.505-.117,1.076,1.076,0,0,0-.505.117.988.988,0,0,0-.389.311.926.926,0,0,0-.233.428A1.235,1.235,0,0,0,373.994,288.9Z" transform="translate(-261.782 -283.962)" fill="#4d519d"/>
        <path id="Caminho_569" data-name="Caminho 569" d="M390.878,280.95a.562.562,0,0,1,.078-.272.329.329,0,0,1,.233-.078H392.2a.329.329,0,0,1,.233.078c.078.039.078.117.078.272v.855a.143.143,0,0,1-.039.117c0,.039-.039.078-.078.117s-.078.078-.117.078c-.039.039-.078.039-.155.039h-1.011c-.194,0-.311-.117-.311-.35v-.855Zm0,2.177a.553.553,0,0,1,.078-.233.235.235,0,0,1,.233-.117h.972a.143.143,0,0,1,.117.039c.039,0,.078.039.117.078s.078.078.078.117c.039.039.039.078.039.155v4.781a.329.329,0,0,1-.078.233.562.562,0,0,1-.272.078h-.972c-.194,0-.311-.117-.311-.35Z" transform="translate(-273.03 -280.6)" fill="#4d519d"/>
        <path id="Caminho_570" data-name="Caminho 570" d="M404.652,291.247a.294.294,0,0,1-.039.155c0,.039-.039.078-.078.117s-.078.039-.117.078-.078,0-.117,0h-.855c-.078,0-.117,0-.155-.039a.084.084,0,0,1-.078-.078.143.143,0,0,1-.039-.117c0-.039-.039-.078-.039-.117l-.039-.194a1.691,1.691,0,0,1-.272.233,1.364,1.364,0,0,1-.311.194,1.165,1.165,0,0,1-.389.155,1.592,1.592,0,0,1-.428.039,2.263,2.263,0,0,1-.739-.117,3.359,3.359,0,0,1-.661-.272,5.564,5.564,0,0,1-.583-.428,2.264,2.264,0,0,1-.428-.583,1.979,1.979,0,0,1-.272-.661,2.506,2.506,0,0,1-.117-.777,2.787,2.787,0,0,1,.233-1.127,2.966,2.966,0,0,1,.583-.894,2.231,2.231,0,0,1,.894-.583A2.609,2.609,0,0,1,401.7,286a1.969,1.969,0,0,1,.505.078,1.394,1.394,0,0,1,.428.155l.35.233a1.048,1.048,0,0,1,.272.311l.117-.389c.039-.078.039-.117.078-.155,0-.039.039-.078.078-.117s.039-.039.078-.039h.855c.039,0,.078.039.117.078s.078.078.078.117.039.078.039.155v4.82Zm-4.237-2.41a2.626,2.626,0,0,0,.078.544,4.247,4.247,0,0,0,.233.428.888.888,0,0,0,.389.272,1.075,1.075,0,0,0,.505.117,1.241,1.241,0,0,0,.544-.117,1.605,1.605,0,0,0,.428-.272,1.006,1.006,0,0,0,.272-.428,1.242,1.242,0,0,0,.117-.544,1.372,1.372,0,0,0-.117-.544,1.606,1.606,0,0,0-.272-.428,1.726,1.726,0,0,0-.428-.311,1.241,1.241,0,0,0-.544-.117,1.076,1.076,0,0,0-.505.117.987.987,0,0,0-.389.311,1.168,1.168,0,0,0-.233.428A1.323,1.323,0,0,0,400.416,288.837Z" transform="translate(-277.982 -283.901)" fill="#4d519d"/>
      </g>
    </g>
    <line id="Linha_1" data-name="Linha 1" x2="10" transform="translate(432.5 37.5)" fill="none" stroke="#4d519d" stroke-width="4"/>
  </g>
</svg>
