<svg xmlns="http://www.w3.org/2000/svg" width="161.329" height="34.737" viewBox="0 0 161.329 34.737">
  <g id="Logo-White" transform="translate(-8.6 -183.5)">
    <g id="Grupo_134" data-name="Grupo 134" transform="translate(8.6 183.5)">
      <path id="Caminho_539" data-name="Caminho 539" d="M14.575,209.334a.51.51,0,0,1,.334-.134.5.5,0,0,1,.367.134l1.769,1.769c.067.067.1.1.1.167.033.067.033.134.067.167,0,.067-.033.1-.033.167-.033.067-.033.134-.1.167l-3.639,3.705,3.639,3.639a.54.54,0,0,1,.134.334.694.694,0,0,1-.167.4l-1.836,1.769a.384.384,0,0,1-.634,0l-5.808-5.808a.531.531,0,0,1-.167-.334.463.463,0,0,1,.167-.334Z" transform="translate(-8.6 -203.625)" fill="#fff"/>
      <path id="Caminho_540" data-name="Caminho 540" d="M48.573,200.108a3.129,3.129,0,0,1,.567-.6,4.283,4.283,0,0,1,.868-.534,5.059,5.059,0,0,1,1.068-.4,5.005,5.005,0,0,1,1.235-.133,4.662,4.662,0,0,1,2.2.5,4.543,4.543,0,0,1,1.536,1.335,5.934,5.934,0,0,1,.9,1.969,9.3,9.3,0,0,1,.3,2.4v7.277a1.106,1.106,0,0,1-.167.634.734.734,0,0,1-.567.2h-2.57a1.075,1.075,0,0,1-.668-.167c-.134-.1-.167-.3-.167-.634v-7.344a2.05,2.05,0,0,0-.668-1.6,1.851,1.851,0,0,0-.734-.467,2.507,2.507,0,0,0-.868-.167,2.19,2.19,0,0,0-1.469.634,2.673,2.673,0,0,0-.5.7,2.561,2.561,0,0,0-.234.9v7.31a1.2,1.2,0,0,1-.067.367.679.679,0,0,1-.2.3,1.969,1.969,0,0,1-.267.134.829.829,0,0,1-.3.033H45.2a.893.893,0,0,1-.7-.234.962.962,0,0,1-.2-.634V195.335a.816.816,0,0,1,.2-.6.848.848,0,0,1,.7-.234h2.5a1.354,1.354,0,0,1,.567.167.486.486,0,0,1,.2.3,1.42,1.42,0,0,1,.067.367v4.773Z" transform="translate(-32.383 -193.832)" fill="#fff"/>
      <path id="Caminho_541" data-name="Caminho 541" d="M93.7,213.41a7.783,7.783,0,0,1,.267-1.969,7.339,7.339,0,0,1,.734-1.736,6.912,6.912,0,0,1,1.135-1.469,8.2,8.2,0,0,1,1.469-1.135,10.036,10.036,0,0,1,1.736-.734,7.582,7.582,0,0,1,1.969-.267,7.422,7.422,0,0,1,2.837.567,7.325,7.325,0,0,1,2.3,1.536,7.826,7.826,0,0,1,1.569,2.3,7.34,7.34,0,0,1,.567,2.871,7.783,7.783,0,0,1-.267,1.969,7.338,7.338,0,0,1-.734,1.736,6.913,6.913,0,0,1-1.135,1.469,8.2,8.2,0,0,1-1.469,1.135,7.975,7.975,0,0,1-1.736.734,7.328,7.328,0,0,1-1.936.267,7.782,7.782,0,0,1-1.969-.267,6.179,6.179,0,0,1-1.736-.734,6.914,6.914,0,0,1-1.469-1.135,8.2,8.2,0,0,1-1.135-1.469,7.977,7.977,0,0,1-.734-1.736A7.14,7.14,0,0,1,93.7,213.41Zm4.039,0a3.687,3.687,0,0,0,.234,1.369,3.534,3.534,0,0,0,.634,1.1,2.789,2.789,0,0,0,1,.734,3.4,3.4,0,0,0,1.335.267,3.36,3.36,0,0,0,1.3-.267,3.112,3.112,0,0,0,1-.734,3.534,3.534,0,0,0,.634-1.1,4.521,4.521,0,0,0,.2-1.369,4.682,4.682,0,0,0-.2-1.369,3.437,3.437,0,0,0-.634-1.135,2.892,2.892,0,0,0-2.3-1.035,3.4,3.4,0,0,0-1.335.267,2.87,2.87,0,0,0-1,.768,3.437,3.437,0,0,0-.634,1.135A3.936,3.936,0,0,0,97.739,213.41Z" transform="translate(-65.293 -201.56)" fill="#fff"/>
      <path id="Caminho_542" data-name="Caminho 542" d="M147.767,207.4a1.2,1.2,0,0,1,.067-.367,1.852,1.852,0,0,1,.2-.267.824.824,0,0,1,.3-.134.924.924,0,0,1,.3-.033H150.3a.577.577,0,0,1,.434.167,1.372,1.372,0,0,1,.267.434c.067.167.134.367.2.567l.2.6c.234-.234.434-.467.668-.734.234-.234.467-.434.7-.634a2.848,2.848,0,0,1,.835-.434,3.2,3.2,0,0,1,1.035-.167,5.053,5.053,0,0,1,1.068.1,4.614,4.614,0,0,1,.9.267,4.987,4.987,0,0,1,.835.434c.267.167.567.4.9.634.334.2.467.4.467.668a1.064,1.064,0,0,1-.2.567l-1,1.736a.839.839,0,0,1-.734.434,1.121,1.121,0,0,1-.5-.134,4.414,4.414,0,0,0-.968-.7,2.467,2.467,0,0,0-1.135-.234,1.855,1.855,0,0,0-.768.133,2.126,2.126,0,0,0-.6.334,3.914,3.914,0,0,0-.5.534,6.382,6.382,0,0,0-.467.7v8.045a.9.9,0,0,1-.2.634.939.939,0,0,1-.668.2h-2.5a.776.776,0,0,1-.868-.868V207.4Z" transform="translate(-101.267 -201.76)" fill="#fff"/>
      <path id="Caminho_543" data-name="Caminho 543" d="M202.755,219.686a1.419,1.419,0,0,1-.067.367.594.594,0,0,1-.234.267.646.646,0,0,1-.3.167.924.924,0,0,1-.3.033h-2.17a1.03,1.03,0,0,1-.367-.067.6.6,0,0,1-.234-.167.671.671,0,0,1-.134-.267,1.4,1.4,0,0,0-.134-.334l-.134-.5c-.2.2-.434.4-.668.6a4.253,4.253,0,0,1-.835.5,6.981,6.981,0,0,1-1,.367,3.986,3.986,0,0,1-1.1.134,7.526,7.526,0,0,1-1.936-.267,6.621,6.621,0,0,1-1.736-.734,6.913,6.913,0,0,1-1.469-1.135,8.2,8.2,0,0,1-1.135-1.469,7.975,7.975,0,0,1-.734-1.736,7.582,7.582,0,0,1-.267-1.969,7.463,7.463,0,0,1,.567-2.871,7.325,7.325,0,0,1,1.535-2.3,6.489,6.489,0,0,1,2.3-1.536,7.3,7.3,0,0,1,2.837-.567,4.866,4.866,0,0,1,1.268.167,3.992,3.992,0,0,1,1.1.434,6.168,6.168,0,0,1,.9.634,4.027,4.027,0,0,1,.7.8l.334-1c.067-.2.134-.334.167-.434a.727.727,0,0,1,.167-.267.288.288,0,0,1,.2-.1.93.93,0,0,1,.334-.033h1.669a1.15,1.15,0,0,1,.3.033.542.542,0,0,1,.3.167.9.9,0,0,1,.234.267,1.2,1.2,0,0,1,.067.367v12.451Zm-10.915-6.209a3.688,3.688,0,0,0,.234,1.369,3.534,3.534,0,0,0,.634,1.1,3.112,3.112,0,0,0,1,.734,3.36,3.36,0,0,0,1.3.267,3.572,3.572,0,0,0,1.369-.267,3.375,3.375,0,0,0,1.836-1.836,3.7,3.7,0,0,0,.267-1.369,3.84,3.84,0,0,0-.267-1.369,3.689,3.689,0,0,0-.734-1.135,3.267,3.267,0,0,0-1.1-.768,3.47,3.47,0,0,0-2.67,0,2.87,2.87,0,0,0-1,.768,3.436,3.436,0,0,0-.634,1.135A3.936,3.936,0,0,0,191.839,213.477Z" transform="translate(-127.982 -201.627)" fill="#fff"/>
      <path id="Caminho_544" data-name="Caminho 544" d="M248.477,200.267a.848.848,0,0,1,.267-.334.615.615,0,0,1,.434-.134h3.071a.889.889,0,0,1,.4.1.3.3,0,0,1,.167.267c0,.067,0,.134-.033.134l-7.01,15.489a.862.862,0,0,1-.234.367.5.5,0,0,1-.334.1h-3.338c-.3,0-.467-.1-.467-.3v-.033l.033-.167Z" transform="translate(-163.69 -197.363)" fill="#fff"/>
      <path id="Caminho_545" data-name="Caminho 545" d="M285.837,215.948a2.989,2.989,0,0,0,.634.5c.234.134.467.234.668.334a2.134,2.134,0,0,0,.567.167,2.794,2.794,0,0,0,.334.067,3.249,3.249,0,0,0,.534-.033,1.944,1.944,0,0,0,.634-.1,1.2,1.2,0,0,0,.5-.267.7.7,0,0,0,.2-.534.8.8,0,0,0-.134-.5.672.672,0,0,0-.367-.3,2.234,2.234,0,0,0-.567-.234c-.234-.067-.467-.134-.768-.234a8.648,8.648,0,0,1-2.2-.868,5.2,5.2,0,0,1-1.369-1.1,3.675,3.675,0,0,1-.7-1.335,5.445,5.445,0,0,1-.2-1.5,3.943,3.943,0,0,1,.367-1.669,3.888,3.888,0,0,1,1.035-1.3,5.044,5.044,0,0,1,1.636-.834,6.958,6.958,0,0,1,2.1-.3,7.934,7.934,0,0,1,1.3.1,4.758,4.758,0,0,1,1.168.367,5.006,5.006,0,0,1,1.068.634,6.72,6.72,0,0,1,1.035.935.646.646,0,0,1,.2.4.516.516,0,0,1-.234.4c-.3.234-.567.467-.835.7s-.534.5-.8.768c-.1.067-.167.134-.267.134a.368.368,0,0,1-.267,0c-.067-.033-.167-.067-.234-.1a1.134,1.134,0,0,1-.2-.2,1.88,1.88,0,0,0-.9-.567,3.16,3.16,0,0,0-.935-.134,1.67,1.67,0,0,0-.868.2.656.656,0,0,0-.3.567.6.6,0,0,0,.2.434,2.129,2.129,0,0,0,.467.267,4.031,4.031,0,0,0,.6.167c.2.033.4.1.568.134a13.133,13.133,0,0,1,1.836.7,5.614,5.614,0,0,1,1.435.935,3.6,3.6,0,0,1,.935,1.3,5.061,5.061,0,0,1,.334,1.869,4.174,4.174,0,0,1-.434,1.969,4.654,4.654,0,0,1-1.2,1.469,5.083,5.083,0,0,1-1.8.9,8.118,8.118,0,0,1-2.27.3,6.649,6.649,0,0,1-1.4-.134,4.955,4.955,0,0,1-1.369-.4,5.288,5.288,0,0,1-1.268-.7,5.234,5.234,0,0,1-1.068-1.035,1.044,1.044,0,0,1-.167-.334,1.185,1.185,0,0,1-.067-.334.974.974,0,0,1,.067-.3.449.449,0,0,1,.2-.234l1.435-1.435a.581.581,0,0,1,.467-.167A1.612,1.612,0,0,1,285.837,215.948Z" transform="translate(-191.403 -201.427)" fill="#fff"/>
      <path id="Caminho_546" data-name="Caminho 546" d="M326.4,213.41a7.781,7.781,0,0,1,.267-1.969,7.336,7.336,0,0,1,.734-1.736,6.911,6.911,0,0,1,1.135-1.469,8.2,8.2,0,0,1,1.469-1.135,10.036,10.036,0,0,1,1.736-.734,7.582,7.582,0,0,1,1.969-.267,7.422,7.422,0,0,1,2.837.567,7.325,7.325,0,0,1,2.3,1.536,7.827,7.827,0,0,1,1.569,2.3,7.34,7.34,0,0,1,.567,2.871,7.782,7.782,0,0,1-.267,1.969,7.338,7.338,0,0,1-.734,1.736,6.913,6.913,0,0,1-1.135,1.469,8.2,8.2,0,0,1-1.469,1.135,7.976,7.976,0,0,1-1.736.734,7.525,7.525,0,0,1-1.936.267,7.782,7.782,0,0,1-1.969-.267,6.179,6.179,0,0,1-1.736-.734,6.913,6.913,0,0,1-1.469-1.135,8.2,8.2,0,0,1-1.135-1.469,7.974,7.974,0,0,1-.734-1.736A7.14,7.14,0,0,1,326.4,213.41Zm4.039,0a3.687,3.687,0,0,0,.234,1.369,3.534,3.534,0,0,0,.634,1.1,2.789,2.789,0,0,0,1,.734,3.4,3.4,0,0,0,1.335.267,3.359,3.359,0,0,0,1.3-.267,3.112,3.112,0,0,0,1-.734,3.535,3.535,0,0,0,.634-1.1,4.523,4.523,0,0,0,.2-1.369,4.683,4.683,0,0,0-.2-1.369,3.438,3.438,0,0,0-.634-1.135,2.892,2.892,0,0,0-2.3-1.035,3.4,3.4,0,0,0-1.335.267,2.87,2.87,0,0,0-1,.768,3.437,3.437,0,0,0-.634,1.135A4.906,4.906,0,0,0,330.439,213.41Z" transform="translate(-220.316 -201.56)" fill="#fff"/>
      <path id="Caminho_547" data-name="Caminho 547" d="M380.77,197.507a4.223,4.223,0,0,1,.434-1.936,5.5,5.5,0,0,1,2.9-2.67,5.109,5.109,0,0,1,2-.4h.234a.648.648,0,0,1,.567.234.963.963,0,0,1,.2.634v2.1a1.059,1.059,0,0,1-.2.668.713.713,0,0,1-.567.267h-.234a1.691,1.691,0,0,0-.434.067,1.378,1.378,0,0,0-.367.234,1.307,1.307,0,0,0-.267.334.925.925,0,0,0-.1.434v1.268h1.736a.734.734,0,0,1,.567.2.9.9,0,0,1,.2.634v2.036a1.034,1.034,0,0,1-.2.7.805.805,0,0,1-.567.234h-1.736v7.945a.8.8,0,0,1-.267.634,1.077,1.077,0,0,1-.6.2h-2.4a.831.831,0,0,1-.634-.234.8.8,0,0,1-.234-.6v-7.945h-1.135a.831.831,0,0,1-.634-.234.848.848,0,0,1-.234-.7v-2.036a.743.743,0,0,1,.234-.634.962.962,0,0,1,.634-.2H380.8v-1.235Z" transform="translate(-255.225 -192.5)" fill="#fff"/>
      <path id="Caminho_548" data-name="Caminho 548" d="M411.936,196.9a.527.527,0,0,1,.234-.5,3.648,3.648,0,0,1,.634-.334l2.5-.868h.2c.267,0,.467.067.534.234a1.193,1.193,0,0,1,.134.634v3.038h1.536a.785.785,0,0,1,.567.2.914.914,0,0,1,.234.634v2.136a.816.816,0,0,1-.234.668.785.785,0,0,1-.567.2h-1.536v9.347a.785.785,0,0,1-.234.634,1.059,1.059,0,0,1-.668.2h-2.5a.776.776,0,0,1-.868-.868v-9.347h-1.135a.787.787,0,0,1-.868-.9v-2.136c0-.567.3-.835.868-.835H411.9Z" transform="translate(-275.943 -194.299)" fill="#fff"/>
      <path id="Caminho_549" data-name="Caminho 549" d="M446.2,209.634a1.913,1.913,0,0,1,.267-.234.6.6,0,0,1,.367-.1.408.408,0,0,1,.3.133c.1.067.167.167.267.234l5.575,5.541a.531.531,0,0,1,.167.334.623.623,0,0,1-.167.334l-5.808,5.808a.531.531,0,0,1-.334.167.4.4,0,0,1-.3-.167l-1.836-1.769a.577.577,0,0,1-.2-.4.478.478,0,0,1,.134-.334l3.639-3.639-3.639-3.638a.867.867,0,0,1-.134-.334.464.464,0,0,1,.167-.334Z" transform="translate(-298.993 -203.692)" fill="#fff"/>
      <path id="Caminho_550" data-name="Caminho 550" d="M480.033,238.5a.5.5,0,0,1,.134-.367.416.416,0,0,1,.367-.134h2.938a.428.428,0,0,1,.334.134.478.478,0,0,1,.167.367v2.67a.513.513,0,0,1-.534.534H480.5a.443.443,0,0,1-.5-.5v-2.7Z" transform="translate(-322.643 -222.812)" fill="#fff"/>
    </g>
    <g id="Grupo_135" data-name="Grupo 135" transform="translate(35.038 209.625)">
      <path id="Caminho_551" data-name="Caminho 551" d="M88.868,289.3a.885.885,0,0,0,.2.167c.067.033.167.067.234.1s.134.033.2.067a.146.146,0,0,1,.1.033h.167a.424.424,0,0,0,.2-.033c.067-.033.134-.033.167-.1a.255.255,0,0,0,.067-.167.25.25,0,0,0-.033-.167.46.46,0,0,0-.134-.1.358.358,0,0,0-.2-.067.786.786,0,0,1-.267-.067,2.115,2.115,0,0,1-.734-.3,1.753,1.753,0,0,1-.467-.367,1.385,1.385,0,0,1-.234-.434,2.576,2.576,0,0,1-.067-.5,1.1,1.1,0,0,1,.134-.567,1.377,1.377,0,0,1,.334-.434,1.342,1.342,0,0,1,.534-.267,2.22,2.22,0,0,1,.7-.1,1.763,1.763,0,0,1,.434.033,1.883,1.883,0,0,1,.4.134c.134.067.234.134.367.2a3.01,3.01,0,0,1,.334.3.167.167,0,0,1,0,.267,1.908,1.908,0,0,0-.267.234,2.016,2.016,0,0,0-.267.267.123.123,0,0,1-.1.033h-.1a.117.117,0,0,1-.067-.033l-.067-.067a.788.788,0,0,0-.3-.2.924.924,0,0,0-.3-.033.8.8,0,0,0-.3.067.2.2,0,0,0-.1.2.173.173,0,0,0,.067.133.73.73,0,0,0,.167.1c.067.033.134.033.2.067.067,0,.134.033.2.033a2.508,2.508,0,0,1,.6.234,2.844,2.844,0,0,1,.467.3,1.271,1.271,0,0,1,.3.434,1.682,1.682,0,0,1,.1.634,1.494,1.494,0,0,1-.134.668,1.479,1.479,0,0,1-.4.5,1.7,1.7,0,0,1-.6.3,2.676,2.676,0,0,1-.768.1,2.205,2.205,0,0,1-.467-.033,2.461,2.461,0,0,1-.467-.134,2.759,2.759,0,0,1-.434-.234,1.75,1.75,0,0,1-.367-.334c-.033-.033-.033-.067-.067-.1,0-.033-.033-.067-.033-.1a.123.123,0,0,1,.033-.1.072.072,0,0,1,.067-.067l.467-.467c.067-.033.1-.067.167-.067C88.768,289.2,88.8,289.238,88.868,289.3Z" transform="translate(-87.8 -284.197)" fill="#fff"/>
      <path id="Caminho_552" data-name="Caminho 552" d="M102.7,288.437a2.313,2.313,0,0,1,.1-.668,2.89,2.89,0,0,1,.234-.567,4.776,4.776,0,0,1,.367-.5,1.945,1.945,0,0,1,.5-.367,2.889,2.889,0,0,1,.567-.234,2.153,2.153,0,0,1,.668-.1,2.24,2.24,0,0,1,.935.2,2.55,2.55,0,0,1,.768.5,2.446,2.446,0,0,1,.534.768,2.283,2.283,0,0,1,.2.968,2.313,2.313,0,0,1-.1.668,2.888,2.888,0,0,1-.234.567,4.781,4.781,0,0,1-.367.5,1.945,1.945,0,0,1-.5.367,1.7,1.7,0,0,1-.567.234,2.1,2.1,0,0,1-.634.1,2.313,2.313,0,0,1-.668-.1,2.232,2.232,0,0,1-.567-.234,4.781,4.781,0,0,1-.5-.367,1.946,1.946,0,0,1-.367-.5,1.7,1.7,0,0,1-.234-.567A1.591,1.591,0,0,1,102.7,288.437Zm1.335,0a2.253,2.253,0,0,0,.067.467,3.634,3.634,0,0,0,.2.367.763.763,0,0,0,.334.234.99.99,0,0,0,.868,0,1.2,1.2,0,0,0,.334-.234.8.8,0,0,0,.2-.367,1.97,1.97,0,0,0,.067-.467,2.254,2.254,0,0,0-.067-.467,1.3,1.3,0,0,0-.2-.367.909.909,0,0,0-.334-.267.991.991,0,0,0-.868,0,.848.848,0,0,0-.334.267.8.8,0,0,0-.2.367A2.253,2.253,0,0,0,104.035,288.437Z" transform="translate(-97.726 -284.197)" fill="#fff"/>
      <path id="Caminho_553" data-name="Caminho 553" d="M120.7,282.367a.474.474,0,0,1,.067-.2c.033-.067.1-.067.2-.067h.9c.033,0,.067,0,.067.033a.072.072,0,0,1,.067.067c.033.033.033.067.067.1,0,.033.033.067.033.1v5.508a.282.282,0,0,1-.067.2.474.474,0,0,1-.2.067h-.868a.282.282,0,0,1-.2-.067.358.358,0,0,1-.067-.2Z" transform="translate(-109.718 -281.599)" fill="#fff"/>
      <path id="Caminho_554" data-name="Caminho 554" d="M133.406,290.773c-.033.033-.067.033-.1.067h-.668a.122.122,0,0,1-.1-.033.072.072,0,0,1-.067-.067c-.033-.033-.033-.067-.067-.1,0-.033-.033-.067-.033-.1l-.067-.367a.626.626,0,0,1-.2.234,1.2,1.2,0,0,1-.334.234,1.679,1.679,0,0,1-.434.167,2.594,2.594,0,0,1-.534.067,1.584,1.584,0,0,1-1.268-.6,2.088,2.088,0,0,1-.334-.668,3.1,3.1,0,0,1-.1-.8v-2.437a.236.236,0,0,1,.267-.267h.868a.483.483,0,0,1,.234.067.282.282,0,0,1,.067.2v2.4a.975.975,0,0,0,.067.3,1.173,1.173,0,0,0,.167.267.6.6,0,0,0,.234.167.974.974,0,0,0,.3.067.924.924,0,0,0,.3-.033,1.184,1.184,0,0,0,.3-.134.779.779,0,0,0,.234-.234.673.673,0,0,0,.1-.367v-2.4a.2.2,0,0,1,.033-.134c0-.033.033-.067.067-.1a.123.123,0,0,1,.1-.033h.935a.482.482,0,0,1,.234.067.474.474,0,0,1,.067.2v4.139a.2.2,0,0,1-.033.133.762.762,0,0,0-.234.1Z" transform="translate(-115.314 -284.264)" fill="#fff"/>
      <path id="Caminho_555" data-name="Caminho 555" d="M149.171,289.4a.123.123,0,0,1,.1-.033h.067a.123.123,0,0,1,.1.033l.1.1.4.634c0,.033.033.033.033.067s.033.033.033.067a.174.174,0,0,1-.067.134l-.1.1a2.5,2.5,0,0,1-.668.334,2.171,2.171,0,0,1-1.4.033,2.885,2.885,0,0,1-.567-.234,4.776,4.776,0,0,1-.5-.367,1.945,1.945,0,0,1-.367-.5,1.7,1.7,0,0,1-.234-.568,2.152,2.152,0,0,1-.1-.668,2.313,2.313,0,0,1,.1-.668,2.887,2.887,0,0,1,.234-.567,4.778,4.778,0,0,1,.367-.5,1.945,1.945,0,0,1,.5-.367,2.889,2.889,0,0,1,.567-.234,2.1,2.1,0,0,1,.634-.1,2.6,2.6,0,0,1,.734.1,1.663,1.663,0,0,1,.634.334h0a.462.462,0,0,1,.134.1.25.25,0,0,1,.033.167.2.2,0,0,1-.033.133l-.334.568a.275.275,0,0,1-.267.167h-.067c-.033,0-.067-.033-.1-.067a1.558,1.558,0,0,0-.334-.167,1.434,1.434,0,0,0-.4-.067.924.924,0,0,0-.434.1.847.847,0,0,0-.334.267.8.8,0,0,0-.2.367,1.06,1.06,0,0,0-.067.467,2.253,2.253,0,0,0,.067.467,3.635,3.635,0,0,0,.2.367.763.763,0,0,0,.334.234.924.924,0,0,0,.434.1,1.673,1.673,0,0,0,.4-.067A1.984,1.984,0,0,1,149.171,289.4ZM149,290.84c-.067.033-.067.067-.067.134,0,.033.033.067.067.1s.1.067.134.1c.067.033.1.067.167.1a.728.728,0,0,1,.167.133.586.586,0,0,1,.134.167.482.482,0,0,1,.067.234.634.634,0,0,1-.1.3,1.08,1.08,0,0,1-.267.3,1.2,1.2,0,0,1-.4.267,1.574,1.574,0,0,1-.5.2h-.033c-.033,0-.067-.033-.134-.067a.306.306,0,0,1-.134-.2l-.1-.2a.252.252,0,0,1-.033-.133c0-.033,0-.067.033-.067.434-.1.634-.234.634-.4a.173.173,0,0,0-.067-.133c-.033-.033-.1-.067-.134-.134-.067-.033-.1-.067-.167-.1a.333.333,0,0,1-.167-.134c-.067-.033-.1-.1-.134-.133a.475.475,0,0,1-.067-.2v-.067a.481.481,0,0,1,.067-.1H149Z" transform="translate(-126.572 -284.264)" fill="#fff"/>
      <path id="Caminho_556" data-name="Caminho 556" d="M161.3,285.372a2.313,2.313,0,0,1,.1-.668,2.887,2.887,0,0,1,.234-.567,4.778,4.778,0,0,1,.367-.5,1.944,1.944,0,0,1,.5-.367,4.08,4.08,0,0,1,.567-.234,2.152,2.152,0,0,1,.668-.1,2.24,2.24,0,0,1,.935.2,3.048,3.048,0,0,1,.768.5,2.445,2.445,0,0,1,.534.768,2.283,2.283,0,0,1,.2.968,2.313,2.313,0,0,1-.1.668,2.887,2.887,0,0,1-.234.567,4.776,4.776,0,0,1-.367.5,1.945,1.945,0,0,1-.5.367,1.7,1.7,0,0,1-.567.234,2.1,2.1,0,0,1-.634.1,2.314,2.314,0,0,1-.668-.1,2.889,2.889,0,0,1-.567-.234,4.776,4.776,0,0,1-.5-.367,1.945,1.945,0,0,1-.367-.5,2.043,2.043,0,0,1-.234-.567A1.591,1.591,0,0,1,161.3,285.372Zm1.135-3.538a.4.4,0,0,1,.167-.167.7.7,0,0,1,.2-.134c.067-.033.167-.067.234-.1a.568.568,0,0,1,.234-.033h.134c.067,0,.1.033.167.067l.2.1a3.076,3.076,0,0,1,.267.167.1.1,0,0,0,.067.033h.1c.067,0,.1,0,.134-.033s.067-.033.1-.067l.134-.134c.033-.033.033-.033.067-.033s.033,0,.067.033l.367.334c.033.033.033.067.067.067,0,.033,0,.033-.033.067l-.1.133a1.748,1.748,0,0,1-.367.334,1.067,1.067,0,0,1-.467.1c-.1,0-.2-.033-.3-.033a1.186,1.186,0,0,1-.3-.133l-.2-.134a.1.1,0,0,0-.067-.033h-.1a.2.2,0,0,0-.134.033c-.033.033-.067.033-.1.067l-.1.134c0,.033-.033.033-.067.033a.123.123,0,0,1-.1-.033l-.367-.334-.033-.033v-.033h0v-.033a.117.117,0,0,0,.033-.067A.461.461,0,0,1,162.435,281.834Zm.234,3.538a2.254,2.254,0,0,0,.067.467,3.637,3.637,0,0,0,.2.367.763.763,0,0,0,.334.234.99.99,0,0,0,.868,0,1.2,1.2,0,0,0,.334-.234.8.8,0,0,0,.2-.367,1.97,1.97,0,0,0,.067-.467,2.256,2.256,0,0,0-.067-.467.8.8,0,0,0-.2-.367,1.307,1.307,0,0,0-.334-.267.99.99,0,0,0-.868,0,.848.848,0,0,0-.334.267.8.8,0,0,0-.2.367A2.255,2.255,0,0,0,162.669,285.372Z" transform="translate(-136.765 -281.133)" fill="#fff"/>
      <path id="Caminho_557" data-name="Caminho 557" d="M183.306,290.206a2.122,2.122,0,0,1-.734.467,2.508,2.508,0,0,1-.868.167,2.4,2.4,0,0,1-.968-.2,3.25,3.25,0,0,1-.8-.5,2.446,2.446,0,0,1-.534-.768,2.283,2.283,0,0,1-.2-.968,4.094,4.094,0,0,1,.067-.634,2.889,2.889,0,0,1,.234-.567,2.389,2.389,0,0,1,.367-.5,2.52,2.52,0,0,1,.467-.367,1.7,1.7,0,0,1,.567-.234,1.943,1.943,0,0,1,.634-.1,3.678,3.678,0,0,1,.6.067,2.583,2.583,0,0,1,.534.234,1.623,1.623,0,0,1,.467.367,2.524,2.524,0,0,1,.367.467,2.583,2.583,0,0,1,.234.534,1.654,1.654,0,0,1,.067.567v.3a.474.474,0,0,1-.067.2.729.729,0,0,1-.167.1,1.037,1.037,0,0,1-.367.033h-2.67a1.127,1.127,0,0,0,.134.4,1.016,1.016,0,0,0,.267.267,1.185,1.185,0,0,0,.3.133.923.923,0,0,0,.3.033.734.734,0,0,0,.267-.033c.1-.033.2-.033.267-.067a1.624,1.624,0,0,0,.234-.1.729.729,0,0,0,.167-.133c.033-.033.067-.067.1-.067s.067-.033.1-.033a.123.123,0,0,1,.1.033l.1.1.4.434c.033.033.033.067.067.1v.067a.2.2,0,0,1-.033.134C183.373,290.173,183.339,290.206,183.306,290.206Zm-1.8-3.071a.629.629,0,0,0-.267.067,1.171,1.171,0,0,0-.267.167,1.454,1.454,0,0,0-.2.234c-.067.067-.1.167-.167.234h1.9a1.867,1.867,0,0,0-.167-.267c-.067-.067-.134-.167-.2-.2a1.723,1.723,0,0,0-.634-.234Z" transform="translate(-148.69 -284.197)" fill="#fff"/>
      <path id="Caminho_558" data-name="Caminho 558" d="M196.668,289.3a.884.884,0,0,0,.2.167c.067.033.167.067.234.1s.134.033.2.067a.146.146,0,0,1,.1.033h.167a.424.424,0,0,0,.2-.033c.067-.033.134-.033.167-.1a.255.255,0,0,0,.067-.167.25.25,0,0,0-.033-.167.46.46,0,0,0-.134-.1.358.358,0,0,0-.2-.067.786.786,0,0,1-.267-.067,2.115,2.115,0,0,1-.734-.3,1.753,1.753,0,0,1-.467-.367,1.385,1.385,0,0,1-.234-.434,2.577,2.577,0,0,1-.067-.5A1.1,1.1,0,0,1,196,286.8a1.376,1.376,0,0,1,.334-.434,1.607,1.607,0,0,1,.534-.267,2.22,2.22,0,0,1,.7-.1,1.763,1.763,0,0,1,.434.033,1.883,1.883,0,0,1,.4.134c.134.067.234.134.367.2a3.009,3.009,0,0,1,.334.3.167.167,0,0,1,0,.267,1.909,1.909,0,0,0-.267.234,2.015,2.015,0,0,0-.267.267.123.123,0,0,1-.1.033h-.1a.117.117,0,0,1-.067-.033l-.067-.067a.788.788,0,0,0-.3-.2.924.924,0,0,0-.3-.033.666.666,0,0,0-.3.067.2.2,0,0,0-.1.2.173.173,0,0,0,.067.133.73.73,0,0,0,.167.1c.067.033.134.033.2.067.067,0,.134.033.2.033a2.508,2.508,0,0,1,.6.234,2.844,2.844,0,0,1,.467.3,1.271,1.271,0,0,1,.3.434,1.683,1.683,0,0,1,.1.634,1.494,1.494,0,0,1-.134.668,1.478,1.478,0,0,1-.4.5,1.7,1.7,0,0,1-.6.3,2.676,2.676,0,0,1-.768.1,2.206,2.206,0,0,1-.467-.033,2.46,2.46,0,0,1-.467-.134,2.758,2.758,0,0,1-.434-.234,1.751,1.751,0,0,1-.367-.334c-.033-.033-.033-.067-.067-.1,0-.033-.033-.067-.033-.1a.123.123,0,0,1,.033-.1.072.072,0,0,1,.067-.067l.467-.467c.067-.033.1-.067.167-.067C196.535,289.2,196.6,289.238,196.668,289.3Z" transform="translate(-159.616 -284.197)" fill="#fff"/>
      <path id="Caminho_559" data-name="Caminho 559" d="M222.706,290.206a2.121,2.121,0,0,1-.734.467,2.508,2.508,0,0,1-.868.167,2.4,2.4,0,0,1-.968-.2,3.251,3.251,0,0,1-.8-.5,2.445,2.445,0,0,1-.534-.768,2.283,2.283,0,0,1-.2-.968,4.093,4.093,0,0,1,.067-.634,2.889,2.889,0,0,1,.234-.567,2.389,2.389,0,0,1,.367-.5,2.519,2.519,0,0,1,.467-.367,1.7,1.7,0,0,1,.567-.234,1.943,1.943,0,0,1,.634-.1,3.678,3.678,0,0,1,.6.067,2.582,2.582,0,0,1,.534.234,1.623,1.623,0,0,1,.467.367,2.524,2.524,0,0,1,.367.467,2.582,2.582,0,0,1,.234.534,1.654,1.654,0,0,1,.067.567v.3a.474.474,0,0,1-.067.2.729.729,0,0,1-.167.1,1.037,1.037,0,0,1-.367.033h-2.67a1.127,1.127,0,0,0,.133.4,1.016,1.016,0,0,0,.267.267,1.184,1.184,0,0,0,.3.133.923.923,0,0,0,.3.033.734.734,0,0,0,.267-.033c.1-.033.2-.033.267-.067a1.622,1.622,0,0,0,.234-.1.728.728,0,0,0,.167-.133c.033-.033.067-.067.1-.067s.067-.033.1-.033a.123.123,0,0,1,.1.033l.1.1.4.434c.033.033.033.067.067.1v.067a.2.2,0,0,1-.033.134C222.773,290.173,222.739,290.206,222.706,290.206Zm-1.769-3.071a.629.629,0,0,0-.267.067,1.172,1.172,0,0,0-.267.167,1.454,1.454,0,0,0-.2.234c-.067.067-.1.167-.167.234h1.9a1.864,1.864,0,0,0-.167-.267c-.067-.067-.133-.167-.2-.2a1.975,1.975,0,0,0-.267-.134A.761.761,0,0,0,220.937,287.135Z" transform="translate(-174.938 -284.197)" fill="#fff"/>
      <path id="Caminho_560" data-name="Caminho 560" d="M236.2,286.233c.033-.033.067-.033.1-.067h.668a.123.123,0,0,1,.1.033.072.072,0,0,1,.067.067c.033.033.033.067.067.1,0,.033.033.067.033.1l.067.334a1.014,1.014,0,0,1,.167-.234,1.908,1.908,0,0,1,.267-.234,1.234,1.234,0,0,1,.367-.167,2.271,2.271,0,0,1,.5-.067,1.763,1.763,0,0,1,.434.033,1,1,0,0,1,.334.134,1.535,1.535,0,0,1,.534.534.625.625,0,0,1,.2-.234,2.891,2.891,0,0,1,.334-.234,1.677,1.677,0,0,1,.434-.167,2.576,2.576,0,0,1,.5-.067,1.584,1.584,0,0,1,1.268.6,2.038,2.038,0,0,1,.3.668,2.922,2.922,0,0,1,.1.8v2.437a.236.236,0,0,1-.267.267h-.868a.482.482,0,0,1-.234-.067.282.282,0,0,1-.067-.2V288.17a.925.925,0,0,0-.033-.3.538.538,0,0,0-.134-.234.884.884,0,0,0-.2-.167.567.567,0,0,0-.534,0,.6.6,0,0,0-.234.167,1.412,1.412,0,0,0-.167.234.974.974,0,0,0-.067.3v2.437a.236.236,0,0,1-.267.267h-.835a.482.482,0,0,1-.234-.067.282.282,0,0,1-.067-.2V288.17a.924.924,0,0,0-.033-.3.538.538,0,0,0-.134-.234.885.885,0,0,0-.2-.167.629.629,0,0,0-.267-.067.786.786,0,0,0-.267.067.873.873,0,0,0-.4.4.974.974,0,0,0-.067.3v2.437a.2.2,0,0,1-.033.134c0,.033-.033.067-.067.1a.123.123,0,0,1-.1.033H236.4a.483.483,0,0,1-.234-.067.475.475,0,0,1-.067-.2v-4.139a.2.2,0,0,1,.033-.134.414.414,0,0,1,.067-.1Z" transform="translate(-186.596 -284.264)" fill="#fff"/>
      <path id="Caminho_561" data-name="Caminho 561" d="M268.8,282.967a.255.255,0,0,1,.067-.167l.2-.1.835-.3h.067c.1,0,.167.033.167.067a.424.424,0,0,1,.033.2v1h.5a.475.475,0,0,1,.2.067.358.358,0,0,1,.067.2v.7a.482.482,0,0,1-.067.234.282.282,0,0,1-.2.067h-.5v3.1a.282.282,0,0,1-.067.2.482.482,0,0,1-.234.067h-.8a.266.266,0,0,1-.3-.3v-3.1H268.4a.266.266,0,0,1-.3-.3v-.7c0-.2.1-.267.3-.267h.367Z" transform="translate(-207.915 -281.799)" fill="#fff"/>
      <path id="Caminho_562" data-name="Caminho 562" d="M283.306,290.206a2.122,2.122,0,0,1-.734.467,2.508,2.508,0,0,1-.868.167,2.4,2.4,0,0,1-.968-.2,3.251,3.251,0,0,1-.8-.5,2.447,2.447,0,0,1-.534-.768,2.283,2.283,0,0,1-.2-.968,4.09,4.09,0,0,1,.067-.634,2.887,2.887,0,0,1,.234-.567,2.389,2.389,0,0,1,.367-.5,2.519,2.519,0,0,1,.467-.367,1.7,1.7,0,0,1,.568-.234,1.943,1.943,0,0,1,.634-.1,3.678,3.678,0,0,1,.6.067,2.583,2.583,0,0,1,.534.234,1.624,1.624,0,0,1,.467.367,2.525,2.525,0,0,1,.367.467,2.585,2.585,0,0,1,.234.534,1.652,1.652,0,0,1,.067.567v.3a.474.474,0,0,1-.067.2.726.726,0,0,1-.167.1,1.037,1.037,0,0,1-.367.033h-2.67a1.127,1.127,0,0,0,.134.4,1.017,1.017,0,0,0,.267.267,1.185,1.185,0,0,0,.3.133.923.923,0,0,0,.3.033.735.735,0,0,0,.267-.033c.1-.033.2-.033.267-.067a1.627,1.627,0,0,0,.234-.1.729.729,0,0,0,.167-.133c.033-.033.067-.067.1-.067s.067-.033.1-.033a.123.123,0,0,1,.1.033l.1.1.4.434c.033.033.033.067.067.1v.067a.2.2,0,0,1-.033.134C283.406,290.173,283.373,290.206,283.306,290.206Zm-1.769-3.071a.629.629,0,0,0-.267.067,1.172,1.172,0,0,0-.267.167,1.456,1.456,0,0,0-.2.234c-.067.067-.1.167-.167.234h1.9a1.867,1.867,0,0,0-.167-.267c-.067-.067-.134-.167-.2-.2a1.975,1.975,0,0,0-.267-.134A.673.673,0,0,0,281.537,287.135Z" transform="translate(-215.309 -284.197)" fill="#fff"/>
      <path id="Caminho_563" data-name="Caminho 563" d="M299.471,289.4a.123.123,0,0,1,.1-.033h.067a.123.123,0,0,1,.1.033l.1.1.4.634c0,.033.033.033.033.067s.033.033.033.067a.173.173,0,0,1-.067.134l-.1.1a2.5,2.5,0,0,1-.668.334,2.171,2.171,0,0,1-1.4.033,2.887,2.887,0,0,1-.567-.234,4.772,4.772,0,0,1-.5-.367,1.945,1.945,0,0,1-.367-.5,1.7,1.7,0,0,1-.234-.568,2.152,2.152,0,0,1-.1-.668,2.312,2.312,0,0,1,.1-.668,2.889,2.889,0,0,1,.234-.567,4.772,4.772,0,0,1,.367-.5,1.944,1.944,0,0,1,.5-.367,2.891,2.891,0,0,1,.567-.234,2.1,2.1,0,0,1,.634-.1,2.6,2.6,0,0,1,.734.1,1.663,1.663,0,0,1,.634.334h0a.462.462,0,0,1,.134.1.25.25,0,0,1,.033.167.2.2,0,0,1-.033.133l-.334.568a.275.275,0,0,1-.267.167h-.067c-.033,0-.067-.033-.1-.067a1.558,1.558,0,0,0-.334-.167,1.434,1.434,0,0,0-.4-.067.924.924,0,0,0-.434.1.847.847,0,0,0-.334.267.8.8,0,0,0-.2.367,1.062,1.062,0,0,0-.067.467,2.257,2.257,0,0,0,.067.467,3.644,3.644,0,0,0,.2.367.763.763,0,0,0,.334.234.924.924,0,0,0,.434.1,1.674,1.674,0,0,0,.4-.067A1.278,1.278,0,0,1,299.471,289.4Z" transform="translate(-226.701 -284.264)" fill="#fff"/>
      <path id="Caminho_564" data-name="Caminho 564" d="M311.767,286.234c.033-.033.067-.033.1-.067h.668a.123.123,0,0,1,.1.033.072.072,0,0,1,.067.067c.033.033.033.067.067.1,0,.033.033.067.033.1l.067.334a1.013,1.013,0,0,1,.167-.234,2.349,2.349,0,0,1,.3-.234,1.676,1.676,0,0,1,.434-.167,2.592,2.592,0,0,1,.534-.067,1.981,1.981,0,0,1,.768.167,1.836,1.836,0,0,1,.568.434,2.151,2.151,0,0,1,.367.668,2.87,2.87,0,0,1,.134.8v2.437a.236.236,0,0,1-.267.267H315a.482.482,0,0,1-.234-.067.282.282,0,0,1-.067-.2v-2.4a.974.974,0,0,0-.067-.3.7.7,0,0,0-.2-.267.728.728,0,0,0-.267-.167.975.975,0,0,0-.3-.067.785.785,0,0,0-.267.067,1.174,1.174,0,0,0-.267.167c-.067.067-.134.167-.2.234a1.062,1.062,0,0,0-.1.3v2.4a.2.2,0,0,1-.033.133c0,.033-.033.067-.067.1a.123.123,0,0,1-.1.033H311.9a.483.483,0,0,1-.234-.067.474.474,0,0,1-.067-.2v-4.139a.2.2,0,0,1,.033-.134c.067-.033.1-.067.134-.067Z" transform="translate(-236.894 -284.264)" fill="#fff"/>
      <path id="Caminho_565" data-name="Caminho 565" d="M328.7,288.437a2.313,2.313,0,0,1,.1-.668,2.887,2.887,0,0,1,.234-.567,4.772,4.772,0,0,1,.367-.5,1.943,1.943,0,0,1,.5-.367,4.073,4.073,0,0,1,.567-.234,2.153,2.153,0,0,1,.668-.1,2.24,2.24,0,0,1,.935.2,2.549,2.549,0,0,1,.768.5,2.446,2.446,0,0,1,.534.768,2.283,2.283,0,0,1,.2.968,2.312,2.312,0,0,1-.1.668,2.888,2.888,0,0,1-.234.567,4.783,4.783,0,0,1-.367.5,1.946,1.946,0,0,1-.5.367,1.7,1.7,0,0,1-.567.234,2.1,2.1,0,0,1-.634.1,2.313,2.313,0,0,1-.668-.1,2.886,2.886,0,0,1-.567-.234,4.783,4.783,0,0,1-.5-.367,1.944,1.944,0,0,1-.367-.5,1.7,1.7,0,0,1-.234-.567A1.59,1.59,0,0,1,328.7,288.437Zm1.335,0a2.251,2.251,0,0,0,.067.467,3.643,3.643,0,0,0,.2.367.763.763,0,0,0,.334.234.99.99,0,0,0,.868,0,1.2,1.2,0,0,0,.334-.234.8.8,0,0,0,.2-.367,1.971,1.971,0,0,0,.067-.467,2.255,2.255,0,0,0-.067-.467,1.3,1.3,0,0,0-.2-.367,1.308,1.308,0,0,0-.334-.267.991.991,0,0,0-.868,0,.848.848,0,0,0-.334.267.8.8,0,0,0-.2.367A2.251,2.251,0,0,0,330.035,288.437Z" transform="translate(-248.286 -284.197)" fill="#fff"/>
      <path id="Caminho_566" data-name="Caminho 566" d="M346.8,282.367a.474.474,0,0,1,.067-.2c.033-.067.1-.067.2-.067h.9c.033,0,.067,0,.067.033a.072.072,0,0,1,.067.067c0,.033.033.067.067.1,0,.033.033.067.033.1v5.508a.282.282,0,0,1-.067.2.474.474,0,0,1-.2.067h-.868a.282.282,0,0,1-.2-.067.358.358,0,0,1-.067-.2v-5.541Z" transform="translate(-260.344 -281.599)" fill="#fff"/>
      <path id="Caminho_567" data-name="Caminho 567" d="M354.5,288.437a2.313,2.313,0,0,1,.1-.668,2.889,2.889,0,0,1,.234-.567,4.775,4.775,0,0,1,.367-.5,1.945,1.945,0,0,1,.5-.367,4.072,4.072,0,0,1,.568-.234,2.153,2.153,0,0,1,.668-.1,2.24,2.24,0,0,1,.935.2,2.55,2.55,0,0,1,.768.5,2.446,2.446,0,0,1,.534.768,2.283,2.283,0,0,1,.2.968,2.314,2.314,0,0,1-.1.668,2.888,2.888,0,0,1-.234.567,4.783,4.783,0,0,1-.367.5,1.945,1.945,0,0,1-.5.367,1.7,1.7,0,0,1-.567.234,2.1,2.1,0,0,1-.634.1,2.312,2.312,0,0,1-.668-.1,2.884,2.884,0,0,1-.567-.234,4.773,4.773,0,0,1-.5-.367,1.946,1.946,0,0,1-.367-.5,1.7,1.7,0,0,1-.234-.567A1.591,1.591,0,0,1,354.5,288.437Zm1.369,0a2.255,2.255,0,0,0,.067.467,3.643,3.643,0,0,0,.2.367.763.763,0,0,0,.334.234.99.99,0,0,0,.868,0,1.2,1.2,0,0,0,.334-.234.8.8,0,0,0,.2-.367,1.97,1.97,0,0,0,.067-.467,2.253,2.253,0,0,0-.067-.467,1.294,1.294,0,0,0-.2-.367,1.309,1.309,0,0,0-.334-.267.991.991,0,0,0-.868,0,.848.848,0,0,0-.334.267.8.8,0,0,0-.2.367A1.136,1.136,0,0,0,355.869,288.437Z" transform="translate(-265.474 -284.197)" fill="#fff"/>
      <path id="Caminho_568" data-name="Caminho 568" d="M375.872,290.673a.25.25,0,0,0,.033-.167v-.334a1.543,1.543,0,0,1-.234.234c-.067.067-.167.134-.234.2a1.184,1.184,0,0,1-.3.134,1.244,1.244,0,0,1-.4.067,2.9,2.9,0,0,1-.935-.167,2.121,2.121,0,0,1-.734-.467,2.379,2.379,0,0,1-.5-.734,2.7,2.7,0,0,1,0-1.869,1.916,1.916,0,0,1,.5-.768,1.807,1.807,0,0,1,.734-.5,2.133,2.133,0,0,1,.935-.2,1.689,1.689,0,0,1,.434.067,1,1,0,0,1,.334.133l.3.2a.9.9,0,0,1,.234.267l.1-.334c0-.033.033-.067.033-.1s.033-.067.033-.1l.067-.067c.033,0,.067-.033.133-.033h.568a.122.122,0,0,1,.1.033c.033,0,.067.033.1.067s.067.067.067.1c.033.033.033.067.033.134v3.772a2.489,2.489,0,0,1-.2,1.035,2.549,2.549,0,0,1-.5.768,2.262,2.262,0,0,1-.768.467,3.1,3.1,0,0,1-.968.167,2.053,2.053,0,0,1-.434-.033c-.167-.033-.3-.067-.467-.1a1.677,1.677,0,0,1-.434-.167,1.484,1.484,0,0,1-.367-.267l-.1-.1a.2.2,0,0,1-.033-.134.474.474,0,0,1,.067-.2l.367-.5c.033-.033.067-.067.1-.067a.123.123,0,0,1,.1-.033.288.288,0,0,1,.2.1.7.7,0,0,0,.2.134c.067.033.167.067.234.1a.736.736,0,0,0,.267.033h.234a1.138,1.138,0,0,0,.334-.033,1,1,0,0,0,.334-.134,1.85,1.85,0,0,0,.267-.2C375.771,290.873,375.838,290.807,375.872,290.673Zm-2.1-2.17a1.969,1.969,0,0,0,.067.467,3.634,3.634,0,0,0,.2.367.763.763,0,0,0,.334.234.99.99,0,0,0,.868,0,1.378,1.378,0,0,0,.367-.234.763.763,0,0,0,.234-.334.924.924,0,0,0,.1-.434v-.133a.924.924,0,0,0-.1-.434,1,1,0,0,0-.6-.6,1.028,1.028,0,0,0-.434-.1.925.925,0,0,0-.434.1.848.848,0,0,0-.334.267.8.8,0,0,0-.2.367A1.061,1.061,0,0,0,373.769,288.5Z" transform="translate(-277.398 -284.264)" fill="#fff"/>
      <path id="Caminho_569" data-name="Caminho 569" d="M390.867,280.9a.483.483,0,0,1,.067-.234.282.282,0,0,1,.2-.067H392a.282.282,0,0,1,.2.067c.067.033.067.1.067.234v.734a.122.122,0,0,1-.033.1c0,.033-.033.067-.067.1s-.067.067-.1.067c-.033.033-.067.033-.134.033h-.868c-.167,0-.267-.1-.267-.3V280.9Zm0,1.869a.475.475,0,0,1,.067-.2.2.2,0,0,1,.2-.1h.835a.123.123,0,0,1,.1.033c.033,0,.067.033.1.067s.067.067.067.1c.033.033.033.067.033.134v4.106a.282.282,0,0,1-.067.2.482.482,0,0,1-.234.067h-.835c-.167,0-.267-.1-.267-.3Z" transform="translate(-289.656 -280.6)" fill="#fff"/>
      <path id="Caminho_570" data-name="Caminho 570" d="M403.84,290.506a.252.252,0,0,1-.033.134c0,.033-.033.067-.067.1s-.067.033-.1.067-.067,0-.1,0h-.734c-.067,0-.1,0-.134-.033a.072.072,0,0,1-.067-.067.123.123,0,0,1-.033-.1c0-.033-.033-.067-.033-.1l-.033-.167a1.454,1.454,0,0,1-.234.2,1.172,1.172,0,0,1-.267.167,1,1,0,0,1-.334.134,1.367,1.367,0,0,1-.367.033,1.943,1.943,0,0,1-.634-.1,2.885,2.885,0,0,1-.568-.234,4.775,4.775,0,0,1-.5-.367,1.946,1.946,0,0,1-.367-.5A1.7,1.7,0,0,1,399,289.1a2.152,2.152,0,0,1-.1-.668,2.394,2.394,0,0,1,.2-.968,2.547,2.547,0,0,1,.5-.768,1.916,1.916,0,0,1,.768-.5,2.24,2.24,0,0,1,.935-.2,1.691,1.691,0,0,1,.434.067,1.2,1.2,0,0,1,.367.134l.3.2a.9.9,0,0,1,.234.267l.1-.334c.033-.067.033-.1.067-.134,0-.033.033-.067.067-.1s.033-.033.067-.033h.734c.033,0,.067.033.1.067s.067.067.067.1.033.067.033.134v4.139Zm-3.639-2.07a2.255,2.255,0,0,0,.067.467,3.649,3.649,0,0,0,.2.367.763.763,0,0,0,.334.234.923.923,0,0,0,.434.1,1.066,1.066,0,0,0,.467-.1,1.379,1.379,0,0,0,.367-.234.864.864,0,0,0,.234-.367,1.066,1.066,0,0,0,.1-.467,1.178,1.178,0,0,0-.1-.467,1.379,1.379,0,0,0-.234-.367,1.484,1.484,0,0,0-.367-.267,1.066,1.066,0,0,0-.467-.1.924.924,0,0,0-.434.1.848.848,0,0,0-.334.267,1,1,0,0,0-.2.367A1.136,1.136,0,0,0,400.2,288.437Z" transform="translate(-295.053 -284.197)" fill="#fff"/>
    </g>
  </g>
</svg>
