<svg id="about-us-art" xmlns="http://www.w3.org/2000/svg" xmlns:xlink="http://www.w3.org/1999/xlink" width="496.935" height="495.342" viewBox="0 0 496.935 495.342">
  <defs>
    <clipPath id="clip-path">
      <rect id="Retângulo_78" data-name="Retângulo 78" width="496.935" height="495.342" fill="#4d519d"/>
    </clipPath>
    <clipPath id="clip-path-2">
      <path id="Caminho_1911" data-name="Caminho 1911" d="M231.949,0c-.682,0-1.358,0-2.044.011C146.84.826,88.538,46.61,81.448,52.314A225.11,225.11,0,0,0,34.938,103.8C11.478,139.6.019,183.348,0,227.458v.218A251.876,251.876,0,0,0,20.726,328.1C70.805,442.312,203,491.37,306.572,483.005c28.28-2.284,85.18-6.879,129.608-47.873,85.321-78.727,72.181-243.289-9.5-340.174C416.242,82.572,344.415.1,232.372,0Z" transform="translate(0 0.004)" fill="none"/>
    </clipPath>
    <clipPath id="clip-path-3">
      <path id="Caminho_1912" data-name="Caminho 1912" d="M1171.24,2071.38c-32.056,2.585-57.494,11.472-56.818,19.851.2,2.542,2.8,4.741,7.2,6.5-4.777,2.634-7.42,5.458-7.2,8.226.2,2.541,2.8,4.741,7.2,6.5-4.777,2.634-7.42,5.458-7.2,8.226.2,2.541,2.8,4.741,7.2,6.5-4.777,2.634-7.42,5.458-7.2,8.226.3,3.705,5.662,6.689,14.317,8.644a74.313,74.313,0,0,0,.219,9.053c1.254,15.439,18.62,27.544,41.589,27.544s42.849-16.5,43.075-31.993a78.252,78.252,0,0,0-.45-10.106c10.99-3.67,17.683-8.153,17.333-12.5-.205-2.542-2.8-4.741-7.2-6.5,4.777-2.635,7.419-5.458,7.2-8.227-.205-2.541-2.8-4.741-7.2-6.5,4.777-2.634,7.419-5.457,7.2-8.227-.205-2.541-2.8-4.741-7.2-6.5,4.777-2.634,7.419-5.457,7.2-8.226-.55-6.82-18.232-11.2-42.079-11.2-5.45,0-11.222.229-17.186.709" transform="translate(-1114.409 -2070.671)" fill="none"/>
    </clipPath>
    <clipPath id="clip-path-4">
      <rect id="Retângulo_45" data-name="Retângulo 45" width="496.936" height="495.343" fill="none"/>
    </clipPath>
    <clipPath id="clip-path-5">
      <path id="Caminho_1917" data-name="Caminho 1917" d="M578.084,149.259c3.832,66.756,34.964,115.668,54.047,139.719a108.4,108.4,0,0,1,19.412,37.9c8.1,28.7,29.233,76.121,80.112,73.654,39.319-1.907,55.862-33.183,62.813-58.281a128.634,128.634,0,0,1,30.88-54.711c23.163-24.212,54.273-66.371,59.5-121.953,8.489-90.332-69.052-148.843-147.635-155.443q-7.072-.594-14.2-.593c-74.382,0-150.164,48.433-144.924,139.707" transform="translate(-577.827 -9.552)" fill="none"/>
    </clipPath>
    <linearGradient id="linear-gradient" x1="-0.143" y1="1.4" x2="-0.142" y2="1.4" gradientUnits="objectBoundingBox">
      <stop offset="0" stop-color="#ff928e"/>
      <stop offset="1" stop-color="#fe7062"/>
    </linearGradient>
    <clipPath id="clip-path-6">
      <path id="Caminho_1918" data-name="Caminho 1918" d="M1545.142,1069.776l-27.5,178.837c-.2,1.29.1,2.545.677,2.83.6.294,1.276-.547,1.511-1.879l31.32-177.175c.017-.1.037-.218.052-.316.568-3.695-.33-7.2-2-7.838a1.494,1.494,0,0,0-.531-.1c-1.512,0-3.022,2.335-3.53,5.641" transform="translate(-1517.585 -1064.135)" fill="none"/>
    </clipPath>
    <linearGradient id="linear-gradient-2" x1="-6.621" y1="1.628" x2="-6.616" y2="1.628" gradientUnits="objectBoundingBox">
      <stop offset="0" stop-color="#e1473d"/>
      <stop offset="1" stop-color="#e9605a"/>
    </linearGradient>
    <clipPath id="clip-path-7">
      <path id="Caminho_1919" data-name="Caminho 1919" d="M1169.176,1072.237c-1.675.634-2.572,4.143-2,7.838.015.1.036.22.053.317l31.32,177.175c.235,1.333.912,2.174,1.511,1.88.581-.286.875-1.54.678-2.83l-27.5-178.837c-.508-3.306-2.018-5.64-3.53-5.641a1.492,1.492,0,0,0-.531.1" transform="translate(-1167.001 -1072.138)" fill="none"/>
    </clipPath>
    <linearGradient id="linear-gradient-3" x1="-5.067" y1="1.62" x2="-5.063" y2="1.62" xlink:href="#linear-gradient-2"/>
    <clipPath id="clip-path-9">
      <rect id="Retângulo_49" data-name="Retângulo 49" width="81.001" height="43.893" fill="none"/>
    </clipPath>
    <clipPath id="clip-path-10">
      <path id="Caminho_1921" data-name="Caminho 1921" d="M39.5,2701.034s-2.167,3.416-2.712,12.98a1.558,1.558,0,0,0,1.548,1.65h16.95a1,1,0,0,0,.95-1.315c-.993-2.94-4-10.106-10.7-14.2Z" transform="translate(-36.783 -2700.148)" fill="none"/>
    </clipPath>
    <linearGradient id="linear-gradient-4" x1="-0.329" y1="1.043" x2="-0.32" y2="1.043" gradientUnits="objectBoundingBox">
      <stop offset="0" stop-color="#09005d"/>
      <stop offset="1" stop-color="#1a0f91"/>
    </linearGradient>
    <clipPath id="clip-path-11">
      <path id="Caminho_1922" data-name="Caminho 1922" d="M47.932,2664.49l.959,8.038a1.512,1.512,0,0,0,1.32,1.329,13.4,13.4,0,0,0,3.584-.034,2.483,2.483,0,0,0,2.047-2.463V2663.6Z" transform="translate(-47.932 -2663.599)" fill="none"/>
    </clipPath>
    <linearGradient id="linear-gradient-5" x1="-1.075" y1="2.172" x2="-1.053" y2="2.172" gradientUnits="objectBoundingBox">
      <stop offset="0" stop-color="#febbba"/>
      <stop offset="1" stop-color="#ff928e"/>
    </linearGradient>
    <clipPath id="clip-path-12">
      <path id="Caminho_1923" data-name="Caminho 1923" d="M273.682,2700.148a23.67,23.67,0,0,0-3.175,11.964,3,3,0,0,0,3.012,2.929h26.324a1.26,1.26,0,0,0,.724-2.292c-4.981-3.5-14.772-10.032-21.853-12.6Z" transform="translate(-270.506 -2700.148)" fill="none"/>
    </clipPath>
    <linearGradient id="linear-gradient-6" x1="-1.539" y1="1.087" x2="-1.534" y2="1.087" xlink:href="#linear-gradient-4"/>
    <clipPath id="clip-path-13">
      <path id="Caminho_1924" data-name="Caminho 1924" d="M273.126,2633.354l2.045,9.928a2.046,2.046,0,0,0,2.421,1.61,7.4,7.4,0,0,0,2.314-.968,2.35,2.35,0,0,0,1.05-2.4l-2.115-12.027Z" transform="translate(-273.126 -2629.498)" fill="none"/>
    </clipPath>
    <linearGradient id="linear-gradient-7" x1="-6.062" y1="1.837" x2="-6.04" y2="1.837" xlink:href="#linear-gradient-5"/>
    <clipPath id="clip-path-14">
      <path id="Caminho_1925" data-name="Caminho 1925" d="M20.461,1887.208c-1.338,7.541,3.791,130.114,3.791,130.114s7.11,1.183,10.774-1.038c0,0,4.347-79.549,7.651-97.93,0,0,17.327,82.4,22.129,97.291,0,0,6.849.833,9.058-.47,0,0-3.046-119.5-8.75-138.494L28.909,1873.4s-7.11,6.268-8.448,13.81" transform="translate(-20.238 -1873.398)" fill="none"/>
    </clipPath>
    <linearGradient id="linear-gradient-8" x1="-0.045" y1="1.123" x2="-0.042" y2="1.123" xlink:href="#linear-gradient-4"/>
    <clipPath id="clip-path-16">
      <path id="Caminho_1928" data-name="Caminho 1928" d="M500.1,1108.573l-2.3,8.7a8.492,8.492,0,0,0,.239,5.091l2.168,4.427a8.187,8.187,0,0,1-.475,6.71c-2.666,4.945-8.582,14.167-18.256,20.424a51.434,51.434,0,0,0,10.561,10.879,51.621,51.621,0,0,0,13.2-27.764,4.006,4.006,0,0,0,2.067-4.424l-5.428-24.014a.918.918,0,0,0-1.782-.032" transform="translate(-481.476 -1107.89)" fill="none"/>
    </clipPath>
    <linearGradient id="linear-gradient-9" x1="-2.237" y1="4.953" x2="-2.232" y2="4.953" xlink:href="#linear-gradient-5"/>
    <clipPath id="clip-path-17">
      <path id="Caminho_1929" data-name="Caminho 1929" d="M235.937,1296.879s11.425,5.174,19.466,3.018l.876-20.177-15.439-6Z" transform="translate(-235.937 -1273.723)" fill="none"/>
    </clipPath>
    <linearGradient id="linear-gradient-10" x1="-1.064" y1="9.554" x2="-1.059" y2="9.554" xlink:href="#linear-gradient-5"/>
    <clipPath id="clip-path-18">
      <path id="Caminho_1930" data-name="Caminho 1930" d="M251.171,1180.087l12.711,18.667,12.24-5.6s-10.258-21.219-10.513-21.469a2.931,2.931,0,0,0-2.134-.851c-4.819,0-12.3,9.252-12.3,9.252" transform="translate(-251.171 -1170.835)" fill="none"/>
    </clipPath>
    <linearGradient id="linear-gradient-11" x1="-1.482" y1="9.246" x2="-1.476" y2="9.246" xlink:href="#linear-gradient-5"/>
    <clipPath id="clip-path-19">
      <path id="Caminho_1931" data-name="Caminho 1931" d="M226.587,1122.538a4.974,4.974,0,0,0-2.849,5.794,1.641,1.641,0,0,1-1.421,1.969,1.319,1.319,0,0,0-1.223.869,1.666,1.666,0,0,1-1.84,1.089c-1.975-.338-5.081-.24-6.853,3.021-1.743,3.208.114,5.2,1.7,6.225a1.668,1.668,0,0,1,.468,2.355c-2.575,3.726.144,5.95,1.508,6.767a1.636,1.636,0,0,0,1.279.175c1.323-.364,4.519-1,6.186.727,1.776,1.844,7,9.268,8.709,11.717a1.666,1.666,0,0,0,1.554.7,53.659,53.659,0,0,0,12.073-3.253,1.661,1.661,0,0,0,1.008-2,71.965,71.965,0,0,0-4.123-10.388,1.665,1.665,0,0,0-2.079-.836c-1.794.665-3.474,2.831-5.275,5.234-1.985,2.648-4.446.558-5.113-.1a1.65,1.65,0,0,1-.276-.359l-5.921-10.35a1.652,1.652,0,0,1-.106-1.429c.584-1.476,2.138-4.592,4.941-4.889,3.687-.39,9.592-3.064,8.509-7.043-.859-3.155-3.855-6.814-7.7-6.813a6.767,6.767,0,0,0-3.158.822" transform="translate(-211.699 -1121.716)" fill="none"/>
    </clipPath>
    <linearGradient id="linear-gradient-12" x1="-0.483" y1="5.444" x2="-0.479" y2="5.444" xlink:href="#linear-gradient-4"/>
    <clipPath id="clip-path-20">
      <path id="Caminho_1932" data-name="Caminho 1932" d="M245.055,1273.261c-2.982.188-5.385,3.1-1.766,6.514,4.5,4.241,6.932.149,6.932.149s-2.126-6.666-5.045-6.667c-.04,0-.08,0-.121,0" transform="translate(-241.468 -1273.257)" fill="none"/>
    </clipPath>
    <linearGradient id="linear-gradient-13" x1="-3.794" y1="24.52" x2="-3.778" y2="24.52" xlink:href="#linear-gradient-5"/>
    <clipPath id="clip-path-21">
      <path id="Caminho_1933" data-name="Caminho 1933" d="M497.663,253.934c-14.078,3.925-27.892,29.916-8.456,50.735,3.8,4.073,1.743,11.11-3.521,12.17l-48.059,9.673,10.57,61.556c11.515-21.963,34.2-21.1,46.059-3.4,11.907,17.773,7.91,36.7-11.226,41.814-9.788,2.615-17.078-.022-21.846-3.189-2.494-1.657-5.547.547-5.016,3.643l8.532,49.683,47.49-7.884c5.268-.874,9.522,5.169,7,10.141a26.422,26.422,0,0,0-2.9,15.383c2.105,16.942,16.636,31.119,32.741,30.4,16.22-.727,30.286-19.476,25.095-35.284a73.464,73.464,0,0,0-10.277-19.4c-3.062-4.247-.856-10.285,4.055-11.1l57.014-9.473-8.5-49.474a5.049,5.049,0,0,0-8.434-3.089c-4.96,4.735-13.117,9.376-25.55,8.12-23.632-2.387-26.161-24.325-23.585-35.8,2.174-9.678,22.411-24.385,40.143-15.315a5.135,5.135,0,0,0,7.264-5.708L597.326,296.1,540.21,307.576c-4.971,1-9.194-3.908-7.794-9.106a63.032,63.032,0,0,0,1.814-22.222c-1.523-16.492-13.384-23.738-26.388-23.739a38.033,38.033,0,0,0-10.179,1.424" transform="translate(-437.627 -252.51)" fill="none"/>
    </clipPath>
    <clipPath id="clip-path-23">
      <path id="Caminho_1935" data-name="Caminho 1935" d="M606.071,1515.183a85.185,85.185,0,0,0,6.858,16.73c13.713-7.97,19.786-24.77,19.786-24.77l-3.692-3.419c-8.413,8.357-16.166,11.388-22.952,11.46" transform="translate(-606.071 -1503.723)" fill="none"/>
    </clipPath>
    <linearGradient id="linear-gradient-14" x1="-3.292" y1="7.512" x2="-3.287" y2="7.512" xlink:href="#linear-gradient-5"/>
    <clipPath id="clip-path-24">
      <path id="Caminho_1936" data-name="Caminho 1936" d="M748.434,1451.265s-13.435.405-16.974,1.046c-2.94.532-1.75,4.682-1.262,6.073.1.284.17.452.17.452l1.828,2.11,16.854-2.4,13.84-11.414a2.37,2.37,0,0,0-.854-.126c-3.622,0-13.6,4.256-13.6,4.256" transform="translate(-729.543 -1447.009)" fill="none"/>
    </clipPath>
    <linearGradient id="linear-gradient-15" x1="-7.187" y1="6.92" x2="-7.178" y2="6.92" xlink:href="#linear-gradient-5"/>
    <clipPath id="clip-path-25">
      <path id="Caminho_1937" data-name="Caminho 1937" d="M2334.093,1046.31s-32.368,41.442,4.562,83.591l13.884-1.294s-26.726-42.913-14.823-77.121l19.667,1.436,10.876-7.089Z" transform="translate(-2320.969 -1045.833)" fill="none"/>
    </clipPath>
    <linearGradient id="linear-gradient-16" x1="-3.735" y1="3.497" x2="-3.733" y2="3.497" xlink:href="#linear-gradient-5"/>
    <clipPath id="clip-path-26">
      <path id="Caminho_1938" data-name="Caminho 1938" d="M1630.455,64.421a8.27,8.27,0,0,0-6.2,12.434,53.791,53.791,0,0,1,7.44,24.053c1.3,21.931-27.07,29.328-36.211,30.723-8.261,1.26-42.047-11.759-23.895-49.952,2.637-5.549-1.429-11.86-7.314-11.345l-58.518,5.122,3.322,56.138a5.47,5.47,0,0,1-8.363,5.186c-17.7-11.693-40.86,1.489-44.3,11.479-4.08,11.839-3.99,35.362,20.745,40.676,13.013,2.8,22.2-1.155,28.006-5.583a5.378,5.378,0,0,1,8.564,4.265l3.159,53.377,60.371-3.244c5.993-.322,9.114-7.49,5.387-12.4-5.33-7.024-11.306-15.556-13.028-20.563-3.294-9.583.958-29.936,23.551-34.582,22.8-4.69,40.419,10.028,40.72,30.9a67.341,67.341,0,0,1-3.661,23.024,7.824,7.824,0,0,0,7.706,10.363l55.325-2.973-3.051-51.551a8.664,8.664,0,0,0-13.219-6.957,51.3,51.3,0,0,1-15.1,6.356c-32.3,7.59-30.36-33.87-14.549-51.588,8.089-9.065,18.413-7.02,26.621-2.811a8.836,8.836,0,0,0,12.782-8.507l-3.354-56.674Z" transform="translate(-1454.416 -59.787)" fill="none"/>
    </clipPath>
    <clipPath id="clip-path-27">
      <path id="Caminho_1939" data-name="Caminho 1939" d="M2494.825,2141.208s26.225,57.158,39.984,80.833c0,0,2.733,14.9,0,19.581l-2.329,1.035,10.869-.324s.965-20.037.211-21.156a2.767,2.767,0,0,0-2.262-1.046s-4.661-36.924-18.158-44.8l-13.081-45.054Z" transform="translate(-2494.825 -2130.272)" fill="none"/>
    </clipPath>
    <linearGradient id="linear-gradient-17" x1="-8.946" y1="1.044" x2="-8.942" y2="1.044" xlink:href="#linear-gradient-5"/>
    <clipPath id="clip-path-28">
      <path id="Caminho_1940" data-name="Caminho 1940" d="M2694.628,2643.442c.875,3.587,1.653,12.881-.557,13.963s-8.566,1.272-8.566,1.272-4.5.446-4.642,2.806c-.017.262,8.487.143,13.107.058a3.675,3.675,0,0,0,3.523-2.9l3.488-18.327a3.3,3.3,0,0,0-2.5-3.829l-1.947-.445s-2.778,3.81-1.9,7.4" transform="translate(-2680.863 -2636.044)" fill="none"/>
    </clipPath>
    <linearGradient id="linear-gradient-18" x1="-16.542" y1="1.11" x2="-16.536" y2="1.11" xlink:href="#linear-gradient-4"/>
    <clipPath id="clip-path-29">
      <path id="Caminho_1941" data-name="Caminho 1941" d="M2360.239,2732.582l-7.742,4.411a.959.959,0,0,0,.484,1.793c7.73-.078,25.052-.322,26.591-.962,1.987-.826-.724-7.967-3.578-10.384Z" transform="translate(-2352.01 -2727.439)" fill="none"/>
    </clipPath>
    <linearGradient id="linear-gradient-19" x1="-26.884" y1="0.681" x2="-26.872" y2="0.681" xlink:href="#linear-gradient-4"/>
    <clipPath id="clip-path-30">
      <path id="Caminho_1942" data-name="Caminho 1942" d="M2348.931,2269.333l-11.341,7.117s5.683-.967,9.9-1.271,8.091-5.143,8.091-5.143l-1.359-2.167s-4.25-81.538-3.215-90.8l-23.815-5.716s16.948,81.984,21.741,97.977" transform="translate(-2327.19 -2171.356)" fill="none"/>
    </clipPath>
    <linearGradient id="linear-gradient-20" x1="-14.547" y1="1.047" x2="-14.541" y2="1.047" xlink:href="#linear-gradient-5"/>
    <clipPath id="clip-path-31">
      <path id="Caminho_1943" data-name="Caminho 1943" d="M1983.953,958.957l-.984,3.931a13.412,13.412,0,0,0,2.852,12.012l7.471,8.667a6.771,6.771,0,0,1,1.65,4.565c-1.29,57.974,33.854,79.231,33.854,79.231l9.348-21.32c-38.828-21.793-36.49-64.441-36.49-64.441,3.9-3.461,4.048-6.573.762-9.367l-.26,1.117a2.663,2.663,0,0,1-2.932,2.08c-1.01-.154-1.3-.837-2.188-2.828l-3.669-8.2a13.717,13.717,0,0,0-5.632-6.26l-.781-.454a2.036,2.036,0,0,0-3,1.268" transform="translate(-1982.569 -957.412)" fill="none"/>
    </clipPath>
    <linearGradient id="linear-gradient-21" x1="-3.489" y1="2.695" x2="-3.487" y2="2.695" xlink:href="#linear-gradient-5"/>
    <clipPath id="clip-path-32">
      <path id="Caminho_1944" data-name="Caminho 1944" d="M2242.229,1439.838l-6.7,20.491a3.74,3.74,0,0,0,1.482,4.276l1.374.914c-1,2.969-2.313,6.057-.549,8.646,6.109,8.964,13.851,26.945,13.851,26.945l27.5.123-.671-7.764,8.435-47.6c-13.739.236-35.746-5.553-42.241-7.354a2.042,2.042,0,0,0-2.486,1.324" transform="translate(-2235.347 -1438.439)" fill="none"/>
    </clipPath>
    <linearGradient id="linear-gradient-22" x1="-5.155" y1="3.126" x2="-5.153" y2="3.126" gradientUnits="objectBoundingBox">
      <stop offset="0" stop-color="#4f52ff"/>
      <stop offset="1" stop-color="#4042e2"/>
    </linearGradient>
    <clipPath id="clip-path-33">
      <path id="Caminho_1945" data-name="Caminho 1945" d="M2305.772,1764.295l.541,4.7s-7.772,23.276,3.886,77.639c0,0,25.249,7.153,46-9.963,0,0-5.854-51.311-7.453-53.7-7.964-11.9-13.269-14.493-13.269-14.493l-.24-5.139s-22.2,4.013-29.467.953" transform="translate(-2303.775 -1763.342)" fill="none"/>
    </clipPath>
    <linearGradient id="linear-gradient-23" x1="-3.692" y1="1.795" x2="-3.69" y2="1.795" xlink:href="#linear-gradient-4"/>
    <clipPath id="clip-path-34">
      <path id="Caminho_1946" data-name="Caminho 1946" d="M2375.69,1378.777c4.265,5.63,17.371,2.984,17.371,2.984l-3.267-19.851-8.363-.759s-5.838,17.5-5.742,17.626" transform="translate(-2375.689 -1361.151)" fill="none"/>
    </clipPath>
    <linearGradient id="linear-gradient-24" x1="-24.129" y1="10.913" x2="-24.119" y2="10.913" xlink:href="#linear-gradient-5"/>
    <clipPath id="clip-path-35">
      <path id="Caminho_1947" data-name="Caminho 1947" d="M2375.879,1201.684c-.558.347-17.87,7.5-14.15,25.475a3.374,3.374,0,0,0,1.919,2.4,29.333,29.333,0,0,0,14.552,2.409c9.069-.922,15.012-16.748,14.759-21.353-.209-3.811-7.982-9.788-13.789-9.789a6.136,6.136,0,0,0-3.29.854" transform="translate(-2361.206 -1200.83)" fill="none"/>
    </clipPath>
    <linearGradient id="linear-gradient-25" x1="-12.202" y1="7.645" x2="-12.197" y2="7.645" xlink:href="#linear-gradient-5"/>
    <clipPath id="clip-path-36">
      <path id="Caminho_1948" data-name="Caminho 1948" d="M2393.368,1164.332c-.455.06-10,3.386-5.269,10.306s6.512,10.993,4.272,14.032c-2.04,2.768-6.561,1.19-6.166,6.95a3.232,3.232,0,0,1-1.377,2.92c-4.26,2.883-14.653,11.759-4.356,24.417a3.224,3.224,0,0,1,.364,3.607c-3.016,5.409-9.351,21.256,13.583,30.046,22.663,8.686,30.845-6.128,33.132-12.049a3.161,3.161,0,0,1,3.127-2c2.49.118,6.019-.3,5.857-3.624a8.312,8.312,0,0,0-2.85-5.285,3.157,3.157,0,0,1,.607-4.972,6.186,6.186,0,0,0,3.056-3.841c1.373-5.09-1.369-20.307-15.955-22.886a3.442,3.442,0,0,1-2.668-2.579l-.008-.054a3.153,3.153,0,0,1,1.171-3.1c2.329-1.708,5.316-5.148,2.89-10.664a11.954,11.954,0,0,0-9.344-7.069,3.177,3.177,0,0,1-2.6-3.8c.906-4.263.325-10.772-11.654-10.772a44.9,44.9,0,0,0-5.808.417" transform="translate(-2376.062 -1163.915)" fill="none"/>
    </clipPath>
    <linearGradient id="linear-gradient-26" x1="-3.201" y1="2.519" x2="-3.199" y2="2.519" xlink:href="#linear-gradient-4"/>
  </defs>
  <g id="Grupo_292" data-name="Grupo 292" clip-path="url(#clip-path)">
    <g id="Grupo_222" data-name="Grupo 222" transform="translate(0 -0.001)">
      <g id="Grupo_221" data-name="Grupo 221" clip-path="url(#clip-path-2)">
        <path id="Caminho_1952" data-name="Caminho 1952" d="M0,0H714.877V716.5H0Z" transform="matrix(0.68, -0.734, 0.734, 0.68, -258.165, 220.124)" fill="#6e52ff"/>
      </g>
    </g>
    <g id="Grupo_224" data-name="Grupo 224" transform="translate(197.756 367.449)">
      <g id="Grupo_223" data-name="Grupo 223" clip-path="url(#clip-path-3)">
        <path id="Caminho_1950" data-name="Caminho 1950" d="M0,0H141.758V146.214H0Z" transform="matrix(0.321, -0.947, 0.947, 0.321, -34.094, 98.665)" fill="#4d519d"/>
      </g>
    </g>
    <g id="Grupo_226" data-name="Grupo 226" transform="translate(0 -0.001)">
      <g id="Grupo_225" data-name="Grupo 225" clip-path="url(#clip-path-4)">
        <path id="Caminho_1913" data-name="Caminho 1913" d="M1230.318,2464.076a138.51,138.51,0,0,1-25.428-2.079.77.77,0,1,1,.289-1.512c11.262,2.156,26.3,2.632,42.356,1.337a182.071,182.071,0,0,0,35.522-6.126.77.77,0,0,1,.431,1.478,183.62,183.62,0,0,1-35.83,6.184c-5.962.481-11.789.719-17.341.719" transform="translate(-990.563 -2019.896)" fill="#7d97f4"/>
        <path id="Caminho_1914" data-name="Caminho 1914" d="M1204.679,2362.335c-12.369,0-23.423-1.163-31.22-3.384a.77.77,0,1,1,.422-1.481c11.111,3.164,29,4.144,47.856,2.625,18.651-1.5,36.046-5.289,46.531-10.125a.77.77,0,1,1,.645,1.4c-10.641,4.907-28.231,8.743-47.053,10.261-5.873.474-11.659.706-17.181.706" transform="translate(-964.764 -1932.899)" fill="#7d97f4"/>
        <path id="Caminho_1915" data-name="Caminho 1915" d="M1196.1,2279.334c-13.355,0-25.042-1.366-32.909-3.96a.77.77,0,0,1,.482-1.463c10.947,3.61,29.5,4.795,49.642,3.172,18.65-1.5,36.045-5.289,46.531-10.125a.77.77,0,1,1,.645,1.4c-10.642,4.908-28.232,8.744-47.052,10.261-5.964.481-11.8.716-17.339.716" transform="translate(-956.343 -1864.619)" fill="#7d97f4"/>
        <path id="Caminho_1916" data-name="Caminho 1916" d="M1220.385,2196.824a132.775,132.775,0,0,1-27.72-2.521.77.77,0,0,1,.334-1.5c11.264,2.5,27.484,3.151,44.5,1.78,18.484-1.49,35.79-5.234,46.294-10.016a.77.77,0,1,1,.637,1.4c-10.656,4.851-28.155,8.645-46.807,10.149-5.894.475-11.7.71-17.237.71" transform="translate(-980.525 -1796.846)" fill="#7d97f4"/>
      </g>
    </g>
    <g id="Grupo_228" data-name="Grupo 228" transform="translate(102.538 1.695)">
      <g id="Grupo_227" data-name="Grupo 227" clip-path="url(#clip-path-5)">
        <rect id="Retângulo_46" data-name="Retângulo 46" width="401.146" height="329.987" transform="matrix(0.024, -1, 1, 0.024, -14.573, 393.214)" fill="url(#linear-gradient)"/>
      </g>
    </g>
    <g id="Grupo_230" data-name="Grupo 230" transform="translate(269.302 188.835)">
      <g id="Grupo_229" data-name="Grupo 229" clip-path="url(#clip-path-6)">
        <rect id="Retângulo_47" data-name="Retângulo 47" width="40.211" height="188.589" transform="translate(-6.035 0.186) rotate(-1.803)" fill="url(#linear-gradient-2)"/>
      </g>
    </g>
    <g id="Grupo_232" data-name="Grupo 232" transform="translate(207.089 190.255)">
      <g id="Grupo_231" data-name="Grupo 231" clip-path="url(#clip-path-7)">
        <rect id="Retângulo_48" data-name="Retângulo 48" width="40.211" height="188.589" transform="matrix(1, -0.031, 0.031, 1, -6.296, 0.186)" fill="url(#linear-gradient-3)"/>
      </g>
    </g>
    <g id="Grupo_237" data-name="Grupo 237" transform="translate(0 -0.001)">
      <g id="Grupo_236" data-name="Grupo 236" clip-path="url(#clip-path-4)">
        <g id="Grupo_235" data-name="Grupo 235" transform="translate(215.981 157.49)" opacity="0.7">
          <g id="Grupo_234" data-name="Grupo 234">
            <g id="Grupo_233" data-name="Grupo 233" clip-path="url(#clip-path-9)">
              <path id="Caminho_1920" data-name="Caminho 1920" d="M1297.792,909.125a2.883,2.883,0,0,0-3.609-.937l-15.31,7.154-5.315-15.143a3.248,3.248,0,0,0-1.862-1.873,3.783,3.783,0,0,0-4.7,1.45l-.027.049-12.591,22.957L1242.69,890.1l-.019-.054a3.733,3.733,0,0,0-1.769-1.994,4.586,4.586,0,0,0-5.781,1.139l-17.6,24.232a2.122,2.122,0,0,0,.62,3.058,2.951,2.951,0,0,0,3.743-.407l15.5-17.289,13.954,31.089.011.024a2.468,2.468,0,0,0,1.229,1.2,2.917,2.917,0,0,0,3.651-.945l13.466-21.609,5.068,10.93.045.1a2.161,2.161,0,0,0,.126.232,2.881,2.881,0,0,0,3.606.936l18.174-8.492a2.162,2.162,0,0,0,1.081-3.129" transform="translate(-1217.112 -887.493)" fill="#fff"/>
            </g>
          </g>
        </g>
      </g>
    </g>
    <g id="Grupo_239" data-name="Grupo 239" transform="translate(6.527 479.152)">
      <g id="Grupo_238" data-name="Grupo 238" clip-path="url(#clip-path-10)">
        <rect id="Retângulo_51" data-name="Retângulo 51" width="19.717" height="15.517" transform="translate(-0.048)" fill="url(#linear-gradient-4)"/>
      </g>
    </g>
    <g id="Grupo_241" data-name="Grupo 241" transform="translate(8.506 472.667)">
      <g id="Grupo_240" data-name="Grupo 240" clip-path="url(#clip-path-11)">
        <rect id="Retângulo_52" data-name="Retângulo 52" width="7.91" height="10.44" transform="translate(0 0)" fill="url(#linear-gradient-5)"/>
      </g>
    </g>
    <g id="Grupo_243" data-name="Grupo 243" transform="translate(48.002 479.152)">
      <g id="Grupo_242" data-name="Grupo 242" clip-path="url(#clip-path-12)">
        <rect id="Retângulo_53" data-name="Retângulo 53" width="31.138" height="14.893" transform="translate(-0.068)" fill="url(#linear-gradient-6)"/>
      </g>
    </g>
    <g id="Grupo_245" data-name="Grupo 245" transform="translate(48.467 466.615)">
      <g id="Grupo_244" data-name="Grupo 244" clip-path="url(#clip-path-13)">
        <rect id="Retângulo_54" data-name="Retângulo 54" width="7.995" height="15.641" transform="translate(0 0)" fill="url(#linear-gradient-7)"/>
      </g>
    </g>
    <g id="Grupo_247" data-name="Grupo 247" transform="translate(3.591 332.442)">
      <g id="Grupo_246" data-name="Grupo 246" clip-path="url(#clip-path-14)">
        <rect id="Retângulo_55" data-name="Retângulo 55" width="54.741" height="145.107" transform="translate(-1.115)" fill="url(#linear-gradient-8)"/>
      </g>
    </g>
    <g id="Grupo_249" data-name="Grupo 249" transform="translate(0 -0.001)">
      <g id="Grupo_248" data-name="Grupo 248" clip-path="url(#clip-path-4)">
        <path id="Caminho_1926" data-name="Caminho 1926" d="M97.7,2031.9a.771.771,0,0,1-.746-.577l-2.944-11.293-6.271-4.022a.772.772,0,1,1,.833-1.3L95.1,2018.9a.771.771,0,0,1,.33.455l3.019,11.585a.771.771,0,0,1-.552.941.76.76,0,0,1-.2.025" transform="translate(-71.88 -1657.091)" fill="#7d97f4"/>
        <path id="Caminho_1927" data-name="Caminho 1927" d="M211.913,1373.625c-29.89,2.922-36.476,10.417-36.476,10.417l18.221,19.76s28.828-5.844,46.648-25.6a51.43,51.43,0,0,1-10.561-10.879,39.627,39.627,0,0,1-17.832,6.3" transform="translate(-144.305 -1124.685)" fill="#91b3fa"/>
      </g>
    </g>
    <g id="Grupo_251" data-name="Grupo 251" transform="translate(85.44 196.6)">
      <g id="Grupo_250" data-name="Grupo 250" clip-path="url(#clip-path-16)">
        <rect id="Retângulo_57" data-name="Retângulo 57" width="36.003" height="60.696" transform="translate(-10.04 1.83) rotate(-10.329)" fill="url(#linear-gradient-9)"/>
      </g>
    </g>
    <g id="Grupo_253" data-name="Grupo 253" transform="translate(41.868 226.027)">
      <g id="Grupo_252" data-name="Grupo 252" clip-path="url(#clip-path-17)">
        <rect id="Retângulo_58" data-name="Retângulo 58" width="33.27" height="28.182" transform="translate(-8.417 25.557) rotate(-71.772)" fill="url(#linear-gradient-10)"/>
      </g>
    </g>
    <g id="Grupo_255" data-name="Grupo 255" transform="translate(44.571 207.769)">
      <g id="Grupo_254" data-name="Grupo 254" clip-path="url(#clip-path-18)">
        <rect id="Retângulo_59" data-name="Retângulo 59" width="28.785" height="31.285" transform="translate(-4.061 0.604) rotate(-8.457)" fill="url(#linear-gradient-11)"/>
      </g>
    </g>
    <g id="Grupo_257" data-name="Grupo 257" transform="translate(37.567 199.053)">
      <g id="Grupo_256" data-name="Grupo 256" clip-path="url(#clip-path-19)">
        <rect id="Retângulo_60" data-name="Retângulo 60" width="55.729" height="55.651" transform="matrix(0.7, -0.714, 0.714, 0.7, -22.185, 21.548)" fill="url(#linear-gradient-12)"/>
      </g>
    </g>
    <g id="Grupo_259" data-name="Grupo 259" transform="translate(42.849 225.945)">
      <g id="Grupo_258" data-name="Grupo 258" clip-path="url(#clip-path-20)">
        <rect id="Retângulo_61" data-name="Retângulo 61" width="10.788" height="10.992" transform="translate(-2.038 0.005) rotate(-1.277)" fill="url(#linear-gradient-13)"/>
      </g>
    </g>
    <g id="Grupo_261" data-name="Grupo 261" transform="translate(77.659 44.809)">
      <g id="Grupo_260" data-name="Grupo 260" clip-path="url(#clip-path-21)">
        <path id="Caminho_1951" data-name="Caminho 1951" d="M0,0H324.068V278.245H0Z" transform="translate(-97.315 232.058) rotate(-67.249)" fill="#41a5e6"/>
      </g>
    </g>
    <g id="Grupo_263" data-name="Grupo 263" transform="translate(0 -0.001)">
      <g id="Grupo_262" data-name="Grupo 262" clip-path="url(#clip-path-4)">
        <path id="Caminho_1934" data-name="Caminho 1934" d="M120.772,1416.187c-12.4-9.281-33.065-10.729-44.874-10.718a10.659,10.659,0,0,0-10.508,8.785c-2.624,14.766-10.059,53.294-11.644,59.971-1.3,5.479-2.721,10.856-3.632,14.223a3.78,3.78,0,0,0,2.638,4.639c10.463,2.883,28.724,4.974,36.113,5.742a2.446,2.446,0,0,0,2.658-2.877,7.645,7.645,0,0,1,.367-4.066l18.5-49.122c19.908,15.345,34.718,14.381,45.127,8.331a85.2,85.2,0,0,1-6.859-16.73c-16.974.18-27.889-18.177-27.889-18.177" transform="translate(-41.112 -1156.062)" fill="#7d97f4"/>
      </g>
    </g>
    <g id="Grupo_265" data-name="Grupo 265" transform="translate(107.55 266.842)">
      <g id="Grupo_264" data-name="Grupo 264" clip-path="url(#clip-path-23)">
        <rect id="Retângulo_64" data-name="Retângulo 64" width="31.873" height="30.578" transform="matrix(0.15, -0.989, 0.989, 0.15, -4.187, 27.553)" fill="url(#linear-gradient-14)"/>
      </g>
    </g>
    <g id="Grupo_267" data-name="Grupo 267" transform="translate(129.46 256.778)">
      <g id="Grupo_266" data-name="Grupo 266" clip-path="url(#clip-path-24)">
        <rect id="Retângulo_65" data-name="Retângulo 65" width="18.943" height="36.073" transform="translate(-3.094 13.622) rotate(-81.359)" fill="url(#linear-gradient-15)"/>
      </g>
    </g>
    <g id="Grupo_269" data-name="Grupo 269" transform="translate(411.866 185.587)">
      <g id="Grupo_268" data-name="Grupo 268" clip-path="url(#clip-path-25)">
        <rect id="Retângulo_66" data-name="Retângulo 66" width="100.558" height="89.326" transform="matrix(0.31, -0.951, 0.951, 0.31, -44.032, 75.981)" fill="url(#linear-gradient-16)"/>
      </g>
    </g>
    <g id="Grupo_271" data-name="Grupo 271" transform="translate(258.092 10.609)">
      <g id="Grupo_270" data-name="Grupo 270" clip-path="url(#clip-path-26)">
        <path id="Caminho_1949" data-name="Caminho 1949" d="M0,0H246.768V285.118H0Z" transform="matrix(0.309, -0.951, 0.951, 0.309, -55.32, 163.917)" fill="#4d519d"/>
      </g>
    </g>
    <g id="Grupo_273" data-name="Grupo 273" transform="translate(442.717 378.025)">
      <g id="Grupo_272" data-name="Grupo 272" clip-path="url(#clip-path-27)">
        <rect id="Retângulo_68" data-name="Retângulo 68" width="49.49" height="112.384" fill="url(#linear-gradient-17)"/>
      </g>
    </g>
    <g id="Grupo_275" data-name="Grupo 275" transform="translate(475.73 467.777)">
      <g id="Grupo_274" data-name="Grupo 274" clip-path="url(#clip-path-28)">
        <rect id="Retângulo_69" data-name="Retângulo 69" width="28.514" height="24.136" transform="translate(-3.879 25.107) rotate(-81.254)" fill="url(#linear-gradient-18)"/>
      </g>
    </g>
    <g id="Grupo_277" data-name="Grupo 277" transform="translate(417.374 483.995)">
      <g id="Grupo_276" data-name="Grupo 276" clip-path="url(#clip-path-29)">
        <rect id="Retângulo_70" data-name="Retângulo 70" width="15.774" height="31.302" transform="matrix(0.152, -0.988, 0.988, 0.152, -2.08, 11.094)" fill="url(#linear-gradient-19)"/>
      </g>
    </g>
    <g id="Grupo_279" data-name="Grupo 279" transform="translate(412.969 385.316)">
      <g id="Grupo_278" data-name="Grupo 278" clip-path="url(#clip-path-30)">
        <rect id="Retângulo_71" data-name="Retângulo 71" width="28.389" height="105.094" transform="translate(0)" fill="url(#linear-gradient-20)"/>
      </g>
    </g>
    <g id="Grupo_281" data-name="Grupo 281" transform="translate(351.815 169.897)">
      <g id="Grupo_280" data-name="Grupo 280" clip-path="url(#clip-path-31)">
        <rect id="Retângulo_72" data-name="Retângulo 72" width="95.073" height="123.22" transform="matrix(0.919, -0.395, 0.395, 0.919, -40.538, 17.137)" fill="url(#linear-gradient-21)"/>
      </g>
    </g>
    <g id="Grupo_283" data-name="Grupo 283" transform="translate(396.671 255.257)">
      <g id="Grupo_282" data-name="Grupo 282" clip-path="url(#clip-path-32)">
        <rect id="Retângulo_73" data-name="Retângulo 73" width="74.672" height="79.467" transform="translate(-25.601 12.756) rotate(-26.789)" fill="url(#linear-gradient-22)"/>
      </g>
    </g>
    <g id="Grupo_285" data-name="Grupo 285" transform="translate(408.814 312.912)">
      <g id="Grupo_284" data-name="Grupo 284" clip-path="url(#clip-path-33)">
        <rect id="Retângulo_74" data-name="Retângulo 74" width="103.15" height="105.929" transform="matrix(0.748, -0.663, 0.663, 0.748, -50.133, 39.812)" fill="url(#linear-gradient-23)"/>
      </g>
    </g>
    <g id="Grupo_287" data-name="Grupo 287" transform="translate(421.576 241.542)">
      <g id="Grupo_286" data-name="Grupo 286" clip-path="url(#clip-path-34)">
        <rect id="Retângulo_75" data-name="Retângulo 75" width="17.468" height="23.256" transform="translate(-0.096)" fill="url(#linear-gradient-24)"/>
      </g>
    </g>
    <g id="Grupo_289" data-name="Grupo 289" transform="translate(419.006 213.092)">
      <g id="Grupo_288" data-name="Grupo 288" clip-path="url(#clip-path-35)">
        <rect id="Retângulo_76" data-name="Retângulo 76" width="34.121" height="37.279" transform="matrix(0.068, -0.998, 0.998, 0.068, -5.349, 31.66)" fill="url(#linear-gradient-25)"/>
      </g>
    </g>
    <g id="Grupo_291" data-name="Grupo 291" transform="translate(421.642 206.541)">
      <g id="Grupo_290" data-name="Grupo 290" clip-path="url(#clip-path-36)">
        <rect id="Retângulo_77" data-name="Retângulo 77" width="121.607" height="117.96" transform="translate(-55.951 58.628) rotate(-49.505)" fill="url(#linear-gradient-26)"/>
      </g>
    </g>
  </g>
</svg>
