<svg xmlns="http://www.w3.org/2000/svg" xmlns:xlink="http://www.w3.org/1999/xlink" width="496.935" height="495.342" viewBox="0 0 496.935 495.342">
  <defs>
    <clipPath id="clip-path">
      <rect id="Retângulo_78" data-name="Retângulo 78" width="496.935" height="495.342" fill="#4d519d"/>
    </clipPath>
    <clipPath id="clip-path-2">
      <rect id="Retângulo_50" data-name="Retângulo 50" width="496.936" height="495.343" fill="none"/>
    </clipPath>
    <clipPath id="clip-path-3">
      <rect id="Retângulo_49" data-name="Retângulo 49" width="81.001" height="43.893" fill="none"/>
    </clipPath>
    <clipPath id="clip-path-4">
      <path id="Caminho_1921" data-name="Caminho 1921" d="M39.5,2701.034s-2.167,3.416-2.712,12.98a1.558,1.558,0,0,0,1.548,1.65h16.95a1,1,0,0,0,.95-1.315c-.993-2.94-4-10.106-10.7-14.2Z" transform="translate(-36.783 -2700.148)" fill="none"/>
    </clipPath>
    <linearGradient id="linear-gradient" x1="-0.329" y1="1.043" x2="-0.32" y2="1.043" gradientUnits="objectBoundingBox">
      <stop offset="0" stop-color="#09005d"/>
      <stop offset="1" stop-color="#1a0f91"/>
    </linearGradient>
    <clipPath id="clip-path-5">
      <path id="Caminho_1922" data-name="Caminho 1922" d="M47.932,2664.49l.959,8.038a1.512,1.512,0,0,0,1.32,1.329,13.4,13.4,0,0,0,3.584-.034,2.483,2.483,0,0,0,2.047-2.463V2663.6Z" transform="translate(-47.932 -2663.599)" fill="none"/>
    </clipPath>
    <clipPath id="clip-path-6">
      <path id="Caminho_1923" data-name="Caminho 1923" d="M273.682,2700.148a23.67,23.67,0,0,0-3.175,11.964,3,3,0,0,0,3.012,2.929h26.324a1.26,1.26,0,0,0,.724-2.292c-4.981-3.5-14.772-10.032-21.853-12.6Z" transform="translate(-270.506 -2700.148)" fill="none"/>
    </clipPath>
    <linearGradient id="linear-gradient-2" x1="-1.539" y1="1.087" x2="-1.534" y2="1.087" xlink:href="#linear-gradient"/>
    <clipPath id="clip-path-7">
      <path id="Caminho_1924" data-name="Caminho 1924" d="M273.126,2633.354l2.045,9.928a2.046,2.046,0,0,0,2.421,1.61,7.4,7.4,0,0,0,2.314-.968,2.35,2.35,0,0,0,1.05-2.4l-2.115-12.027Z" transform="translate(-273.126 -2629.498)" fill="none"/>
    </clipPath>
    <clipPath id="clip-path-8">
      <path id="Caminho_1925" data-name="Caminho 1925" d="M20.461,1887.208c-1.338,7.541,3.791,130.114,3.791,130.114s7.11,1.183,10.774-1.038c0,0,4.347-79.549,7.651-97.93,0,0,17.327,82.4,22.129,97.291,0,0,6.849.833,9.058-.47,0,0-3.046-119.5-8.75-138.494L28.909,1873.4s-7.11,6.268-8.448,13.81" transform="translate(-20.238 -1873.398)" fill="none"/>
    </clipPath>
    <linearGradient id="linear-gradient-3" x1="-0.045" y1="1.123" x2="-0.042" y2="1.123" xlink:href="#linear-gradient"/>
    <clipPath id="clip-path-10">
      <path id="Caminho_1928" data-name="Caminho 1928" d="M500.1,1108.573l-2.3,8.7a8.492,8.492,0,0,0,.239,5.091l2.168,4.427a8.187,8.187,0,0,1-.475,6.71c-2.666,4.945-8.582,14.167-18.256,20.424a51.434,51.434,0,0,0,10.561,10.879,51.621,51.621,0,0,0,13.2-27.764,4.006,4.006,0,0,0,2.067-4.424l-5.428-24.014a.918.918,0,0,0-1.782-.032" transform="translate(-481.476 -1107.89)" fill="none"/>
    </clipPath>
    <clipPath id="clip-path-11">
      <path id="Caminho_1929" data-name="Caminho 1929" d="M235.937,1296.879s11.425,5.174,19.466,3.018l.876-20.177-15.439-6Z" transform="translate(-235.937 -1273.723)" fill="none"/>
    </clipPath>
    <clipPath id="clip-path-12">
      <path id="Caminho_1930" data-name="Caminho 1930" d="M251.171,1180.087l12.711,18.667,12.24-5.6s-10.258-21.219-10.513-21.469a2.931,2.931,0,0,0-2.134-.851c-4.819,0-12.3,9.252-12.3,9.252" transform="translate(-251.171 -1170.835)" fill="none"/>
    </clipPath>
    <linearGradient id="linear-gradient-4" x1="-1.482" y1="9.246" x2="-1.476" y2="9.246" gradientUnits="objectBoundingBox">
      <stop offset="0" stop-color="#febbba"/>
      <stop offset="1" stop-color="#a75956"/>
    </linearGradient>
    <clipPath id="clip-path-13">
      <path id="Caminho_1931" data-name="Caminho 1931" d="M226.587,1122.538a4.974,4.974,0,0,0-2.849,5.794,1.641,1.641,0,0,1-1.421,1.969,1.319,1.319,0,0,0-1.223.869,1.666,1.666,0,0,1-1.84,1.089c-1.975-.338-5.081-.24-6.853,3.021-1.743,3.208.114,5.2,1.7,6.225a1.668,1.668,0,0,1,.468,2.355c-2.575,3.726.144,5.95,1.508,6.767a1.636,1.636,0,0,0,1.279.175c1.323-.364,4.519-1,6.186.727,1.776,1.844,7,9.268,8.709,11.717a1.666,1.666,0,0,0,1.554.7,53.659,53.659,0,0,0,12.073-3.253,1.661,1.661,0,0,0,1.008-2,71.965,71.965,0,0,0-4.123-10.388,1.665,1.665,0,0,0-2.079-.836c-1.794.665-3.474,2.831-5.275,5.234-1.985,2.648-4.446.558-5.113-.1a1.65,1.65,0,0,1-.276-.359l-5.921-10.35a1.652,1.652,0,0,1-.106-1.429c.584-1.476,2.138-4.592,4.941-4.889,3.687-.39,9.592-3.064,8.509-7.043-.859-3.155-3.855-6.814-7.7-6.813a6.767,6.767,0,0,0-3.158.822" transform="translate(-211.699 -1121.716)" fill="none"/>
    </clipPath>
    <linearGradient id="linear-gradient-5" x1="-0.483" y1="5.444" x2="-0.479" y2="5.444" xlink:href="#linear-gradient"/>
    <clipPath id="clip-path-14">
      <path id="Caminho_1932" data-name="Caminho 1932" d="M245.055,1273.261c-2.982.188-5.385,3.1-1.766,6.514,4.5,4.241,6.932.149,6.932.149s-2.126-6.666-5.045-6.667c-.04,0-.08,0-.121,0" transform="translate(-241.468 -1273.257)" fill="none"/>
    </clipPath>
    <clipPath id="clip-path-15">
      <path id="Caminho_1933" data-name="Caminho 1933" d="M501.373,254.059c-14.948,4.269-29.615,32.538-8.978,55.182,4.039,4.43,1.851,12.084-3.739,13.237L437.627,333l11.223,66.951c12.226-23.888,36.31-22.954,48.9-3.7,12.643,19.331,8.4,39.918-11.919,45.478-10.393,2.844-18.134-.024-23.2-3.468-2.648-1.8-5.89.6-5.326,3.962l9.059,54.037,50.424-8.575c5.593-.951,10.11,5.622,7.43,11.029a29.335,29.335,0,0,0-3.076,16.731c2.235,18.427,17.664,33.847,34.764,33.063,17.222-.79,32.157-21.183,26.645-38.376a80.564,80.564,0,0,0-10.912-21.1c-3.251-4.619-.909-11.186,4.3-12.074l60.537-10.3-9.021-53.81c-.757-4.516-5.825-6.419-8.955-3.36-5.267,5.15-13.928,10.2-27.128,8.832-25.092-2.6-27.777-26.457-25.042-38.933,2.308-10.526,23.8-26.522,42.623-16.657,3.995,2.093,8.5-1.489,7.713-6.208l-9.487-56.594L546.548,312.4c-5.278,1.086-9.762-4.251-8.275-9.9a70.164,70.164,0,0,0,1.927-24.17c-1.617-17.938-14.211-25.818-28.018-25.819a39.486,39.486,0,0,0-10.808,1.549" transform="translate(-437.627 -252.51)" fill="none"/>
    </clipPath>
    <clipPath id="clip-path-17">
      <path id="Caminho_1935" data-name="Caminho 1935" d="M606.071,1515.183a85.185,85.185,0,0,0,6.858,16.73c13.713-7.97,19.786-24.77,19.786-24.77l-3.692-3.419c-8.413,8.357-16.166,11.388-22.952,11.46" transform="translate(-606.071 -1503.723)" fill="none"/>
    </clipPath>
    <clipPath id="clip-path-18">
      <path id="Caminho_1936" data-name="Caminho 1936" d="M748.434,1451.265s-13.435.405-16.974,1.046c-2.94.532-1.75,4.682-1.262,6.073.1.284.17.452.17.452l1.828,2.11,16.854-2.4,13.84-11.414a2.37,2.37,0,0,0-.854-.126c-3.622,0-13.6,4.256-13.6,4.256" transform="translate(-729.543 -1447.009)" fill="none"/>
    </clipPath>
    <clipPath id="clip-path-19">
      <path id="Caminho_1938" data-name="Caminho 1938" d="M1630.455,64.421a8.27,8.27,0,0,0-6.2,12.434,53.791,53.791,0,0,1,7.44,24.053c1.3,21.931-27.07,29.328-36.211,30.723-8.261,1.26-42.047-11.759-23.895-49.952,2.637-5.549-1.429-11.86-7.314-11.345l-58.518,5.122,3.322,56.138a5.47,5.47,0,0,1-8.363,5.186c-17.7-11.693-40.86,1.489-44.3,11.479-4.08,11.839-3.99,35.362,20.745,40.676,13.013,2.8,22.2-1.155,28.006-5.583a5.378,5.378,0,0,1,8.564,4.265l3.159,53.377,60.371-3.244c5.993-.322,9.114-7.49,5.387-12.4-5.33-7.024-11.306-15.556-13.028-20.563-3.294-9.583.958-29.936,23.551-34.582,22.8-4.69,40.419,10.028,40.72,30.9a67.341,67.341,0,0,1-3.661,23.024,7.824,7.824,0,0,0,7.706,10.363l55.325-2.973-3.051-51.551a8.664,8.664,0,0,0-13.219-6.957,51.3,51.3,0,0,1-15.1,6.356c-32.3,7.59-30.36-33.87-14.549-51.588,8.089-9.065,18.413-7.02,26.621-2.811a8.836,8.836,0,0,0,12.782-8.507l-3.354-56.674Z" transform="translate(-1454.416 -59.787)" fill="none"/>
    </clipPath>
    <clipPath id="clip-path-20">
      <path id="Caminho_1937" data-name="Caminho 1937" d="M2332.225,1046.242s-27.761,35.543,3.912,71.693l11.908-1.11s-22.922-36.805-12.713-66.144l16.867,1.231,9.328-6.08Z" transform="translate(-2320.969 -1045.833)" fill="none"/>
    </clipPath>
    <linearGradient id="linear-gradient-6" x1="-3.735" y1="3.497" x2="-3.733" y2="3.497" gradientUnits="objectBoundingBox">
      <stop offset="0" stop-color="#febbba"/>
      <stop offset="1" stop-color="#ff928e"/>
    </linearGradient>
    <clipPath id="clip-path-21">
      <path id="Caminho_1939" data-name="Caminho 1939" d="M2494.825,2139.651s22.492,49.022,34.293,69.327c0,0,2.344,12.776,0,16.793l-2,.888,9.322-.278s.828-17.185.182-18.145a2.374,2.374,0,0,0-1.941-.9s-4-31.669-15.573-38.427l-11.219-38.641Z" transform="translate(-2494.825 -2130.272)" fill="none"/>
    </clipPath>
    <linearGradient id="linear-gradient-7" x1="-8.946" y1="1.044" x2="-8.942" y2="1.044" xlink:href="#linear-gradient-6"/>
    <clipPath id="clip-path-22">
      <path id="Caminho_1940" data-name="Caminho 1940" d="M2692.669,2642.389c.75,3.077,1.417,11.047-.478,11.976s-7.346,1.091-7.346,1.091-3.857.382-3.981,2.406c-.014.225,7.279.123,11.241.05a3.151,3.151,0,0,0,3.021-2.485l2.992-15.718a2.826,2.826,0,0,0-2.146-3.284l-1.67-.382s-2.383,3.268-1.633,6.345" transform="translate(-2680.863 -2636.044)" fill="none"/>
    </clipPath>
    <linearGradient id="linear-gradient-8" x1="-16.542" y1="1.11" x2="-16.536" y2="1.11" xlink:href="#linear-gradient"/>
    <clipPath id="clip-path-23">
      <path id="Caminho_1941" data-name="Caminho 1941" d="M2359.068,2731.849l-6.64,3.783a.823.823,0,0,0,.416,1.538c6.63-.067,21.486-.276,22.806-.825,1.7-.709-.621-6.833-3.069-8.906Z" transform="translate(-2352.01 -2727.439)" fill="none"/>
    </clipPath>
    <linearGradient id="linear-gradient-9" x1="-26.884" y1="0.681" x2="-26.872" y2="0.681" xlink:href="#linear-gradient"/>
    <clipPath id="clip-path-24">
      <path id="Caminho_1942" data-name="Caminho 1942" d="M2345.836,2255.387l-9.726,6.1s4.874-.829,8.489-1.091,6.94-4.411,6.94-4.411l-1.166-1.858s-3.645-69.932-2.757-77.873l-20.425-4.9s14.535,70.315,18.646,84.031" transform="translate(-2327.19 -2171.356)" fill="none"/>
    </clipPath>
    <linearGradient id="linear-gradient-10" x1="-14.547" y1="1.047" x2="-14.541" y2="1.047" xlink:href="#linear-gradient-6"/>
    <clipPath id="clip-path-25">
      <path id="Caminho_1943" data-name="Caminho 1943" d="M1983.756,958.737l-.844,3.371a11.5,11.5,0,0,0,2.446,10.3l6.408,7.434a5.807,5.807,0,0,1,1.415,3.915c-1.106,49.722,29.035,67.954,29.035,67.954l8.017-18.286c-33.3-18.691-31.3-55.268-31.3-55.268,3.347-2.968,3.472-5.637.654-8.034l-.223.958a2.283,2.283,0,0,1-2.514,1.784c-.867-.132-1.113-.718-1.877-2.426l-3.146-7.033a11.765,11.765,0,0,0-4.83-5.369l-.67-.389a1.746,1.746,0,0,0-2.574,1.087" transform="translate(-1982.569 -957.412)" fill="none"/>
    </clipPath>
    <linearGradient id="linear-gradient-11" x1="-3.489" y1="2.695" x2="-3.487" y2="2.695" xlink:href="#linear-gradient-6"/>
    <clipPath id="clip-path-26">
      <path id="Caminho_1944" data-name="Caminho 1944" d="M2241.25,1439.639l-5.744,17.574a3.208,3.208,0,0,0,1.271,3.667l1.178.784c-.858,2.547-1.984,5.195-.471,7.416,5.239,7.688,11.879,23.109,11.879,23.109l23.588.106-.575-6.659,7.234-40.826c-11.783.2-30.658-4.762-36.229-6.307a1.752,1.752,0,0,0-2.132,1.136" transform="translate(-2235.347 -1438.439)" fill="none"/>
    </clipPath>
    <linearGradient id="linear-gradient-12" x1="-5.155" y1="3.126" x2="-5.153" y2="3.126" gradientUnits="objectBoundingBox">
      <stop offset="0" stop-color="#4f52ff"/>
      <stop offset="1" stop-color="#4042e2"/>
    </linearGradient>
    <clipPath id="clip-path-27">
      <path id="Caminho_1945" data-name="Caminho 1945" d="M2305.488,1764.159l.464,4.034s-6.666,19.963,3.333,66.589c0,0,21.655,6.135,39.453-8.545,0,0-5.021-44.007-6.392-46.057-6.831-10.211-11.38-12.43-11.38-12.43l-.206-4.407s-19.036,3.442-25.272.817" transform="translate(-2303.775 -1763.342)" fill="none"/>
    </clipPath>
    <linearGradient id="linear-gradient-13" x1="-3.692" y1="1.795" x2="-3.69" y2="1.795" xlink:href="#linear-gradient"/>
    <clipPath id="clip-path-28">
      <path id="Caminho_1946" data-name="Caminho 1946" d="M2375.69,1376.268c3.658,4.828,14.9,2.559,14.9,2.559l-2.8-17.026-7.173-.651s-5.008,15.008-4.925,15.117" transform="translate(-2375.689 -1361.151)" fill="none"/>
    </clipPath>
    <linearGradient id="linear-gradient-14" x1="-24.129" y1="10.913" x2="-24.119" y2="10.913" xlink:href="#linear-gradient-6"/>
    <clipPath id="clip-path-29">
      <path id="Caminho_1947" data-name="Caminho 1947" d="M2373.791,1201.562c-.479.3-15.326,6.434-12.136,21.849a2.894,2.894,0,0,0,1.646,2.062,25.16,25.16,0,0,0,12.48,2.066c7.778-.791,12.875-14.364,12.658-18.314-.18-3.268-6.846-8.395-11.827-8.4a5.262,5.262,0,0,0-2.822.732" transform="translate(-2361.206 -1200.83)" fill="none"/>
    </clipPath>
    <linearGradient id="linear-gradient-15" x1="-12.202" y1="7.645" x2="-12.197" y2="7.645" xlink:href="#linear-gradient-6"/>
    <clipPath id="clip-path-30">
      <path id="Caminho_1948" data-name="Caminho 1948" d="M2390.9,1164.272c-.39.051-8.58,2.9-4.519,8.839s5.585,9.428,3.664,12.035c-1.75,2.374-5.627,1.021-5.289,5.961a2.772,2.772,0,0,1-1.181,2.5c-3.654,2.473-12.567,10.085-3.736,20.941a2.765,2.765,0,0,1,.312,3.094c-2.587,4.639-8.02,18.23,11.65,25.769,19.437,7.45,26.455-5.256,28.416-10.334a2.712,2.712,0,0,1,2.682-1.716c2.136.1,5.162-.254,5.023-3.108a7.129,7.129,0,0,0-2.444-4.533,2.708,2.708,0,0,1,.52-4.264,5.305,5.305,0,0,0,2.621-3.294c1.178-4.365-1.174-17.417-13.684-19.628a2.953,2.953,0,0,1-2.288-2.212c0-.016,0-.031-.007-.047a2.7,2.7,0,0,1,1-2.659c2-1.465,4.559-4.415,2.479-9.147a10.253,10.253,0,0,0-8.014-6.062,2.725,2.725,0,0,1-2.233-3.257c.777-3.656.279-9.239-10-9.239a38.506,38.506,0,0,0-4.981.358" transform="translate(-2376.062 -1163.915)" fill="none"/>
    </clipPath>
    <linearGradient id="linear-gradient-16" x1="-3.201" y1="2.519" x2="-3.199" y2="2.519" xlink:href="#linear-gradient"/>
  </defs>
  <g id="about-us-art2" transform="translate(55 -4)">
    <g id="Grupo_292" data-name="Grupo 292" transform="translate(-55 4)" clip-path="url(#clip-path)">
      <g id="Grupo_237" data-name="Grupo 237" transform="translate(0 -0.001)">
        <g id="Grupo_236" data-name="Grupo 236" clip-path="url(#clip-path-2)">
          <g id="Grupo_235" data-name="Grupo 235" transform="translate(215.981 157.49)" opacity="0.7">
            <g id="Grupo_234" data-name="Grupo 234">
              <g id="Grupo_233" data-name="Grupo 233" clip-path="url(#clip-path-3)">
                <path id="Caminho_1920" data-name="Caminho 1920" d="M1297.792,909.125a2.883,2.883,0,0,0-3.609-.937l-15.31,7.154-5.315-15.143a3.248,3.248,0,0,0-1.862-1.873,3.783,3.783,0,0,0-4.7,1.45l-.027.049-12.591,22.957L1242.69,890.1l-.019-.054a3.733,3.733,0,0,0-1.769-1.994,4.586,4.586,0,0,0-5.781,1.139l-17.6,24.232a2.122,2.122,0,0,0,.62,3.058,2.951,2.951,0,0,0,3.743-.407l15.5-17.289,13.954,31.089.011.024a2.468,2.468,0,0,0,1.229,1.2,2.917,2.917,0,0,0,3.651-.945l13.466-21.609,5.068,10.93.045.1a2.161,2.161,0,0,0,.126.232,2.881,2.881,0,0,0,3.606.936l18.174-8.492a2.162,2.162,0,0,0,1.081-3.129" transform="translate(-1217.112 -887.493)" fill="#fff"/>
              </g>
            </g>
          </g>
        </g>
      </g>
      <g id="Grupo_239" data-name="Grupo 239" transform="translate(6.527 479.152)">
        <g id="Grupo_238" data-name="Grupo 238" clip-path="url(#clip-path-4)">
          <rect id="Retângulo_51" data-name="Retângulo 51" width="19.717" height="15.517" transform="translate(-0.048)" fill="url(#linear-gradient)"/>
        </g>
      </g>
      <g id="Grupo_241" data-name="Grupo 241" transform="translate(8.506 472.667)">
        <g id="Grupo_240" data-name="Grupo 240" clip-path="url(#clip-path-5)">
          <rect id="Retângulo_52" data-name="Retângulo 52" width="7.91" height="10.44" transform="translate(0 0)" fill="#a75956"/>
        </g>
      </g>
      <g id="Grupo_243" data-name="Grupo 243" transform="translate(48.002 479.152)">
        <g id="Grupo_242" data-name="Grupo 242" clip-path="url(#clip-path-6)">
          <rect id="Retângulo_53" data-name="Retângulo 53" width="31.138" height="14.893" transform="translate(-0.068)" fill="url(#linear-gradient-2)"/>
        </g>
      </g>
      <g id="Grupo_245" data-name="Grupo 245" transform="translate(48.467 466.615)">
        <g id="Grupo_244" data-name="Grupo 244" clip-path="url(#clip-path-7)">
          <path id="Caminho_3579" data-name="Caminho 3579" d="M0,0H7.995V15.641H0Z" transform="translate(0 0)" fill="#a75956"/>
        </g>
      </g>
      <g id="Grupo_247" data-name="Grupo 247" transform="translate(3.591 332.442)">
        <g id="Grupo_246" data-name="Grupo 246" clip-path="url(#clip-path-8)">
          <rect id="Retângulo_55" data-name="Retângulo 55" width="54.741" height="145.107" transform="translate(-1.115)" fill="url(#linear-gradient-3)"/>
        </g>
      </g>
      <g id="Grupo_249" data-name="Grupo 249" transform="translate(0 -0.001)">
        <g id="Grupo_248" data-name="Grupo 248" clip-path="url(#clip-path-2)">
          <path id="Caminho_1926" data-name="Caminho 1926" d="M97.7,2031.9a.771.771,0,0,1-.746-.577l-2.944-11.293-6.271-4.022a.772.772,0,1,1,.833-1.3L95.1,2018.9a.771.771,0,0,1,.33.455l3.019,11.585a.771.771,0,0,1-.552.941.76.76,0,0,1-.2.025" transform="translate(-71.88 -1657.091)" fill="#7d97f4"/>
          <path id="Caminho_1927" data-name="Caminho 1927" d="M211.913,1373.625c-29.89,2.922-36.476,10.417-36.476,10.417l18.221,19.76s28.828-5.844,46.648-25.6a51.43,51.43,0,0,1-10.561-10.879,39.627,39.627,0,0,1-17.832,6.3" transform="translate(-144.305 -1124.685)" fill="#91b3fa"/>
        </g>
      </g>
      <g id="Grupo_251" data-name="Grupo 251" transform="translate(85.44 196.6)">
        <g id="Grupo_250" data-name="Grupo 250" clip-path="url(#clip-path-10)">
          <rect id="Retângulo_57" data-name="Retângulo 57" width="36.003" height="60.696" transform="translate(-10.04 1.83) rotate(-10.329)" fill="#a75956"/>
        </g>
      </g>
      <g id="Grupo_253" data-name="Grupo 253" transform="translate(41.868 226.027)">
        <g id="Grupo_252" data-name="Grupo 252" clip-path="url(#clip-path-11)">
          <rect id="Retângulo_58" data-name="Retângulo 58" width="33.27" height="28.182" transform="translate(-8.417 25.557) rotate(-71.772)" fill="#a75956"/>
        </g>
      </g>
      <g id="Grupo_255" data-name="Grupo 255" transform="translate(44.571 207.769)">
        <g id="Grupo_254" data-name="Grupo 254" clip-path="url(#clip-path-12)">
          <rect id="Retângulo_59" data-name="Retângulo 59" width="28.785" height="31.285" transform="translate(-4.061 0.604) rotate(-8.457)" fill="url(#linear-gradient-4)"/>
        </g>
      </g>
      <g id="Grupo_257" data-name="Grupo 257" transform="translate(37.567 199.053)">
        <g id="Grupo_256" data-name="Grupo 256" clip-path="url(#clip-path-13)">
          <rect id="Retângulo_60" data-name="Retângulo 60" width="55.729" height="55.651" transform="matrix(0.7, -0.714, 0.714, 0.7, -22.185, 21.548)" fill="url(#linear-gradient-5)"/>
        </g>
      </g>
      <g id="Grupo_259" data-name="Grupo 259" transform="translate(42.849 225.945)">
        <g id="Grupo_258" data-name="Grupo 258" clip-path="url(#clip-path-14)">
          <path id="Caminho_3576" data-name="Caminho 3576" d="M0,0H10.788V10.992H0Z" transform="translate(-2.038 0.005) rotate(-1.277)" fill="#a75956"/>
        </g>
      </g>
      <g id="Grupo_261" data-name="Grupo 261" transform="translate(85.44 23.04)">
        <g id="Grupo_260" data-name="Grupo 260" clip-path="url(#clip-path-15)">
          <path id="Caminho_1951" data-name="Caminho 1951" d="M2.567,2.989,353.785,0l-2.567,296.512L0,299.5Z" transform="translate(-107.077 253.608) rotate(-67.249)" fill="#41a5e6"/>
        </g>
      </g>
      <g id="Grupo_263" data-name="Grupo 263" transform="translate(0 -0.001)">
        <g id="Grupo_262" data-name="Grupo 262" clip-path="url(#clip-path-2)">
          <path id="Caminho_1934" data-name="Caminho 1934" d="M120.772,1416.187c-12.4-9.281-33.065-10.729-44.874-10.718a10.659,10.659,0,0,0-10.508,8.785c-2.624,14.766-10.059,53.294-11.644,59.971-1.3,5.479-2.721,10.856-3.632,14.223a3.78,3.78,0,0,0,2.638,4.639c10.463,2.883,28.724,4.974,36.113,5.742a2.446,2.446,0,0,0,2.658-2.877,7.645,7.645,0,0,1,.367-4.066l18.5-49.122c19.908,15.345,34.718,14.381,45.127,8.331a85.2,85.2,0,0,1-6.859-16.73c-16.974.18-27.889-18.177-27.889-18.177" transform="translate(-41.112 -1156.062)" fill="#7d97f4"/>
        </g>
      </g>
      <g id="Grupo_265" data-name="Grupo 265" transform="translate(107.55 266.842)">
        <g id="Grupo_264" data-name="Grupo 264" clip-path="url(#clip-path-17)">
          <path id="Caminho_3577" data-name="Caminho 3577" d="M0,0H31.873V30.578H0Z" transform="matrix(0.15, -0.989, 0.989, 0.15, -4.187, 27.553)" fill="#a75956"/>
        </g>
      </g>
      <g id="Grupo_267" data-name="Grupo 267" transform="translate(129.46 256.778)">
        <g id="Grupo_266" data-name="Grupo 266" clip-path="url(#clip-path-18)">
          <path id="Caminho_3578" data-name="Caminho 3578" d="M0,0H18.943V36.073H0Z" transform="translate(-3.094 13.622) rotate(-81.359)" fill="#a75956"/>
        </g>
      </g>
      <g id="Grupo_271" data-name="Grupo 271" transform="translate(258.092 10.609)">
        <g id="Grupo_270" data-name="Grupo 270" transform="translate(-13.765 38.887) rotate(2)" clip-path="url(#clip-path-19)">
          <path id="Caminho_1949" data-name="Caminho 1949" d="M0,0H246.768V285.118H0Z" transform="matrix(0.309, -0.951, 0.951, 0.309, -55.32, 163.917)" fill="#4d519d"/>
        </g>
      </g>
      <g id="woman">
        <g id="Grupo_269" data-name="Grupo 269" transform="translate(399.573 229.515)">
          <g id="Grupo_268" data-name="Grupo 268" transform="translate(0 0)" clip-path="url(#clip-path-20)">
            <rect id="Retângulo_66" data-name="Retângulo 66" width="86.245" height="76.612" transform="matrix(0.31, -0.951, 0.951, 0.31, -37.765, 65.166)" fill="url(#linear-gradient-6)"/>
          </g>
        </g>
        <g id="Grupo_273" data-name="Grupo 273" transform="translate(426.033 394.563)">
          <g id="Grupo_272" data-name="Grupo 272" transform="translate(0 0)" clip-path="url(#clip-path-21)">
            <rect id="Retângulo_68" data-name="Retângulo 68" width="42.446" height="96.388" fill="url(#linear-gradient-7)"/>
          </g>
        </g>
        <g id="Grupo_275" data-name="Grupo 275" transform="translate(454.347 471.539)">
          <g id="Grupo_274" data-name="Grupo 274" transform="translate(0 0)" clip-path="url(#clip-path-22)">
            <rect id="Retângulo_69" data-name="Retângulo 69" width="24.456" height="20.701" transform="translate(-3.327 21.533) rotate(-81.254)" fill="url(#linear-gradient-8)"/>
          </g>
        </g>
        <g id="Grupo_277" data-name="Grupo 277" transform="translate(404.297 485.449)">
          <g id="Grupo_276" data-name="Grupo 276" transform="translate(0 0)" clip-path="url(#clip-path-23)">
            <rect id="Retângulo_70" data-name="Retângulo 70" width="13.529" height="26.846" transform="matrix(0.152, -0.988, 0.988, 0.152, -1.784, 9.515)" fill="url(#linear-gradient-9)"/>
          </g>
        </g>
        <g id="Grupo_279" data-name="Grupo 279" transform="translate(400.52 400.815)">
          <g id="Grupo_278" data-name="Grupo 278" transform="translate(0 0)" clip-path="url(#clip-path-24)">
            <rect id="Retângulo_71" data-name="Retângulo 71" width="24.348" height="90.135" transform="translate(0)" fill="url(#linear-gradient-10)"/>
          </g>
        </g>
        <g id="Grupo_281" data-name="Grupo 281" transform="translate(348.07 216.058)">
          <g id="Grupo_280" data-name="Grupo 280" transform="translate(0 0)" clip-path="url(#clip-path-25)">
            <rect id="Retângulo_72" data-name="Retângulo 72" width="81.54" height="105.682" transform="matrix(0.919, -0.395, 0.395, 0.919, -34.768, 14.697)" fill="url(#linear-gradient-11)"/>
          </g>
        </g>
        <g id="Grupo_283" data-name="Grupo 283" transform="translate(386.542 289.268)">
          <g id="Grupo_282" data-name="Grupo 282" transform="translate(0 0)" clip-path="url(#clip-path-26)">
            <rect id="Retângulo_73" data-name="Retângulo 73" width="64.044" height="68.156" transform="translate(-21.957 10.94) rotate(-26.789)" fill="url(#linear-gradient-12)"/>
          </g>
        </g>
        <g id="Grupo_285" data-name="Grupo 285" transform="translate(396.956 338.717)">
          <g id="Grupo_284" data-name="Grupo 284" transform="translate(0 0)" clip-path="url(#clip-path-27)">
            <rect id="Retângulo_74" data-name="Retângulo 74" width="88.468" height="90.852" transform="matrix(0.748, -0.663, 0.663, 0.748, -42.998, 34.145)" fill="url(#linear-gradient-13)"/>
          </g>
        </g>
        <g id="Grupo_287" data-name="Grupo 287" transform="translate(407.901 277.505)">
          <g id="Grupo_286" data-name="Grupo 286" transform="translate(0 0)" clip-path="url(#clip-path-28)">
            <rect id="Retângulo_75" data-name="Retângulo 75" width="14.981" height="19.946" transform="translate(-0.082)" fill="url(#linear-gradient-14)"/>
          </g>
        </g>
        <g id="Grupo_289" data-name="Grupo 289" transform="translate(405.697 253.105)">
          <g id="Grupo_288" data-name="Grupo 288" transform="translate(0 0)" clip-path="url(#clip-path-29)">
            <rect id="Retângulo_76" data-name="Retângulo 76" width="29.265" height="31.973" transform="matrix(0.068, -0.998, 0.998, 0.068, -4.588, 27.154)" fill="url(#linear-gradient-15)"/>
          </g>
        </g>
        <g id="Grupo_291" data-name="Grupo 291" transform="translate(407.958 247.487)">
          <g id="Grupo_290" data-name="Grupo 290" transform="translate(0 0)" clip-path="url(#clip-path-30)">
            <rect id="Retângulo_77" data-name="Retângulo 77" width="104.298" height="101.17" transform="translate(-47.987 50.283) rotate(-49.505)" fill="url(#linear-gradient-16)"/>
          </g>
        </g>
      </g>
    </g>
  </g>
</svg>
