<svg xmlns="http://www.w3.org/2000/svg" width="45.309" height="45.331" viewBox="0 0 45.309 45.331">
  <g id="Grupo_183" data-name="Grupo 183" transform="translate(-426.345 -2282.334)">
    <g id="accounting" transform="translate(426.345 2282.334)">
      <path id="Caminho_1612" data-name="Caminho 1612" d="M20.989,37.2a7.555,7.555,0,1,0,7.555,7.555A7.555,7.555,0,0,0,20.989,37.2Zm0,13.6a6.044,6.044,0,1,1,6.044-6.044A6.044,6.044,0,0,1,20.989,50.8Zm0,0" transform="translate(-3.612 -10.001)" fill="#4d9fd5"/>
      <path id="Caminho_1613" data-name="Caminho 1613" d="M22.655,43.6c.923,0,1.511.447,1.511.756h1.511a2.466,2.466,0,0,0-2.267-2.191v-.831H21.9v.831a2.463,2.463,0,0,0-2.267,2.191c0,1.272,1.327,2.267,3.022,2.267.923,0,1.511.447,1.511.756s-.588.756-1.511.756-1.511-.447-1.511-.756H19.633A2.466,2.466,0,0,0,21.9,49.568V50.4h1.511v-.831a2.463,2.463,0,0,0,2.267-2.191c0-1.272-1.327-2.267-3.022-2.267-.923,0-1.511-.447-1.511-.756S21.733,43.6,22.655,43.6Zm0,0" transform="translate(-5.278 -11.113)" fill="#4d9fd5"/>
      <path id="Caminho_1614" data-name="Caminho 1614" d="M38.531,43.82H6.8V25.688H18.888a2.267,2.267,0,0,0,2.267-2.267V4.533h8.311V13.6h9.066V24.177h1.511V12.531L30.534,3.022H21.154V2.266A2.267,2.267,0,0,0,18.888,0H2.266A2.267,2.267,0,0,0,0,2.266V23.421a2.267,2.267,0,0,0,2.267,2.267H5.289V45.331H40.042V34.754H38.531ZM30.976,5.6l6.487,6.487H30.976ZM1.511,23.421V2.267a.756.756,0,0,1,.756-.756H18.888a.756.756,0,0,1,.756.756V23.421a.756.756,0,0,1-.756.756H2.267A.756.756,0,0,1,1.511,23.421Zm0,0" transform="translate(0 0)" fill="#4d9fd5"/>
      <path id="Caminho_1615" data-name="Caminho 1615" d="M33.067,25.833h1.511v1.511H33.067Zm0,0" transform="translate(-8.89 -6.945)" fill="#4d9fd5"/>
      <path id="Caminho_1616" data-name="Caminho 1616" d="M37.2,25.833h9.066v1.511H37.2Zm0,0" transform="translate(-10.001 -6.945)" fill="#4d9fd5"/>
      <path id="Caminho_1617" data-name="Caminho 1617" d="M33.067,21.7h1.511v1.511H33.067Zm0,0" transform="translate(-8.89 -5.834)" fill="#4d9fd5"/>
      <path id="Caminho_1618" data-name="Caminho 1618" d="M37.2,21.7h9.066v1.511H37.2Zm0,0" transform="translate(-10.001 -5.834)" fill="#4d9fd5"/>
      <path id="Caminho_1619" data-name="Caminho 1619" d="M33.067,29.967h1.511v1.511H33.067Zm0,0" transform="translate(-8.89 -8.057)" fill="#4d9fd5"/>
      <path id="Caminho_1620" data-name="Caminho 1620" d="M37.2,29.967h9.066v1.511H37.2Zm0,0" transform="translate(-10.001 -8.057)" fill="#4d9fd5"/>
      <path id="Caminho_1621" data-name="Caminho 1621" d="M33.067,34.1h1.511v1.511H33.067Zm0,0" transform="translate(-8.89 -9.168)" fill="#4d9fd5"/>
      <path id="Caminho_1622" data-name="Caminho 1622" d="M37.2,34.1h9.066v1.511H37.2Zm0,0" transform="translate(-10.001 -9.168)" fill="#4d9fd5"/>
      <path id="Caminho_1623" data-name="Caminho 1623" d="M19.721,3.1H3.1V8.389H19.721ZM18.21,6.878H4.611V4.611h13.6Zm0,0" transform="translate(-0.833 -0.833)" fill="#4d9fd5"/>
      <path id="Caminho_1624" data-name="Caminho 1624" d="M7.155,11.367H5.644a1.511,1.511,0,0,0-1.511,1.511v1.511A1.511,1.511,0,0,0,5.644,15.9H7.155a1.511,1.511,0,0,0,1.511-1.511V12.878A1.511,1.511,0,0,0,7.155,11.367ZM5.644,14.389V12.878H7.155v1.511Zm0,0" transform="translate(-1.111 -3.056)" fill="#4d9fd5"/>
      <path id="Caminho_1625" data-name="Caminho 1625" d="M14.389,11.367H12.878a1.511,1.511,0,0,0-1.511,1.511v1.511A1.511,1.511,0,0,0,12.878,15.9h1.511A1.511,1.511,0,0,0,15.9,14.389V12.878A1.511,1.511,0,0,0,14.389,11.367Zm-1.511,3.022V12.878h1.511v1.511Zm0,0" transform="translate(-3.056 -3.056)" fill="#4d9fd5"/>
      <path id="Caminho_1626" data-name="Caminho 1626" d="M21.622,11.367H20.111A1.511,1.511,0,0,0,18.6,12.878v1.511A1.511,1.511,0,0,0,20.111,15.9h1.511a1.511,1.511,0,0,0,1.511-1.511V12.878A1.511,1.511,0,0,0,21.622,11.367Zm-1.511,3.022V12.878h1.511v1.511Zm0,0" transform="translate(-5.001 -3.056)" fill="#4d9fd5"/>
      <path id="Caminho_1627" data-name="Caminho 1627" d="M7.155,18.6H5.644a1.511,1.511,0,0,0-1.511,1.511v1.511a1.511,1.511,0,0,0,1.511,1.511H7.155a1.511,1.511,0,0,0,1.511-1.511V20.111A1.511,1.511,0,0,0,7.155,18.6ZM5.644,21.622V20.111H7.155v1.511Zm0,0" transform="translate(-1.111 -5.001)" fill="#4d9fd5"/>
      <path id="Caminho_1628" data-name="Caminho 1628" d="M14.389,18.6H12.878a1.511,1.511,0,0,0-1.511,1.511v1.511a1.511,1.511,0,0,0,1.511,1.511h1.511A1.511,1.511,0,0,0,15.9,21.622V20.111A1.511,1.511,0,0,0,14.389,18.6Zm-1.511,3.022V20.111h1.511v1.511Zm0,0" transform="translate(-3.056 -5.001)" fill="#4d9fd5"/>
      <path id="Caminho_1629" data-name="Caminho 1629" d="M21.622,18.6H20.111A1.511,1.511,0,0,0,18.6,20.111v1.511a1.511,1.511,0,0,0,1.511,1.511h1.511a1.511,1.511,0,0,0,1.511-1.511V20.111A1.511,1.511,0,0,0,21.622,18.6Zm-1.511,3.022V20.111h1.511v1.511Zm0,0" transform="translate(-5.001 -5.001)" fill="#4d9fd5"/>
      <path id="Caminho_1630" data-name="Caminho 1630" d="M7.155,25.833H5.644a1.511,1.511,0,0,0-1.511,1.511v1.511a1.511,1.511,0,0,0,1.511,1.511H7.155a1.511,1.511,0,0,0,1.511-1.511V27.344A1.511,1.511,0,0,0,7.155,25.833ZM5.644,28.855V27.344H7.155v1.511Zm0,0" transform="translate(-1.111 -6.945)" fill="#4d9fd5"/>
      <path id="Caminho_1631" data-name="Caminho 1631" d="M14.389,25.833H12.878a1.511,1.511,0,0,0-1.511,1.511v1.511a1.511,1.511,0,0,0,1.511,1.511h1.511A1.511,1.511,0,0,0,15.9,28.855V27.344A1.511,1.511,0,0,0,14.389,25.833Zm-1.511,3.022V27.344h1.511v1.511Zm0,0" transform="translate(-3.056 -6.945)" fill="#4d9fd5"/>
      <path id="Caminho_1632" data-name="Caminho 1632" d="M21.622,25.833H20.111A1.511,1.511,0,0,0,18.6,27.344v1.511a1.511,1.511,0,0,0,1.511,1.511h1.511a1.511,1.511,0,0,0,1.511-1.511V27.344A1.511,1.511,0,0,0,21.622,25.833Zm-1.511,3.022V27.344h1.511v1.511Zm0,0" transform="translate(-5.001 -6.945)" fill="#4d9fd5"/>
      <path id="Caminho_1633" data-name="Caminho 1633" d="M54.369,32.736a2.32,2.32,0,0,0-3.2,0L38.212,45.687a.764.764,0,0,0-.151.218l-1.824,3.961a.756.756,0,0,0,1,1L41.2,49.044a.757.757,0,0,0,.218-.151L54.369,35.941a2.266,2.266,0,0,0,0-3.205ZM40.444,47.728l-1.98.912.912-1.98L49.033,37,50.1,38.071ZM51.172,37,50.1,35.932l.529-.529L51.7,36.471Zm2.131-2.13-.534.534L51.7,34.335l.535-.534a.772.772,0,0,1,1.068,0A.756.756,0,0,1,53.3,34.869Zm0,0" transform="translate(-9.724 -8.628)" fill="#4d9fd5"/>
    </g>
  </g>
</svg>
