<svg xmlns="http://www.w3.org/2000/svg" xmlns:xlink="http://www.w3.org/1999/xlink" width="513.278" height="404.447" viewBox="0 0 513.278 404.447">
  <defs>
    <linearGradient id="act-2-linear-gradient" x1="-0.237" y1="-0.332" x2="1.008" y2="1.074" gradientUnits="objectBoundingBox">
      <stop offset="0" stop-color="#a737d5"/>
      <stop offset="1" stop-color="#ef497a"/>
    </linearGradient>
    <linearGradient id="act-2-linear-gradient-2" x1="0.113" y1="0.059" x2="2.31" y2="2.564" xlink:href="#act-2-linear-gradient"/>
    <linearGradient id="act-2-linear-gradient-3" x1="-0.626" y1="0.932" x2="-0.403" y2="-0.163" gradientUnits="objectBoundingBox">
      <stop offset="0" stop-color="#2b3582"/>
      <stop offset="1" stop-color="#150e42"/>
    </linearGradient>
    <linearGradient id="act-2-linear-gradient-4" x1="0.721" y1="0.176" x2="-0.127" y2="1.423" gradientUnits="objectBoundingBox">
      <stop offset="0" stop-color="#53d8ff"/>
      <stop offset="1" stop-color="#3840f7"/>
    </linearGradient>
    <linearGradient id="act-2-linear-gradient-5" x1="-0.039" y1="-1.659" x2="-0.932" y2="3.409" xlink:href="#act-2-linear-gradient-3"/>
    <linearGradient id="act-2-linear-gradient-6" x1="1.119" y1="0.006" x2="-0.07" y2="1.028" gradientUnits="objectBoundingBox">
      <stop offset="0" stop-color="#fdf53f"/>
      <stop offset="1" stop-color="#d93c65"/>
    </linearGradient>
    <linearGradient id="act-2-linear-gradient-7" x1="0.723" y1="0.905" x2="0.05" y2="-0.057" xlink:href="#act-2-linear-gradient-6"/>
    <linearGradient id="act-2-linear-gradient-8" x1="1.022" y1="0.491" x2="-0.11" y2="0.51" xlink:href="#act-2-linear-gradient-6"/>
    <linearGradient id="act-2-linear-gradient-9" x1="0.913" y1="1.069" x2="-0.326" y2="-0.476" gradientUnits="objectBoundingBox">
      <stop offset="0" stop-color="#fdf53f"/>
      <stop offset="0.28" stop-color="#f3c14a"/>
      <stop offset="1" stop-color="#d93c65"/>
    </linearGradient>
    <linearGradient id="act-2-linear-gradient-10" x1="-20.564" y1="-0.346" x2="-20.2" y2="0.297" xlink:href="#act-2-linear-gradient-3"/>
    <linearGradient id="act-2-linear-gradient-11" x1="0.081" y1="0.915" x2="1.174" y2="-0.248" gradientUnits="objectBoundingBox">
      <stop offset="0" stop-color="#f9b776"/>
      <stop offset="1" stop-color="#f47960"/>
    </linearGradient>
    <linearGradient id="act-2-linear-gradient-12" x1="-60.485" y1="10.775" x2="-60.054" y2="3.4" gradientUnits="objectBoundingBox">
      <stop offset="0" stop-color="#ce1567"/>
      <stop offset="1" stop-color="#7a1dbc"/>
    </linearGradient>
    <linearGradient id="act-2-linear-gradient-13" x1="-49.396" y1="1.602" x2="-48.361" y2="-1.187" xlink:href="#act-2-linear-gradient-11"/>
    <linearGradient id="act-2-linear-gradient-14" x1="-42.551" y1="7.414" x2="-42.284" y2="2.382" xlink:href="#act-2-linear-gradient-12"/>
    <linearGradient id="act-2-linear-gradient-15" x1="-19.943" y1="1.698" x2="-19.48" y2="-1.193" xlink:href="#act-2-linear-gradient-11"/>
    <linearGradient id="act-2-linear-gradient-16" x1="2.48" y1="-0.732" x2="-0.78" y2="1.32" gradientUnits="objectBoundingBox">
      <stop offset="0" stop-color="#cb236d"/>
      <stop offset="1" stop-color="#4c246d"/>
    </linearGradient>
    <linearGradient id="act-2-linear-gradient-17" x1="1.612" y1="-0.223" x2="-2.817" y2="2.994" xlink:href="#act-2-linear-gradient-3"/>
    <linearGradient id="act-2-linear-gradient-18" x1="0.5" y1="3.497" x2="0.5" y2="-0.165" xlink:href="#act-2-linear-gradient-11"/>
    <linearGradient id="act-2-linear-gradient-19" x1="1.187" y1="0.463" x2="6.087" y2="-0.004" xlink:href="#act-2-linear-gradient-11"/>
    <linearGradient id="act-2-linear-gradient-20" x1="0.612" y1="0.987" x2="0.2" y2="-0.434" xlink:href="#act-2-linear-gradient-11"/>
    <linearGradient id="act-2-linear-gradient-21" x1="-37.532" y1="-3.602" x2="-36.901" y2="-2.199" xlink:href="#act-2-linear-gradient-3"/>
    <linearGradient id="act-2-linear-gradient-22" x1="1.073" y1="2.121" x2="-0.481" y2="-2.38" xlink:href="#act-2-linear-gradient-11"/>
    <linearGradient id="act-2-linear-gradient-23" x1="-2.209" y1="3.281" x2="0.939" y2="0.037" xlink:href="#act-2-linear-gradient-11"/>
    <linearGradient id="act-2-linear-gradient-24" x1="1.267" y1="-3.239" x2="-1.429" y2="9.375" xlink:href="#act-2-linear-gradient-11"/>
  </defs>
  <g id="Arte-Como-Trabalhamos-2" transform="translate(-425.398 -531.047)">
    <g id="Illustration" transform="translate(416.829 454.996)">
      <path id="Caminho-ACT-2_1342" data-name="Caminho-ACT-2 1342" d="M3129.862,1504.638a.776.776,0,0,1-.014.834c-.563.844-1.155,1.691-1.757,2.515a.75.75,0,0,1-1.065.149c-.827-.618.027-1.259,1.554-3.543a.747.747,0,0,1,1.056-.192A.819.819,0,0,1,3129.862,1504.638Z" transform="translate(-2635.061 -1313.897)" fill="#eac4f9"/>
      <path id="Caminho-ACT-2_1347" data-name="Caminho-ACT-2 1347" d="M3205.552,1239.655c.225,2.678.462,3.87-.53,3.894-1.034.025-.758-1.052-.987-3.8a.75.75,0,0,1,.695-.818A.782.782,0,0,1,3205.552,1239.655Z" transform="translate(-2698.359 -1096.706)" fill="#eac4f9"/>
      <g id="catraca-act-2" transform="translate(841.416 347.937) rotate(-173)">
        <path id="Caminho-ACT-2_1348" data-name="Caminho-ACT-2 1348" d="M2590.931,1013.54l-9.487-5.691a49.115,49.115,0,0,0-3.122-15.336c6.183-8.6,7.227-8.768,6.567-9.762l-7.371-11.114a.907.907,0,0,0-.978-.385l-10.548,2.672a48.95,48.95,0,0,0-12.9-8.823l-1.563-10.969a.927.927,0,0,0-.726-.776l-12.881-2.749a.873.873,0,0,0-.947.421l-5.443,9.472a46.671,46.671,0,0,0-15.115,2.845l-8.752-6.791a.894.894,0,0,0-1.043-.045l-10.85,7.226a.9.9,0,0,0-.362.98l2.859,10.717a46.853,46.853,0,0,0-8.471,12.861c-10.541,1.549-11.359.918-11.577,2.07-2.19,12.762-3.062,13.311-2.024,13.934l9.486,5.692a49.235,49.235,0,0,0,3.122,15.336c-6.179,8.6-7.226,8.769-6.567,9.763,7.515,10.916,7.217,11.793,8.346,11.5l10.547-2.674a48.948,48.948,0,0,0,12.9,8.824c1.725,10.556,1.122,11.5,2.284,11.744,12.8,2.5,13.244,3.353,13.832,2.329l5.442-9.474a46.663,46.663,0,0,0,15.115-2.845c8.488,6.312,8.806,7.5,9.8,6.836,10.606-7.34,11.522-7.047,11.213-8.206l-2.858-10.717a46.874,46.874,0,0,0,8.47-12.859c10.506-1.546,11.356-.907,11.578-2.072C2591.1,1014.7,2591.971,1014.16,2590.931,1013.54Z" transform="translate(-2102.215 -860.673)" fill="url(#act-2-linear-gradient)"/>
        <path id="Caminho-ACT-2_1349" data-name="Caminho-ACT-2 1349" d="M2746.255,1222.6a12.681,12.681,0,0,1-18.056.7,13.069,13.069,0,0,1-1.061-18.266,12.683,12.683,0,0,1,18.058-.7h0A13.07,13.07,0,0,1,2746.255,1222.6Zm-1.814-17.417Zm-14.723,16.416a10.4,10.4,0,0,0,14.831-.577,10.732,10.732,0,0,0-.871-15,10.419,10.419,0,0,0-14.831.575A10.741,10.741,0,0,0,2729.717,1221.6Z" transform="translate(-2305.346 -1065.569)" fill="#fff"/>
        <path id="Caminho-ACT-2_1350" data-name="Caminho-ACT-2 1350" d="M2672.55,1105.412h0a34.286,34.286,0,0,1,2.561,5.136,1.144,1.144,0,0,1-.453,1.4,1.312,1.312,0,0,1-.181.088,1.163,1.163,0,0,1-1.489-.668,32.056,32.056,0,0,0-3.064-5.853h0c-9.218-13.9-27.524-18.1-41.33-9.71-.364.214-.7.435-1.049.666-14,9.323-17.527,28.422-8.09,42.655s28.414,18.337,42.38,9.044c8.311-5.535,10.069-12.237,10.96-12.778a1.162,1.162,0,0,1,1.633,1.5,32.054,32.054,0,0,1-12.444,13.934c-24.182,14.7-54.852-7.238-49.515-35.378a32,32,0,0,1,13.789-20.911q.56-.372,1.135-.726a31.968,31.968,0,0,1,23.442-3.911,33.455,33.455,0,0,1,20.978,14.356C2672.069,1104.638,2672.316,1105.023,2672.55,1105.412Z" transform="translate(-2213.62 -974.114)" fill="#fff"/>
      </g>
      <g id="catraca-act-2-2" data-name="catraca-act-2" transform="matrix(0.966, 0.259, -0.259, 0.966, 59.456, -86.73)">
        <path id="Caminho-ACT-2_1351" data-name="Caminho-ACT-2 1351" d="M66.957,33.38a30.163,30.163,0,0,0-2.646-9.425l3.756-5.824c.407-.646-.295-.768-5.171-7.2-.458-.584-.763,0-7.181,2.085A30.231,30.231,0,0,0,47.181,8.22L45.719,1.441C45.554.688,44.967,1.105,36.965,0a.568.568,0,0,0-.58.315l-3,6.241A30.171,30.171,0,0,0,23.959,9.2c-5.641-3.473-5.891-4.192-6.486-3.725-6.388,5.2-6.972,5.067-6.728,5.774l2.272,6.548a30.2,30.2,0,0,0-4.794,8.534L1.445,27.789c-.751.163-.333.751-1.437,8.754-.09.734.519.523,6.557,3.607a30.239,30.239,0,0,0,2.646,9.426L5.453,55.4c-.407.647.3.768,5.171,7.2.456.582.731,0,7.182-2.084A30.23,30.23,0,0,0,26.321,65.3l1.464,6.779a.572.572,0,0,0,.488.446l8.26.991a.568.568,0,0,0,.579-.318l3.028-6.24a30.261,30.261,0,0,0,9.425-2.646c5.641,3.473,5.89,4.193,6.484,3.725,6.386-5.2,6.974-5.065,6.727-5.773L60.5,55.733A30.157,30.157,0,0,0,65.3,47.2c6.445-1.533,7.135-1.2,7.225-1.952l.991-8.259C73.6,36.248,72.965,36.449,66.957,33.38Z" transform="translate(380.664 140.379) rotate(151)" fill="url(#act-2-linear-gradient-2)"/>
        <path id="Caminho-ACT-2_1352" data-name="Caminho-ACT-2 1352" d="M15.551,13.986A8.68,8.68,0,1,1,13.986,1.81h0A8.69,8.69,0,0,1,15.551,13.986ZM13.2,2.834ZM13.5,12.4a6.106,6.106,0,0,0-1.1-8.55h0A6.1,6.1,0,1,0,13.5,12.4Z" transform="translate(342.494 129.428) rotate(151)" fill="#fff"/>
        <path id="Caminho-ACT-2_1359" data-name="Caminho-ACT-2 1359" d="M40.583,11.979a1.293,1.293,0,1,1-2.3,1.178A18.818,18.818,0,0,0,23.624,2.727C7.09.742-3.681,19.863,6.617,32.971a18.808,18.808,0,0,0,24.512,4.454c8.058-4.9,6.849-11.084,9.464-10.083a1.293,1.293,0,0,1,.748,1.669A21.375,21.375,0,1,1,38.185,8.172h0A21.5,21.5,0,0,1,40.583,11.979Z" transform="translate(359.915 134.289) rotate(151)" fill="#fff"/>
      </g>
      <path id="Caminho-ACT-2_1361" data-name="Caminho-ACT-2 1361" d="M539.329,1008.807c2.594,12.293,4.9,24.623,6.695,37.011q2.792,18.564,4.265,37.234c.921,12.442,1.571,24.9,1.609,37.356.1,12.461-.417,24.91-.987,37.407-.49,12.493-1.065,25.077-.151,37.75a112.138,112.138,0,0,0,8.845,37.363c1.319,2.98,2.709,5.95,4.285,8.822,1.517,2.9,3.183,5.737,4.9,8.551a134.954,134.954,0,0,0,11.766,16.183,148.428,148.428,0,0,0,30.978,27.11,3.1,3.1,0,0,0,3.923-.444,2.181,2.181,0,0,0-.452-3.344h0c-2.77-1.944-5.512-3.917-8.14-5.987-1.335-1.018-2.615-2.083-3.917-3.128-1.255-1.089-2.558-2.13-3.774-3.249a134.608,134.608,0,0,1-33.8-46.373,109.1,109.1,0,0,1-5.864-17.6,120.355,120.355,0,0,1-2.827-18.25c-1-12.3-.544-24.759-.161-37.254s.637-25.062.306-37.613q-.217-9.413-.827-18.814c-.182-3.133-.434-6.263-.679-9.392q-.423-4.692-.907-9.378-2.019-18.738-5.374-37.325c-2.309-12.374-5-24.69-8.231-36.9a.758.758,0,0,0-.907-.486.657.657,0,0,0-.571.747Z" transform="translate(-517.098 -907.699)" fill="#fff"/>
      <path id="Caminho-ACT-2_1363" data-name="Caminho-ACT-2 1363" d="M694.613,1534.551a1.443,1.443,0,0,1-1.7-1.446c.014-.907,1.778-91.488,35.467-167.352a1.452,1.452,0,1,1,2.647,1.176c-33.444,75.312-35.2,165.32-35.219,166.219a1.452,1.452,0,0,1-1.192,1.4Z" transform="translate(-642.821 -1199.739)" fill="#fff"/>
      <path id="Caminho-ACT-2_1364" data-name="Caminho-ACT-2 1364" d="M631.7,1612.059a8.066,8.066,0,0,0,8.05,8.031h435.139a8.066,8.066,0,0,0,8.048-8.039l3.629-250.065c0-4.422-5.211-13.052-14.757-12.4l-425.264-11a20.276,20.276,0,0,0-20.808,20.738Z" transform="translate(-587.83 -1178.267)" fill="url(#act-2-linear-gradient-3)"/>
      <path id="Caminho-ACT-2_1365" data-name="Caminho-ACT-2 1365" d="M675.045,1647.364a7.634,7.634,0,0,0,7.62,7.62H1099.8a7.636,7.636,0,0,0,7.62-7.62l3.417-227.012c-.4-13.66-12.379-18.571-19.639-18.28L683.6,1391.137a14.249,14.249,0,0,0-14.623,14.583Z" transform="translate(-623.231 -1221.292)" fill="url(#act-2-linear-gradient-4)"/>
      <path id="Caminho-ACT-2_1366" data-name="Caminho-ACT-2 1366" d="M3055.675,2115.871h-.017a1.113,1.113,0,0,1-1.1-1.132l.271-18.409a1.114,1.114,0,0,1,1.113-1.1h.019a1.113,1.113,0,0,1,1.1,1.132l-.268,18.42a1.117,1.117,0,0,1-1.116,1.088Z" transform="translate(-2576.005 -1797.648)" fill="#fff"/>
      <path id="Caminho-ACT-2_1367" data-name="Caminho-ACT-2 1367" d="M2398.6,1547.522h-.015a1.116,1.116,0,0,1-1.1-1.132l1.037-70.512c-.021-4.189-1.292-7.533-3.78-9.917-4.645-4.45-12.02-4.224-12.337-4.209l-130.273-3.493a1.118,1.118,0,0,1-1.089-1.145,1.069,1.069,0,0,1,1.147-1.089l130.2,3.5c.811-.047,8.663-.181,13.892,4.826,2.94,2.819,4.443,6.7,4.466,11.541l-1.036,70.533A1.117,1.117,0,0,1,2398.6,1547.522Z" transform="translate(-1918.263 -1274.411)" fill="#fff"/>
      <rect id="Retângulo_11" data-name="Retângulo 11" width="513.016" height="21.971" rx="5.65" transform="translate(521.585 462.582) rotate(180)" fill="url(#act-2-linear-gradient-5)"/>
      <path id="Caminho-ACT-2_1371" data-name="Caminho-ACT-2 1371" d="M2523.292,2264.4l.132-.435c.087-.291.221-.717.4-1.27.363-1.109.907-2.721,1.646-4.763s1.689-4.5,2.8-7.306,2.477-5.934,3.992-9.332c1.542-3.384,3.266-7.032,5.16-10.847,1.949-3.79,3.992-7.8,6.277-11.853l1.724-3.068,1.8-3.084c1.2-2.074,2.48-4.133,3.763-6.214s2.632-4.142,3.969-6.223c1.377-2.055,2.721-4.143,4.137-6.186s2.8-4.1,4.281-6.087l2.187-2.991c.726-.992,1.487-1.959,2.226-2.935l2.219-2.9,2.256-2.828c1.472-1.892,3.023-3.687,4.535-5.461s3.034-3.489,4.537-5.16,2.988-3.281,4.474-4.817c.742-.767,1.46-1.539,2.193-2.273l2.177-2.15,2.11-2.077c.693-.679,1.405-1.312,2.086-1.949,1.388-1.247,2.676-2.48,3.972-3.58l3.672-3.125c.568-.5,1.141-.955,1.7-1.385l1.611-1.257,2.833-2.21,5.559-3.935a.445.445,0,0,1,.544.7l-.015.014-5.119,4.431-2.62,2.414-1.485,1.369-.784.725c-.26.252-.522.512-.789.773l-3.409,3.327c-1.2,1.168-2.393,2.474-3.674,3.792-.637.663-1.3,1.322-1.95,2.026l-1.972,2.158-2.036,2.23c-.684.761-1.352,1.558-2.042,2.359-1.369,1.6-2.815,3.208-4.2,4.929s-2.863,3.431-4.266,5.261l-2.146,2.722c-.726.907-1.415,1.865-2.137,2.8l-2.157,2.831-2.123,2.9c-.7.978-1.428,1.948-2.126,2.943l-2.086,3c-1.4,2-2.762,4.036-4.145,6.06s-2.69,4.1-4.035,6.136c-1.3,2.065-2.607,4.116-3.872,6.168-2.513,4.12-4.981,8.18-7.288,12.156s-4.544,7.825-6.591,11.515-4,7.172-5.715,10.438c-1.777,3.233-3.335,6.234-4.733,8.889s-2.585,4.986-3.582,6.895l-3.069,6.047h0a.446.446,0,0,1-.824-.333Z" transform="translate(-2141.107 -1831.535)" fill="#fff" opacity="0.51"/>
      <g id="setinha">
        <path id="Caminho-ACT-2_1368" data-name="Caminho-ACT-2 1368" d="M2258.55,1276.257l95.793-183.511h-19.63a4.288,4.288,0,0,1-3.313-7.007l102.093-124.429a7.2,7.2,0,0,1,12.754,4.991l-7.177,121.678a12.155,12.155,0,0,1-13.52,11.364l-13.681-1.566-95.042,205.836a15.133,15.133,0,0,1-13.739,8.788h-32.941Z" transform="translate(-1924.413 -867.281)" fill="url(#act-2-linear-gradient-6)"/>
        <path id="Caminho-ACT-2_1369" data-name="Caminho-ACT-2 1369" d="M2755.615,1118.891a.944.944,0,0,1-.747-1.519l84.3-109.54a3.53,3.53,0,0,1,6.306,2.551l-1.488,13.13a.944.944,0,1,1-1.875-.212l1.489-13.13a1.644,1.644,0,0,0-2.938-1.187l-84.3,109.54A.943.943,0,0,1,2755.615,1118.891Z" transform="translate(-2330.525 -906.405)" fill="#fff"/>
        <path id="Caminho-ACT-2_1377" data-name="Caminho-ACT-2 1377" d="M3225.353,1177.524a.872.872,0,0,1-.107,0,.945.945,0,0,1-.833-1.045l.673-5.94a.944.944,0,0,1,1.876.213l-.673,5.94A.943.943,0,0,1,3225.353,1177.524Z" transform="translate(-2715.037 -1040.035)" fill="#fff"/>
      </g>
      <path id="Caminho-ACT-2_1374" data-name="Caminho-ACT-2 1374" d="M1822,1882.828l67.625,150.221a24.8,24.8,0,0,0,22.613,14.619H1947.1a12.728,12.728,0,0,0,11.129-6.552l1.242-2.236h0a9.979,9.979,0,0,1-8.879-5.443L1860.5,1856.9Z" transform="translate(-1567.065 -1602.557)" fill="url(#act-2-linear-gradient-7)"/>
      <path id="Caminho-ACT-2_1375" data-name="Caminho-ACT-2 1375" d="M1263.034,1796.007h0a14.789,14.789,0,0,0-21.472,3.412L1142.141,1948.8a42.95,42.95,0,0,1-35.766,19.162h-13.991L1081,1935.155s92.433-141.73,116.258-163.17c0,0,23.725-21.383,47.119-5.216a39.029,39.029,0,0,1,13.737,17.312Z" transform="translate(-960.502 -1523.831)" fill="url(#act-2-linear-gradient-8)"/>
      <path id="Caminho-ACT-2_1376" data-name="Caminho-ACT-2 1376" d="M508.227,2121.469a77.726,77.726,0,0,1,42.817-18.04s15.318,5.22,45.834,59.9,50.774,79.618,74.545,66l-1.969,3.266a35.846,35.846,0,0,1-30.7,17.347H625.6a44.979,44.979,0,0,1-36.517-18.713c-21.042-29.256-61.6-84.126-80.719-99.806a6.493,6.493,0,0,1-.141-9.956Z" transform="translate(-489.799 -1804.36)" fill="url(#act-2-linear-gradient-9)"/>
      <path id="Caminho-ACT-2_1378" data-name="Caminho-ACT-2 1378" d="M1701.473,1945.652a.943.943,0,0,1-.782-1.471l43.6-64.628a7.681,7.681,0,0,1,13.309,1.011.944.944,0,1,1-1.707.807,5.792,5.792,0,0,0-10.036-.762l-43.607,64.628A.941.941,0,0,1,1701.473,1945.652Z" transform="translate(-1467.632 -1618.33)" fill="#fff"/>
      <path id="Caminho-ACT-2_1379" data-name="Caminho-ACT-2 1379" d="M1639.023,2324.5a.944.944,0,0,1-.782-1.472l2.8-4.143a.944.944,0,1,1,1.566,1.053l-2.8,4.144A.949.949,0,0,1,1639.023,2324.5Z" transform="translate(-1416.512 -1980.388)" fill="#fff"/>
      <path id="Caminho-ACT-2_1380" data-name="Caminho-ACT-2 1380" d="M1960.8,1697.8s-5.7,2.774-6.75,5.96c-.841,2.556-7.147,2.886-7.769,7.914a5.787,5.787,0,0,1-4.828,5.08c-6.44.987-16.365,4.333-17.961,15.514-1.214,8.527,3.139,11.769,7.7,12.881a6.458,6.458,0,0,1,4.9,7.47c-.65,3.247.319,7,5.945,9.978,12.607,6.651,25.2-15.76,25.2-15.76l2.58-39.134Z" transform="translate(-1552.722 -1571.825) rotate(3)" fill="url(#act-2-linear-gradient-10)"/>
      <path id="Caminho-ACT-2_1381" data-name="Caminho-ACT-2 1381" d="M2259.555,1646.66s-25.173,39.816-55.1,47.506c0,0,5.833,16.612,10.341,18.506,0,0,36.829-30.726,46.29-60.361Z" transform="translate(-1964.577 -1310.949) rotate(-3)" fill="url(#act-2-linear-gradient-11)"/>
      <path id="Caminho-ACT-2_1382" data-name="Caminho-ACT-2 1382" d="M1779.771,3038.711l-.815,6.713a2.771,2.771,0,0,1-2.43,2.424,42.923,42.923,0,0,1-8.975.14,2.37,2.37,0,0,1-2-3.084c.822-2.589,2.327-6.476,4.5-8.763h7.438a2.291,2.291,0,0,1,2.281,2.571Z" transform="translate(-1520.766 -2567.852)" fill="url(#act-2-linear-gradient-12)"/>
      <path id="Caminho-ACT-2_1383" data-name="Caminho-ACT-2 1383" d="M2100.847,2617.27l1.255,7.386s-4.205,42.595-4.953,59.635a13.346,13.346,0,0,0,1.976,7.586l7.312,11.875-18.583-10.967-.363-2.268,3.043-4.182-3.991-47.715a14.657,14.657,0,0,1,1.665-8.1l3.845-7.221Z" transform="translate(-1783.569 -2224.976)" fill="url(#act-2-linear-gradient-13)"/>
      <path id="Caminho-ACT-2_1384" data-name="Caminho-ACT-2 1384" d="M2105.541,3023.914h-5.931a3.574,3.574,0,0,1-2.834-1.389c-1.849-2.4-5.678-7.089-7.511-7.213-2.465-.165-2.15,8.6-2.15,8.6h-1.383l-1.75-10.886a6.45,6.45,0,0,1,3.384-6.738s.564,4.174,3.62,6.011,12.437,8.447,12.437,8.447a8.524,8.524,0,0,1,2.412.064A1.565,1.565,0,0,1,2105.541,3023.914Z" transform="translate(-1781.449 -2543.417)" fill="url(#act-2-linear-gradient-14)"/>
      <path id="Caminho-ACT-2_1385" data-name="Caminho-ACT-2 1385" d="M1824.4,2622.757s-24.636,46.73-28.542,57.4a103.342,103.342,0,0,0-5.341,20.412c-.082,1.317-1.72,2.581-6.235,2.581-2.33,0-3.471-.935-4.03-1.84a2.627,2.627,0,0,1-.1-2.549c1.424-2.884,5.947-12.1,7.619-16.281,2-4.992,6.3-27.608,8.662-35.472s5.025-16.394,15.3-24.251C1811.728,2622.757,1818.78,2615.848,1824.4,2622.757Z" transform="translate(-1532.581 -2226.953)" fill="url(#act-2-linear-gradient-15)"/>
      <path id="Caminho-ACT-2_1386" data-name="Caminho-ACT-2 1386" d="M2067.135,1960.326c6.35-26.927-9.745-42.159-9.745-42.159,10.16-9.75,28.666-14.187,28.666-14.187s17.66,12.912,15.564,23.018c-1.229,5.924-12.413,35.48-12.413,35.48S2078.866,1967.373,2067.135,1960.326Z" transform="translate(-1759.749 -1641.095)" fill="url(#act-2-linear-gradient-16)"/>
      <path id="Caminho-ACT-2_1387" data-name="Caminho-ACT-2 1387" d="M1966.071,2227.852c2.587-7.791,14.09-13.332,14.09-13.332,11.731,7.047,22.074,2.151,22.074,2.151s2.319,8.867.726,17.1-11.653,61.2-11.653,61.2c-15.825,3.208-40.167-3.226-40.167-3.226C1961.221,2273.852,1963.486,2235.653,1966.071,2227.852Z" transform="translate(-1672.775 -1895.296)" fill="url(#act-2-linear-gradient-17)"/>
      <path id="Caminho-ACT-2_1388" data-name="Caminho-ACT-2 1388" d="M2128.085,1795.924l-5.167,23.208c-.494,2.043,1.371,1.709,3.436,1.319,3.384-.636,7.747-1.952,9.2-4.585a2.468,2.468,0,0,0,.265-.874l2.221-16.093a2.9,2.9,0,0,0-1.692-3.039l-4.284-1.9a2.893,2.893,0,0,0-3.983,1.963Z" transform="translate(-1813.322 -1550.834)" fill="url(#act-2-linear-gradient-18)"/>
      <path id="Caminho-ACT-2_1389" data-name="Caminho-ACT-2 1389" d="M1978.5,1982.18s-36.06,25.8-4.612,52.909a8.133,8.133,0,0,0,3.559,2.063c1.19.363,4.717,3.021,6.5,4.41a1.225,1.225,0,0,0,1.789-.32,1.674,1.674,0,0,0,.094-1.6l-4.465-9.434a3.447,3.447,0,0,0-4.472-.194,1.7,1.7,0,0,1-2.576-.583c-2.431-4.951-7.021-19.514,11.767-35.97a2.033,2.033,0,0,0,.451-2.475C1985.214,1988.441,1982.193,1983.406,1978.5,1982.18Z" transform="translate(-1680.855 -1705.108)" fill="url(#act-2-linear-gradient-19)"/>
      <path id="Caminho-ACT-2_1390" data-name="Caminho-ACT-2 1390" d="M2145.506,1685.562s5.5,3.725,7.863,13.206-1.478,12.881-5.414,12.674-9.646-1.427-14.593-8.228S2138.3,1681.013,2145.506,1685.562Z" transform="translate(-1820.847 -1461.628)" fill="url(#act-2-linear-gradient-20)"/>
      <path id="Caminho-ACT-2_1391" data-name="Caminho-ACT-2 1391" d="M2108.339,1662.755s-2.015-13.587,9.266-11.51l2.28,2.374s5.521-6.218-.589-10.918-14.589-3.5-19.28,5.061-6.394,14.57-2.462,19.887,6.894.757,6.894.757-1.8-4.6-.309-6.576,3.427,1.148,3.427,1.148Z" transform="translate(-1789.835 -1421.993)" fill="url(#act-2-linear-gradient-21)"/>
      <path id="Caminho-ACT-2_1392" data-name="Caminho-ACT-2 1392" d="M2132.02,1747.773s-.993-6.991-4.565-4.993,1.287,6.532,3.233,8.073Z" transform="translate(-1816.058 -1508.848)" fill="url(#act-2-linear-gradient-22)"/>
      <path id="Caminho-ACT-2_1393" data-name="Caminho-ACT-2 1393" d="M2489.4,1587.946c.076.822-2.979,1.39-3.952-2.112.27-1.521.743-8.177,1.909-9.211,6.206-5.508,17.278-11.7,17.278-11.7a2.266,2.266,0,0,1-.387,3.135l-5.527,3.728c.577,1.908,1.419,3.6,1.513,5.777a6.472,6.472,0,0,1-1.632,4.52c-1.1,1.255-2.58,2.877-3.915,4.109A6.383,6.383,0,0,1,2489.4,1587.946Z" transform="translate(-2190.78 -1232.091) rotate(-3)" fill="url(#act-2-linear-gradient-23)"/>
      <path id="Caminho-ACT-2_1394" data-name="Caminho-ACT-2 1394" d="M2507.546,1625.539l-.845-.347c.112-.274,2.765-6.713,4.047-8.057a1.923,1.923,0,0,0,.7-1.3.919.919,0,0,0-.283-.568l-4.472,2.39-1.974,3.084-.769-.491,2.1-3.295,5.236-2.8.238.192a2,2,0,0,1,.835,1.422,2.71,2.71,0,0,1-.953,1.983C2510.444,1618.777,2508.294,1623.719,2507.546,1625.539Z" transform="translate(-2208.012 -1271.55) rotate(-3)" fill="url(#act-2-linear-gradient-24)"/>
    </g>
  </g>
</svg>
