<svg xmlns="http://www.w3.org/2000/svg" width="8.879" height="12.975" viewBox="0 0 8.879 12.975">
  <path id="back-icon" d="M14.761,209.338a.526.526,0,0,1,.344-.138.518.518,0,0,1,.379.138l1.824,1.824c.069.069.1.1.1.172.034.069.034.138.069.172,0,.069-.034.1-.034.172-.034.069-.034.138-.1.172l-3.751,3.82,3.751,3.751a.556.556,0,0,1,.138.344.715.715,0,0,1-.172.413L15.414,222a.4.4,0,0,1-.654,0l-5.988-5.988a.548.548,0,0,1-.172-.344.478.478,0,0,1,.172-.344Z" transform="translate(-8.6 -209.2)" fill="#4d519d"/>
</svg>
