<svg xmlns="http://www.w3.org/2000/svg" xmlns:xlink="http://www.w3.org/1999/xlink" width="2565.492" height="1126.804" viewBox="0 0 2565.492 1126.804">
  <defs>
    <clipPath id="clip-path">
      <rect id="Retângulo_188" data-name="Retângulo 188" width="733.746" height="536.804" fill="none"/>
    </clipPath>
    <clipPath id="clip-path-2">
      <path id="Caminho_3543" data-name="Caminho 3543" d="M210.939,912.756V821.862l.009-.005L293.533,867.3v.011l-82.585,45.446Z" transform="translate(-210.939 -821.857)" fill="none"/>
    </clipPath>
    <linearGradient id="linear-gradient" x1="2.336" y1="1.176" x2="2.33" y2="1.176" gradientUnits="objectBoundingBox">
      <stop offset="0" stop-color="#ffcc4d"/>
      <stop offset="0.389" stop-color="#ffcc4d"/>
      <stop offset="0.469" stop-color="#fbc94c"/>
      <stop offset="0.531" stop-color="#f2c14a"/>
      <stop offset="0.587" stop-color="#e1b446"/>
      <stop offset="0.639" stop-color="#caa242"/>
      <stop offset="0.689" stop-color="#ac8a3c"/>
      <stop offset="0.737" stop-color="#876d34"/>
      <stop offset="0.783" stop-color="#5b4b2b"/>
      <stop offset="0.828" stop-color="#2a2421"/>
      <stop offset="0.833" stop-color="#231f20"/>
      <stop offset="1" stop-color="#231f20"/>
    </linearGradient>
    <clipPath id="clip-path-3">
      <rect id="Retângulo_180" data-name="Retângulo 180" width="627.755" height="418.503" fill="none"/>
    </clipPath>
    <clipPath id="clip-path-4">
      <rect id="Retângulo_177" data-name="Retângulo 177" width="104.807" height="115.351" fill="none"/>
    </clipPath>
    <clipPath id="clip-path-5">
      <path id="Caminho_3545" data-name="Caminho 3545" d="M305.2,560.382l-19.26-10.6L200.4,502.706,305.2,445.031Z" transform="translate(-200.395 -445.031)" fill="none"/>
    </clipPath>
    <linearGradient id="linear-gradient-2" x1="-0.516" y1="-1.117" x2="-0.512" y2="-1.117" gradientUnits="objectBoundingBox">
      <stop offset="0" stop-color="#ffcc4d"/>
      <stop offset="0.373" stop-color="#ffcc4d"/>
      <stop offset="0.39" stop-color="#ffd263"/>
      <stop offset="0.422" stop-color="#ffdc87"/>
      <stop offset="0.458" stop-color="#ffe6a8"/>
      <stop offset="0.497" stop-color="#ffedc3"/>
      <stop offset="0.542" stop-color="#fff4d9"/>
      <stop offset="0.594" stop-color="#fff9ea"/>
      <stop offset="0.659" stop-color="#fffcf6"/>
      <stop offset="0.749" stop-color="#fffefd"/>
      <stop offset="1" stop-color="#fff"/>
    </linearGradient>
    <clipPath id="clip-path-6">
      <rect id="Retângulo_179" data-name="Retângulo 179" width="104.818" height="115.364" fill="none"/>
    </clipPath>
    <clipPath id="clip-path-7">
      <path id="Caminho_3546" data-name="Caminho 3546" d="M601.132,114.219l.009,0L705.95,171.89v.013L601.142,229.578l-.009-.006Z" transform="translate(-601.132 -114.214)" fill="none"/>
    </clipPath>
    <linearGradient id="linear-gradient-3" x1="-1.918" y1="-2.341" x2="-1.914" y2="-2.341" xlink:href="#linear-gradient-2"/>
    <clipPath id="clip-path-9">
      <rect id="Retângulo_182" data-name="Retângulo 182" width="104.819" height="115.364" fill="none"/>
    </clipPath>
    <clipPath id="clip-path-10">
      <path id="Caminho_3551" data-name="Caminho 3551" d="M1106.688,171.891v.009l-104.81,57.678-.009,0V114.219l.009,0Z" transform="translate(-1001.869 -114.214)" fill="none"/>
    </clipPath>
    <linearGradient id="linear-gradient-4" x1="-3.203" y1="-2.193" x2="-3.2" y2="-2.193" gradientUnits="objectBoundingBox">
      <stop offset="0" stop-color="#fff"/>
      <stop offset="0.405" stop-color="#fff"/>
      <stop offset="0.562" stop-color="#fcfcfc"/>
      <stop offset="0.646" stop-color="#f4f4f4"/>
      <stop offset="0.714" stop-color="#e7e7e7"/>
      <stop offset="0.772" stop-color="#d3d3d3"/>
      <stop offset="0.824" stop-color="#bbbbba"/>
      <stop offset="0.872" stop-color="#9c9c9b"/>
      <stop offset="0.917" stop-color="#777"/>
      <stop offset="0.958" stop-color="#4e4e4d"/>
      <stop offset="0.997" stop-color="#1f1f1e"/>
      <stop offset="1" stop-color="#1c1c1b"/>
    </linearGradient>
    <clipPath id="clip-path-12">
      <rect id="Retângulo_185" data-name="Retângulo 185" width="314.458" height="346.085" fill="none"/>
    </clipPath>
    <clipPath id="clip-path-13">
      <path id="Caminho_3558" data-name="Caminho 3558" d="M104.819,460.313l-.011-.006L0,402.631l104.808-57.676.006,0-.006,0v-.013l.011.006h0l85.547,47.076,19.26,10.6V287.26L104.819,229.584l104.807-57.676V171.9l.013.007,104.807-57.675v115.35l.013.007-.013.007L209.639,287.266l104.8,57.673-104.8,57.673.017.009-.017.009-.012.006h0L180.36,418.743Z" transform="translate(0 -114.227)" fill="none"/>
    </clipPath>
    <linearGradient id="linear-gradient-5" x1="0.157" y1="-0.178" x2="0.159" y2="-0.178" xlink:href="#linear-gradient-2"/>
    <clipPath id="clip-path-14">
      <path id="Caminho_3571" data-name="Caminho 3571" d="M1106.679,392.446v.016L1001.89,450.127l-.016-.009-.013.007V334.779l.013-.007Z" transform="translate(-1001.861 -334.772)" fill="none"/>
    </clipPath>
    <linearGradient id="linear-gradient-6" x1="6" y1="3.135" x2="5.995" y2="3.135" gradientUnits="objectBoundingBox">
      <stop offset="0" stop-color="#231f20"/>
      <stop offset="0.167" stop-color="#231f20"/>
      <stop offset="0.172" stop-color="#2a2421"/>
      <stop offset="0.217" stop-color="#5b4b2b"/>
      <stop offset="0.263" stop-color="#876d34"/>
      <stop offset="0.311" stop-color="#ac8a3c"/>
      <stop offset="0.361" stop-color="#caa242"/>
      <stop offset="0.413" stop-color="#e1b446"/>
      <stop offset="0.469" stop-color="#f2c14a"/>
      <stop offset="0.531" stop-color="#fbc94c"/>
      <stop offset="0.611" stop-color="#ffcc4d"/>
      <stop offset="1" stop-color="#ffcc4d"/>
    </linearGradient>
    <clipPath id="clip-path-16">
      <path id="Caminho_3543-2" data-name="Caminho 3543" d="M293.533,821.862v90.894l-.009.005-82.585-45.446V867.3l82.585-45.446Z" transform="translate(-210.939 -821.857)" fill="none"/>
    </clipPath>
    <linearGradient id="linear-gradient-7" x1="-1.336" y1="-0.176" x2="-1.33" y2="-0.176" xlink:href="#linear-gradient"/>
    <clipPath id="clip-path-19">
      <path id="Caminho_3545-2" data-name="Caminho 3545" d="M200.4,445.031l19.26,10.6L305.2,502.707,200.4,560.382Z" transform="translate(-200.395 -445.031)" fill="none"/>
    </clipPath>
    <clipPath id="clip-path-21">
      <path id="Caminho_3546-2" data-name="Caminho 3546" d="M705.95,229.573l-.009,0L601.132,171.9v-.013l104.809-57.676.009.006Z" transform="translate(-601.132 -114.214)" fill="none"/>
    </clipPath>
    <clipPath id="clip-path-24">
      <path id="Caminho_3551-2" data-name="Caminho 3551" d="M1001.869,171.9v-.009l104.81-57.678.009,0V229.573l-.009,0Z" transform="translate(-1001.869 -114.214)" fill="none"/>
    </clipPath>
    <clipPath id="clip-path-27">
      <path id="Caminho_3558-2" data-name="Caminho 3558" d="M209.639,114.227l.011.006,104.808,57.676L209.651,229.584l-.006,0,.006,0v.013l-.011-.006h0l-85.547-47.076-19.26-10.6V287.28l104.807,57.676L104.832,402.631v.014l-.013-.007L.013,460.312V344.963L0,344.955l.013-.007L104.82,287.273.017,229.6l104.8-57.673-.017-.009.017-.009.012-.006h0L134.1,155.8Z" transform="translate(0 -114.227)" fill="none"/>
    </clipPath>
    <clipPath id="clip-path-28">
      <path id="Caminho_3571-2" data-name="Caminho 3571" d="M1001.861,392.453v-.016l104.789-57.665.016.009.013-.007V450.12l-.013.007Z" transform="translate(-1001.861 -334.772)" fill="none"/>
    </clipPath>
    <linearGradient id="linear-gradient-12" x1="-5" y1="-2.135" x2="-4.995" y2="-2.135" xlink:href="#linear-gradient-6"/>
  </defs>
  <g id="bg-contact-us" transform="translate(193.746 -3967.668)">
    <path id="Caminho_3580" data-name="Caminho 3580" d="M0,0H1920V834.753H0Z" transform="translate(8 4071.861)" fill="#fff"/>
    <g id="assets" transform="translate(192 4)">
      <g id="Grupo_471" data-name="Grupo 471" transform="translate(1446 3981.668)">
        <g id="Grupo_469" data-name="Grupo 469" transform="translate(0 -18)" clip-path="url(#clip-path)">
          <g id="Grupo_440" data-name="Grupo 440" transform="translate(540.804 429.937)">
            <g id="Grupo_439" data-name="Grupo 439" clip-path="url(#clip-path-2)">
              <rect id="Retângulo_175" data-name="Retângulo 175" width="82.594" height="90.904" transform="translate(0 0)" fill="url(#linear-gradient)"/>
            </g>
          </g>
          <path id="Caminho_3544" data-name="Caminho 3544" d="M306.271,391.778v1.291L202.625,450.1h0l-.01-.006V334.747l.011-.007Z" transform="translate(321.481 -159.628)" fill="#ffcc4d"/>
          <g id="Grupo_452" data-name="Grupo 452" transform="translate(-0.002 118.3)">
            <g id="Grupo_451" data-name="Grupo 451" clip-path="url(#clip-path-3)">
              <g id="Grupo_445" data-name="Grupo 445" transform="translate(524.109 114.508)" opacity="0.5" style="mix-blend-mode: multiply;isolation: isolate">
                <g id="Grupo_444" data-name="Grupo 444">
                  <g id="Grupo_443" data-name="Grupo 443" clip-path="url(#clip-path-4)">
                    <g id="Grupo_442" data-name="Grupo 442" transform="translate(0 0)">
                      <g id="Grupo_441" data-name="Grupo 441" clip-path="url(#clip-path-5)">
                        <rect id="Retângulo_176" data-name="Retângulo 176" width="154.81" height="152.381" transform="translate(35.558 164.973) rotate(-125.625)" fill="url(#linear-gradient-2)"/>
                      </g>
                    </g>
                  </g>
                </g>
              </g>
              <g id="Grupo_450" data-name="Grupo 450" transform="translate(314.46 -58.552)" opacity="0.5" style="mix-blend-mode: multiply;isolation: isolate">
                <g id="Grupo_449" data-name="Grupo 449">
                  <g id="Grupo_448" data-name="Grupo 448" clip-path="url(#clip-path-6)">
                    <g id="Grupo_447" data-name="Grupo 447" transform="translate(0 0)">
                      <g id="Grupo_446" data-name="Grupo 446" clip-path="url(#clip-path-7)">
                        <rect id="Retângulo_178" data-name="Retângulo 178" width="151.751" height="147.654" transform="translate(24.721 159.862) rotate(-119.055)" fill="url(#linear-gradient-3)"/>
                      </g>
                    </g>
                  </g>
                </g>
              </g>
            </g>
          </g>
          <path id="Caminho_3547" data-name="Caminho 3547" d="M705.94,226.14V340.628L601.132,282.952,704.371,226.14Z" transform="translate(-286.664 -107.839)" fill="#6e52ff"/>
          <path id="Caminho_3548" data-name="Caminho 3548" d="M402.354,226.14l103.227,56.806v.013L400.773,340.635l-.01-.006V226.14Z" transform="translate(18.514 -107.839)" fill="#7670c1"/>
          <path id="Caminho_3549" data-name="Caminho 3549" d="M804.461,226.14l101.972,56.115v.013L801.625,339.943l-.01-.006V226.14Z" transform="translate(-592.034 -107.839)" fill="#7670c1"/>
          <path id="Caminho_3550" data-name="Caminho 3550" d="M1106.68,226.14V340.629l-104.81-57.677,103.239-56.812Z" transform="translate(-897.04 -107.84)" fill="#4d9fd5"/>
          <g id="Grupo_459" data-name="Grupo 459" transform="translate(-0.002 118.3)">
            <g id="Grupo_458" data-name="Grupo 458" clip-path="url(#clip-path-3)">
              <g id="Grupo_457" data-name="Grupo 457" transform="translate(104.822 -58.552)" opacity="0.3" style="mix-blend-mode: multiply;isolation: isolate">
                <g id="Grupo_456" data-name="Grupo 456" transform="translate(0)">
                  <g id="Grupo_455" data-name="Grupo 455" clip-path="url(#clip-path-9)">
                    <g id="Grupo_454" data-name="Grupo 454" transform="translate(0.001 0)">
                      <g id="Grupo_453" data-name="Grupo 453" clip-path="url(#clip-path-10)">
                        <rect id="Retângulo_181" data-name="Retângulo 181" width="155.693" height="155.693" transform="translate(52.409 167.774) rotate(-135)" fill="url(#linear-gradient-4)"/>
                      </g>
                    </g>
                  </g>
                </g>
              </g>
            </g>
          </g>
          <path id="Caminho_3552" data-name="Caminho 3552" d="M1305.468,226.14v56.808l-103.23-56.808Z" transform="translate(-1200.647 -106.84)" fill="#008ce9"/>
          <path id="Caminho_3553" data-name="Caminho 3553" d="M306.643,226.14,203.4,282.952l-.011-.006V226.14Z" transform="translate(320.703 -107.84)" fill="#7670c1"/>
          <path id="Caminho_3554" data-name="Caminho 3554" d="M503.99,226.14v56.806L400.763,226.14Z" transform="translate(20.106 -107.84)" fill="#4d9fd5"/>
          <path id="Caminho_3555" data-name="Caminho 3555" d="M904.728,226.14v56.807L801.5,226.14Z" transform="translate(-590.271 -107.84)" fill="#008ce9"/>
          <path id="Caminho_3556" data-name="Caminho 3556" d="M1106.688,392.418v.01l-104.81,57.677-.008,0V334.745l.008,0Z" transform="translate(-897.048 -159.628)" fill="#ffcc4d"/>
          <path id="Caminho_3557" data-name="Caminho 3557" d="M306.26,780.839,202.614,723.8l75.541-41.57,28.105-15.466Z" transform="translate(321.492 -317.962)" fill="#ffcc4d"/>
          <g id="Grupo_466" data-name="Grupo 466" transform="translate(-0.002 118.3)">
            <g id="Grupo_465" data-name="Grupo 465" clip-path="url(#clip-path-3)">
              <g id="Grupo_464" data-name="Grupo 464" transform="translate(419.29 -58.544)" opacity="0.5" style="mix-blend-mode: multiply;isolation: isolate">
                <g id="Grupo_463" data-name="Grupo 463">
                  <g id="Grupo_462" data-name="Grupo 462" clip-path="url(#clip-path-12)">
                    <g id="Grupo_461" data-name="Grupo 461" transform="translate(-0.001 -0.001)">
                      <g id="Grupo_460" data-name="Grupo 460" clip-path="url(#clip-path-13)">
                        <rect id="Retângulo_184" data-name="Retângulo 184" width="459.001" height="448.367" transform="translate(84.614 485.542) rotate(-121.247)" fill="url(#linear-gradient-5)"/>
                      </g>
                    </g>
                  </g>
                </g>
              </g>
            </g>
          </g>
          <path id="Caminho_3559" data-name="Caminho 3559" d="M505.582,502.68v.013L400.773,560.369l-.01-.006V445.011l.01-.006Z" transform="translate(18.514 -212.21)" fill="#fff"/>
          <path id="Caminho_3560" data-name="Caminho 3560" d="M400.753,334.735l-.011.007v-.013Z" transform="translate(123.354 -159.622)" fill="#ffcc4d"/>
          <path id="Caminho_3561" data-name="Caminho 3561" d="M849.872,640.516v0l-36.418-20.042,36.418-20.041Z" transform="translate(-541.667 -286.33)" fill="#008ce9"/>
          <path id="Caminho_3562" data-name="Caminho 3562" d="M422.184,861.938h0L385.765,841.9l36.418-20.041Z" transform="translate(109.757 -391.92)" fill="#7670c1"/>
          <path id="Caminho_3563" data-name="Caminho 3563" d="M1282.134,500.286v0l-57.19-31.472,57.19-31.471Z" transform="translate(-1189.192 -208.557)" fill="#6e52ff"/>
          <path id="Caminho_3564" data-name="Caminho 3564" d="M1202.23,555.264l-.008,0v-.009Z" transform="translate(-1097.401 -264.787)" fill="#ffcc4d"/>
          <path id="Caminho_3565" data-name="Caminho 3565" d="M400.753,775.789l-.011.007v-.014Z" transform="translate(123.354 -369.948)" fill="#ffcc4d"/>
          <path id="Caminho_3566" data-name="Caminho 3566" d="M1202.23,334.736l-.008,0v-.009Z" transform="translate(-1097.401 -159.624)" fill="#ffcc4d"/>
          <path id="Caminho_3567" data-name="Caminho 3567" d="M601.122,665.526l-.01.006v-.012Z" transform="translate(-181.835 -317.367)" fill="#ffcc4d"/>
          <path id="Caminho_3568" data-name="Caminho 3568" d="M601.111,450.094V334.73l.01.006L705.93,392.412l.01.006-.01.006L601.121,450.1l-.01.006Z" transform="translate(-286.653 -159.623)" fill="#ffcc4d"/>
          <path id="Caminho_3569" data-name="Caminho 3569" d="M1001.859,445h0l-.009,0v-.01Z" transform="translate(-792.212 -212.204)" fill="#ffcc4d"/>
          <path id="Caminho_3570" data-name="Caminho 3570" d="M801.509,392.379l104.8-57.67.01-.006V450.055Z" transform="translate(-591.865 -159.61)" fill="#f1f5f6"/>
          <g id="Grupo_468" data-name="Grupo 468" transform="translate(104.825 175.129)">
            <g id="Grupo_467" data-name="Grupo 467" transform="translate(0)" clip-path="url(#clip-path-14)">
              <rect id="Retângulo_187" data-name="Retângulo 187" width="104.818" height="115.355" transform="translate(0 0)" fill="url(#linear-gradient-6)"/>
            </g>
          </g>
          <path id="Caminho_3572" data-name="Caminho 3572" d="M505.581,670.6,486.32,660l-85.547-47.076,104.807-57.675Z" transform="translate(18.509 -264.781)" fill="#6e52ff"/>
          <path id="Caminho_3573" data-name="Caminho 3573" d="M505.9,448.654l-19.26-10.6L401.1,390.979,505.9,333.3Z" transform="translate(18.02 -158.943)" fill="#008ce9"/>
          <path id="Caminho_3574" data-name="Caminho 3574" d="M307.421,559.472l-19.26-10.6L202.614,501.8l104.807-57.676Z" transform="translate(320.332 -211.788)" fill="#7670c1"/>
          <path id="Caminho_3575" data-name="Caminho 3575" d="M683.262,557.638l62.914-34.621.006,0v69.249Z" transform="translate(-369.869 -249.41)" fill="#7670c1"/>
        </g>
      </g>
      <g id="Grupo_472" data-name="Grupo 472" transform="translate(-385.746 4485.668)">
        <g id="Grupo_469-2" data-name="Grupo 469" transform="translate(0 68)" clip-path="url(#clip-path)">
          <g id="Grupo_440-2" data-name="Grupo 440" transform="translate(110.348 15.963)">
            <g id="Grupo_439-2" data-name="Grupo 439" clip-path="url(#clip-path-16)">
              <rect id="Retângulo_175-2" data-name="Retângulo 175" width="82.594" height="90.904" transform="translate(0 0)" fill="url(#linear-gradient-7)"/>
            </g>
          </g>
          <path id="Caminho_3544-2" data-name="Caminho 3544" d="M202.614,393.068v-1.291L306.26,334.741h0l.01.006V450.1l-.011.007Z" transform="translate(-96.621 -88.414)" fill="#ffcc4d"/>
          <g id="Grupo_452-2" data-name="Grupo 452" transform="translate(105.993 0)">
            <g id="Grupo_451-2" data-name="Grupo 451" clip-path="url(#clip-path-3)">
              <g id="Grupo_445-2" data-name="Grupo 445" transform="translate(-1.161 188.645)" opacity="0.5" style="mix-blend-mode: multiply;isolation: isolate">
                <g id="Grupo_444-2" data-name="Grupo 444">
                  <g id="Grupo_443-2" data-name="Grupo 443" clip-path="url(#clip-path-4)">
                    <g id="Grupo_442-2" data-name="Grupo 442" transform="translate(0 -0.001)">
                      <g id="Grupo_441-2" data-name="Grupo 441" clip-path="url(#clip-path-19)">
                        <rect id="Retângulo_176-2" data-name="Retângulo 176" width="154.81" height="152.381" transform="translate(69.249 -49.622) rotate(54.375)" fill="url(#linear-gradient-2)"/>
                      </g>
                    </g>
                  </g>
                </g>
              </g>
              <g id="Grupo_450-2" data-name="Grupo 450" transform="translate(208.476 361.691)" opacity="0.5" style="mix-blend-mode: multiply;isolation: isolate">
                <g id="Grupo_449-2" data-name="Grupo 449">
                  <g id="Grupo_448-2" data-name="Grupo 448" clip-path="url(#clip-path-6)">
                    <g id="Grupo_447-2" data-name="Grupo 447" transform="translate(0 0)">
                      <g id="Grupo_446-2" data-name="Grupo 446" clip-path="url(#clip-path-21)">
                        <rect id="Retângulo_178-2" data-name="Retângulo 178" width="151.751" height="147.653" transform="translate(80.097 -44.498) rotate(60.945)" fill="url(#linear-gradient-3)"/>
                      </g>
                    </g>
                  </g>
                </g>
              </g>
            </g>
          </g>
          <path id="Caminho_3547-2" data-name="Caminho 3547" d="M601.132,340.628V226.14L705.94,283.816,602.7,340.628Z" transform="translate(-286.662 77.875)" fill="#6e52ff"/>
          <path id="Caminho_3548-2" data-name="Caminho 3548" d="M503.99,340.635,400.762,283.828v-.013L505.571,226.14l.01.006V340.635Z" transform="translate(-191.112 77.869)" fill="#7670c1"/>
          <path id="Caminho_3549-2" data-name="Caminho 3549" d="M903.586,339.943,801.614,283.828v-.013L906.423,226.14l.01.006v113.8Z" transform="translate(-382.266 78.56)" fill="#7670c1"/>
          <path id="Caminho_3550-2" data-name="Caminho 3550" d="M1001.869,340.629V226.14l104.81,57.677-103.239,56.812Z" transform="translate(-477.762 77.874)" fill="#4d9fd5"/>
          <g id="Grupo_459-2" data-name="Grupo 459" transform="translate(105.993 0)">
            <g id="Grupo_458-2" data-name="Grupo 458" clip-path="url(#clip-path-3)">
              <g id="Grupo_457-2" data-name="Grupo 457" transform="translate(418.114 361.691)" opacity="0.3" style="mix-blend-mode: multiply;isolation: isolate">
                <g id="Grupo_456-2" data-name="Grupo 456" transform="translate(0)">
                  <g id="Grupo_455-2" data-name="Grupo 455" clip-path="url(#clip-path-9)">
                    <g id="Grupo_454-2" data-name="Grupo 454" transform="translate(-0.001 0)">
                      <g id="Grupo_453-2" data-name="Grupo 453" clip-path="url(#clip-path-24)">
                        <rect id="Retângulo_181-2" data-name="Retângulo 181" width="155.693" height="155.693" transform="translate(52.409 -52.409) rotate(45)" fill="url(#linear-gradient-4)"/>
                      </g>
                    </g>
                  </g>
                </g>
              </g>
            </g>
          </g>
          <path id="Caminho_3552-2" data-name="Caminho 3552" d="M1202.238,282.948V226.14l103.23,56.808Z" transform="translate(-573.312 135.556)" fill="#008ce9"/>
          <path id="Caminho_3553-2" data-name="Caminho 3553" d="M203.393,282.952,306.631,226.14l.011.006v56.806Z" transform="translate(-96.992 135.552)" fill="#7670c1"/>
          <path id="Caminho_3554-2" data-name="Caminho 3554" d="M400.763,282.946V226.14L503.99,282.946Z" transform="translate(-191.112 135.557)" fill="#4d9fd5"/>
          <path id="Caminho_3555-2" data-name="Caminho 3555" d="M801.5,282.947V226.14l103.228,56.807Z" transform="translate(-382.212 135.557)" fill="#008ce9"/>
          <path id="Caminho_3556-2" data-name="Caminho 3556" d="M1001.869,392.429v-.01l104.811-57.677.008,0V450.1l-.008,0Z" transform="translate(-477.762 -88.414)" fill="#ffcc4d"/>
          <path id="Caminho_3557-2" data-name="Caminho 3557" d="M202.614,666.767,306.26,723.8l-75.541,41.57-28.105,15.466Z" transform="translate(-96.621 -592.84)" fill="#ffcc4d"/>
          <g id="Grupo_466-2" data-name="Grupo 466" transform="translate(105.993 0)">
            <g id="Grupo_465-2" data-name="Grupo 465" clip-path="url(#clip-path-3)">
              <g id="Grupo_464-2" data-name="Grupo 464" transform="translate(-105.993 130.963)" opacity="0.5" style="mix-blend-mode: multiply;isolation: isolate">
                <g id="Grupo_463-2" data-name="Grupo 463">
                  <g id="Grupo_462-2" data-name="Grupo 462" clip-path="url(#clip-path-12)">
                    <g id="Grupo_461-2" data-name="Grupo 461" transform="translate(0 0)">
                      <g id="Grupo_460-2" data-name="Grupo 460" clip-path="url(#clip-path-27)">
                        <rect id="Retângulo_184-2" data-name="Retângulo 184" width="459" height="448.367" transform="translate(229.845 -139.456) rotate(58.753)" fill="url(#linear-gradient-5)"/>
                      </g>
                    </g>
                  </g>
                </g>
              </g>
            </g>
          </g>
          <path id="Caminho_3559-2" data-name="Caminho 3559" d="M400.763,502.693v-.013L505.571,445l.01.006V560.363l-.01.006Z" transform="translate(-191.112 -256.36)" fill="#fff"/>
          <path id="Caminho_3560-2" data-name="Caminho 3560" d="M400.741,334.735l.011-.007v.013Z" transform="translate(-191.102 26.956)" fill="#ffcc4d"/>
          <path id="Caminho_3561-2" data-name="Caminho 3561" d="M813.454,600.437v0l36.418,20.042-36.418,20.041Z" transform="translate(-387.912 -417.819)" fill="#008ce9"/>
          <path id="Caminho_3562-2" data-name="Caminho 3562" d="M385.765,821.858h0L422.184,841.9l-36.418,20.041Z" transform="translate(-183.96 -755.073)" fill="#7670c1"/>
          <path id="Caminho_3563-2" data-name="Caminho 3563" d="M1224.944,437.346v0l57.19,31.472-57.19,31.471Z" transform="translate(-584.14 -192.271)" fill="#6e52ff"/>
          <path id="Caminho_3564-2" data-name="Caminho 3564" d="M1202.222,555.264l.008,0v.009Z" transform="translate(-573.304 -308.937)" fill="#ffcc4d"/>
          <path id="Caminho_3565-2" data-name="Caminho 3565" d="M400.741,775.789l.011-.007v.014Z" transform="translate(-191.102 -644.826)" fill="#ffcc4d"/>
          <path id="Caminho_3566-2" data-name="Caminho 3566" d="M1202.222,334.737l.008,0v.009Z" transform="translate(-573.304 26.954)" fill="#ffcc4d"/>
          <path id="Caminho_3567-2" data-name="Caminho 3567" d="M601.112,665.525l.01-.006v.012Z" transform="translate(-286.653 -476.881)" fill="#ffcc4d"/>
          <path id="Caminho_3568-2" data-name="Caminho 3568" d="M705.94,334.741V450.105l-.01-.006L601.121,392.424l-.01-.006.01-.006L705.93,334.736l.01-.006Z" transform="translate(-286.652 -88.408)" fill="#ffcc4d"/>
          <path id="Caminho_3569-2" data-name="Caminho 3569" d="M1001.852,445h0l.009,0V445Z" transform="translate(-477.754 -140.99)" fill="#ffcc4d"/>
          <path id="Caminho_3570-2" data-name="Caminho 3570" d="M906.318,392.379l-104.8,57.67-.01.006V334.7Z" transform="translate(-382.216 -88.344)" fill="#f1f5f6"/>
          <g id="Grupo_468-2" data-name="Grupo 468" transform="translate(524.103 246.32)">
            <g id="Grupo_467-2" data-name="Grupo 467" clip-path="url(#clip-path-28)">
              <rect id="Retângulo_187-2" data-name="Retângulo 187" width="104.818" height="115.355" transform="translate(0 0)" fill="url(#linear-gradient-12)"/>
            </g>
          </g>
          <path id="Caminho_3572-2" data-name="Caminho 3572" d="M400.774,555.247l19.26,10.6,85.547,47.076L400.774,670.6Z" transform="translate(-191.117 -424.261)" fill="#6e52ff"/>
          <path id="Caminho_3573-2" data-name="Caminho 3573" d="M401.1,333.3l19.26,10.6L505.9,390.979,401.1,448.654Z" transform="translate(-191.271 -86.211)" fill="#008ce9"/>
          <path id="Caminho_3574-2" data-name="Caminho 3574" d="M202.614,444.121l19.26,10.6L307.421,501.8,202.614,559.472Z" transform="translate(-96.621 -255)" fill="#7670c1"/>
          <path id="Caminho_3575-2" data-name="Caminho 3575" d="M746.181,557.637l-62.914,34.621-.006,0V523.013Z" transform="translate(-325.828 -329.062)" fill="#7670c1"/>
        </g>
      </g>
    </g>
  </g>
</svg>
