<svg id="dashboard-01" xmlns="http://www.w3.org/2000/svg" width="48.914" height="44.215" viewBox="0 0 48.914 44.215">
  <path id="Caminho_1599" data-name="Caminho 1599" d="M33.127.17c.569,0,1.017.263,1.01.9s-.477.868-1.031.875H4.16c-2.177,0-2.5.327-2.5,2.532V28.852c0,1.06.341,1.359,1.373,1.359H45.768c1.473,0,1.48,0,1.48-1.423V4.082c0-1.771-.341-2.1-2.091-2.134H37.537a4.98,4.98,0,0,1-.975-.057.832.832,0,0,1-.711-.811.889.889,0,0,1,.768-.868C37.85.106,43.114.12,45.284.141c2.5,0,3.621,1.081,3.621,3.557V32.3c0,2.419-1.152,3.557-3.621,3.592H32.771c-1.273,0-1.288,0-1.067,1.3.057.356.142.711.164,1.074.043.854.356,1.295,1.316,1.316a2.313,2.313,0,1,1-.107,4.624H16.139a2.521,2.521,0,0,1-2.8-2.262A2.427,2.427,0,0,1,15.9,39.566a.982.982,0,0,0,1.06-.975c.05-.391.092-.79.164-1.181.277-1.522.285-1.515-1.3-1.522H13.642c-.754,0-1.33-.171-1.266-1.031s.662-.832,1.295-.825c3.948,0,7.9.1,11.844,0,4.268-.1,8.536.085,12.8-.064,2.3-.078,4.638.05,6.957.078a1.714,1.714,0,0,0,1.807-.946c.249-.583.221-1.1-.626-1.1H46.13c-4.7.171-9.411-.057-14.121.085-2.447.071-4.923-.149-7.384-.057-3.365.121-6.737.05-10.094,0-3.87,0-7.747.157-11.624-.043-.47,0-1.181-.277-1.231.619A1.423,1.423,0,0,0,3.1,33.953l6.189.071c.711,0,1.423.064,1.387.967s-.783.818-1.423.825H3.164A2.966,2.966,0,0,1,0,32.651V3.378C0,1.244,1.67-.179,4.017.013M24.448,42.276h8.159c.405,0,1.017.114,1.031-.491s-.59-.526-1-.526H28.723a.868.868,0,0,1-.982-.861c0-.633.413-.861.975-.939,1.558-.221,1.558-.228,1.245-1.793a5.1,5.1,0,0,1-.128-.64c-.071-.925-.505-1.295-1.48-1.259-2.134.064-4.268,0-6.4,0-2.881.057-2.454-.612-3.151,2.682-.185.868.178,1,.9.982,1.423,0,2.9-.036,4.346,0,.754,0,1.864-.263,1.9.875s-1.088.953-1.835.953H15.84c-.327,0-.6.135-.6.5s.306.462.612.484.583,0,.875,0Z" transform="translate(0.009 0.004)" fill="#4d9fd5"/>
  <path id="Caminho_1600" data-name="Caminho 1600" d="M45.568,25.952l-2.611,5.079c-.128.256-.256.519-.4.768-.619,1.053-1.337,1.06-1.921,0-.711-1.273-1.366-2.561-2-3.863-.363-.711-.761-.825-1.031-.036-.4,1.181-1.231,1.38-2.3,1.295-.541-.043-1.088,0-1.629,0s-.946-.235-1-.8.356-.825.861-.946a.569.569,0,0,1,.213,0c1.935.405,2.689-.847,3.3-2.333.192-.462.455-.939,1.067-.953s.811.519,1.046.96c.626,1.181,1.224,2.376,1.857,3.557.142.277.206.711.59.711s.427-.434.569-.711q1.216-2.369,2.419-4.738c.221-.427.448-.868,1.017-.854s.768.462.989.889.526.953.711,1.423c.576,1.316,1.323,2.3,3.009,2.042a.953.953,0,0,1,1.245.9c0,.79-.669.8-1.273.854-1.914.178-3.642.064-4.162-2.3a4.19,4.19,0,0,0-.576-.953Z" transform="translate(-6.891 -4.871)" fill="#4d9fd5"/>
  <path id="Caminho_1601" data-name="Caminho 1601" d="M14.331,16.67h6.957a6.111,6.111,0,0,1,1.081.092.832.832,0,0,1,.8.889.818.818,0,0,1-.889.8H9.209c-.9,0-1.807.107-2.7.078-.59,0-1.238-.178-1.2-.96s.662-.9,1.266-.911h7.718Z" transform="translate(-1.113 -3.514)" fill="#4d9fd5"/>
  <path id="Caminho_1602" data-name="Caminho 1602" d="M14.174,28.1h-7.4c-.654,0-1.366-.036-1.366-.854s.711-.939,1.423-.939H22.206c.555.05,1.031.263,1.017.9s-.484.861-1.046.868h-8Z" transform="translate(-1.135 -5.55)" fill="#4d9fd5"/>
  <path id="Caminho_1603" data-name="Caminho 1603" d="M19.118,8.3c-4.119.277-8.245-.235-12.364.121-.633.092-1.344-.085-1.344-.875s.654-.911,1.288-.911H21.964c.569,0,1.174.064,1.2.79s-.612.868-1.224.875C21,8.308,20.064,8.3,19.118,8.3Z" transform="translate(-1.135 -1.398)" fill="#4d9fd5"/>
  <path id="Caminho_1604" data-name="Caminho 1604" d="M18.9,23.37H14.45c-.6,0-1.259-.064-1.295-.818s.619-.967,1.273-.975h9.113c.619,0,1.231.149,1.245.9s-.612.9-1.224.9H18.9Z" transform="translate(-2.769 -4.551)" fill="#4d9fd5"/>
  <path id="Caminho_1605" data-name="Caminho 1605" d="M11.221,11.37h4.56c.612,0,1.238.107,1.224.889s-.6.911-1.238.911H6.661c-.662,0-1.323-.142-1.288-.967s.711-.832,1.295-.832Z" transform="translate(-1.127 -2.397)" fill="#4d9fd5"/>
  <path id="Caminho_1606" data-name="Caminho 1606" d="M10.132,31.193H13.5c.526,0,1.1.05,1.124.711s-.455,1-1.046,1.067a4.424,4.424,0,0,1-.754.043H7.059A4.979,4.979,0,0,1,6.2,32.9c-.505-.107-.9-.37-.861-.946s.462-.775.989-.783Z" transform="translate(-1.119 -6.576)" fill="#4d9fd5"/>
  <path id="Caminho_1607" data-name="Caminho 1607" d="M24.449,13.165h-1.3a.911.911,0,0,1-.939-.868.847.847,0,0,1,.9-.889c.9-.036,1.807-.043,2.71,0a.868.868,0,1,1,.036,1.736,13.274,13.274,0,0,1-1.423,0Z" transform="translate(-4.68 -2.398)" fill="#4d9fd5"/>
  <path id="Caminho_1608" data-name="Caminho 1608" d="M7.711,21.55a7.4,7.4,0,0,1,1.423.092.818.818,0,0,1,.711.811.761.761,0,0,1-.711.832,11.254,11.254,0,0,1-3.13,0,.775.775,0,0,1-.711-.847.8.8,0,0,1,.8-.818C6.622,21.565,7.17,21.579,7.711,21.55Z" transform="translate(-1.109 -4.545)" fill="#4d9fd5"/>
  <rect id="Retângulo_15" data-name="Retângulo 15" width="3.052" height="7.91" rx="0.397" transform="translate(42.846 16.884) rotate(180)" fill="none" stroke="#4d9fd5" stroke-miterlimit="10" stroke-width="1.353"/>
  <rect id="Retângulo_16" data-name="Retângulo 16" width="3.052" height="5.108" rx="0.397" transform="translate(32.403 16.884) rotate(180)" fill="none" stroke="#4d9fd5" stroke-miterlimit="10" stroke-width="1.353"/>
  <rect id="Retângulo_17" data-name="Retângulo 17" width="3.052" height="11.645" rx="0.397" transform="translate(37.653 16.884) rotate(180)" fill="none" stroke="#4d9fd5" stroke-miterlimit="10" stroke-width="1.353"/>
</svg>
