<svg xmlns="http://www.w3.org/2000/svg" width="50.108" height="45.508" viewBox="0 0 50.108 45.508">
  <g id="Grupo_182" data-name="Grupo 182" transform="translate(-423 -2262.846)">
    <g id="data-management" transform="translate(423 2262.846)">
      <g id="Grupo_181" data-name="Grupo 181" transform="translate(0 0)">
        <path id="Caminho_1609" data-name="Caminho 1609" d="M48.982,41.992H46.533a2.673,2.673,0,0,0,.3-1.224V20.853a.734.734,0,1,0-1.468,0V40.768a1.225,1.225,0,0,1-1.223,1.223H5.971a1.225,1.225,0,0,1-1.223-1.223V15.325A1.225,1.225,0,0,1,5.97,14.1H25.446a1.68,1.68,0,0,0-.092,1.468H6.949a.734.734,0,0,0-.734.734V31.8a.734.734,0,1,0,1.468,0V17.037H19.737c-.1.4-.212.889-.265,1.266a.212.212,0,0,1-.105.152l-1.227.707a.213.213,0,0,1-.185.015c-.417-.168-1.013-.344-1.439-.463a1.685,1.685,0,0,0-1.909.779l-.663,1.146a1.682,1.682,0,0,0,.28,2.045c.315.308.765.734,1.119,1.01a.21.21,0,0,1,.078.165v1.412a.21.21,0,0,1-.078.166,15.04,15.04,0,0,0-1.119,1.01,1.682,1.682,0,0,0-.28,2.045l.663,1.146a1.685,1.685,0,0,0,1.909.779c.426-.118,1.022-.295,1.439-.463a.213.213,0,0,1,.184.015l1.228.707a.212.212,0,0,1,.105.152,15,15,0,0,0,.317,1.471,1.685,1.685,0,0,0,1.631,1.264h1.329A1.685,1.685,0,0,0,24.379,32.3,14.99,14.99,0,0,0,24.7,30.83a.212.212,0,0,1,.105-.152l1.228-.707a.213.213,0,0,1,.185-.015c.417.168,1.013.344,1.439.463a1.686,1.686,0,0,0,1.909-.779l.663-1.146a1.682,1.682,0,0,0-.28-2.045,15.036,15.036,0,0,0-1.119-1.01.211.211,0,0,1-.078-.166V23.861a.21.21,0,0,1,.078-.166,15.039,15.039,0,0,0,1.119-1.01,1.682,1.682,0,0,0,.28-2.045l-.663-1.146a1.685,1.685,0,0,0-1.909-.779c-.426.118-1.022.295-1.439.463a.214.214,0,0,1-.184-.015L24.8,18.455a.211.211,0,0,1-.1-.151c-.053-.377-.165-.867-.265-1.267h1.761a1.685,1.685,0,0,0,1.833.66c.427-.118,1.023-.295,1.439-.463a.214.214,0,0,1,.184.015l1.228.707a.212.212,0,0,1,.105.152,15.033,15.033,0,0,0,.317,1.471,1.685,1.685,0,0,0,1.631,1.264h1.329a1.685,1.685,0,0,0,1.631-1.264,14.962,14.962,0,0,0,.317-1.471.212.212,0,0,1,.105-.152l1.228-.707a.213.213,0,0,1,.185-.015c.417.168,1.013.344,1.439.463A1.686,1.686,0,0,0,41,17.036h1.427V39.055H7.684V34.973a.734.734,0,0,0-1.468,0V39.79a.734.734,0,0,0,.734.734h36.21a.734.734,0,0,0,.734-.734V16.3a.734.734,0,0,0-.734-.734H41.834a1.68,1.68,0,0,0-.092-1.468h2.395a1.225,1.225,0,0,1,1.223,1.223v2.415a.734.734,0,1,0,1.468,0V15.324a2.694,2.694,0,0,0-2.691-2.691H40.275a.217.217,0,0,1-.017-.082V11.138a.21.21,0,0,1,.079-.166c.354-.276.8-.7,1.119-1.01a1.682,1.682,0,0,0,.28-2.045l-.663-1.146a1.685,1.685,0,0,0-1.909-.779c-.427.118-1.023.295-1.439.463a.214.214,0,0,1-.184-.015l-1.228-.707a.211.211,0,0,1-.1-.151A15.025,15.025,0,0,0,35.89,4.11a1.685,1.685,0,0,0-1.631-1.264H32.93A1.685,1.685,0,0,0,31.3,4.11a14.987,14.987,0,0,0-.317,1.471.212.212,0,0,1-.105.152l-1.227.707a.213.213,0,0,1-.185.015c-.416-.168-1.012-.344-1.44-.463a1.686,1.686,0,0,0-1.909.779l-.663,1.146a1.682,1.682,0,0,0,.28,2.045c.315.308.765.734,1.119,1.01a.21.21,0,0,1,.078.165V12.55a.217.217,0,0,1-.017.082H5.97a2.694,2.694,0,0,0-2.691,2.691V40.769a2.674,2.674,0,0,0,.3,1.223H1.125A1.127,1.127,0,0,0,0,43.118v1.957a3.282,3.282,0,0,0,3.279,3.279H37.568a.734.734,0,1,0,0-1.468H3.279a1.813,1.813,0,0,1-1.811-1.811V43.46h18.35v.44a1.911,1.911,0,0,0,1.908,1.908h6.655A1.911,1.911,0,0,0,30.29,43.9v-.44H48.64v1.615a1.813,1.813,0,0,1-1.811,1.811H40.736a.734.734,0,0,0,0,1.468h6.094a3.282,3.282,0,0,0,3.279-3.279V43.118a1.127,1.127,0,0,0-1.125-1.125ZM22.958,17.2a13.276,13.276,0,0,1,.285,1.308,1.667,1.667,0,0,0,.826,1.219l1.228.707a1.67,1.67,0,0,0,1.466.1,13.433,13.433,0,0,1,1.282-.41.217.217,0,0,1,.246.1l.663,1.146a.215.215,0,0,1-.037.261,13.3,13.3,0,0,1-.995.9,1.666,1.666,0,0,0-.644,1.324v1.412a1.666,1.666,0,0,0,.644,1.324,13.309,13.309,0,0,1,.995.9.215.215,0,0,1,.037.261L28.291,28.9a.218.218,0,0,1-.246.1,13.415,13.415,0,0,1-1.282-.41,1.669,1.669,0,0,0-1.466.1l-1.228.707a1.668,1.668,0,0,0-.826,1.219h0a13.264,13.264,0,0,1-.285,1.308.217.217,0,0,1-.21.164H21.42a.218.218,0,0,1-.21-.164,13.275,13.275,0,0,1-.285-1.308,1.668,1.668,0,0,0-.826-1.219L18.871,28.7a1.669,1.669,0,0,0-1.466-.1,13.433,13.433,0,0,1-1.282.41.217.217,0,0,1-.246-.1l-.663-1.146a.215.215,0,0,1,.037-.261,13.334,13.334,0,0,1,.995-.9,1.666,1.666,0,0,0,.644-1.324V23.861a1.665,1.665,0,0,0-.644-1.324,13.31,13.31,0,0,1-.995-.9.215.215,0,0,1-.037-.261l.663-1.146a.218.218,0,0,1,.246-.1,13.416,13.416,0,0,1,1.282.41,1.67,1.67,0,0,0,1.466-.1l1.227-.707a1.668,1.668,0,0,0,.826-1.219A13.264,13.264,0,0,1,21.21,17.2a.217.217,0,0,1,.207-.163H22.75a.217.217,0,0,1,.208.163Zm3.8-8.287a.215.215,0,0,1-.037-.261l.663-1.146a.218.218,0,0,1,.246-.1,13.371,13.371,0,0,1,1.282.41,1.669,1.669,0,0,0,1.466-.1L31.609,7a1.668,1.668,0,0,0,.826-1.219,13.241,13.241,0,0,1,.285-1.308.217.217,0,0,1,.21-.164h1.329a.218.218,0,0,1,.21.164,13.25,13.25,0,0,1,.285,1.308A1.667,1.667,0,0,0,35.579,7l1.228.707a1.669,1.669,0,0,0,1.466.1,13.418,13.418,0,0,1,1.282-.409.217.217,0,0,1,.246.1l.663,1.146a.215.215,0,0,1-.037.261,13.324,13.324,0,0,1-.994.9,1.666,1.666,0,0,0-.644,1.324V12.55a1.666,1.666,0,0,0,.644,1.324,13.293,13.293,0,0,1,.995.9.215.215,0,0,1,.037.261L39.8,16.182a.218.218,0,0,1-.246.1,13.416,13.416,0,0,1-1.282-.41,1.669,1.669,0,0,0-1.466.1l-1.228.707a1.668,1.668,0,0,0-.826,1.219h0a13.264,13.264,0,0,1-.285,1.308.217.217,0,0,1-.21.164H32.93a.218.218,0,0,1-.21-.164,13.275,13.275,0,0,1-.285-1.308,1.668,1.668,0,0,0-.826-1.219l-1.227-.707a1.669,1.669,0,0,0-1.466-.1,13.416,13.416,0,0,1-1.282.41.217.217,0,0,1-.246-.1l-.13-.225-.013-.023-.52-.9a.215.215,0,0,1,.037-.261,13.35,13.35,0,0,1,.995-.9A1.666,1.666,0,0,0,28.4,12.55V11.138a1.666,1.666,0,0,0-.644-1.324,13.3,13.3,0,0,1-.995-.9ZM28.822,43.9a.441.441,0,0,1-.44.44H21.726a.441.441,0,0,1-.44-.44v-.44h7.536Z" transform="translate(0 -2.846)" fill="#4d9fd5"/>
        <path id="Caminho_1610" data-name="Caminho 1610" d="M40.617,17.028a4,4,0,1,0-4.005-4A4.006,4.006,0,0,0,40.617,17.028Zm-1.144-1.741h2.288a2.535,2.535,0,0,1-2.288,0ZM40.617,10.5a2.536,2.536,0,0,1,2.537,2.529,2.509,2.509,0,0,1-.127.788h-4.82a2.527,2.527,0,0,1,2.41-3.317Z" transform="translate(-7.023 -4.033)" fill="#4d9fd5"/>
        <path id="Caminho_1611" data-name="Caminho 1611" d="M22.37,28.773a4.005,4.005,0,1,0,4.005-4,4.006,4.006,0,0,0-4.005,4Zm6.542,0a2.537,2.537,0,1,1-2.537-2.529,2.536,2.536,0,0,1,2.537,2.529Z" transform="translate(-4.291 -7.052)" fill="#4d9fd5"/>
      </g>
    </g>
  </g>
</svg>
