<svg id="Layer_1" data-name="Layer 1" xmlns="http://www.w3.org/2000/svg" xmlns:xlink="http://www.w3.org/1999/xlink" viewBox="0 0 512 512"><defs><style>.cls-1{fill:url(#linear-gradient);}</style><linearGradient id="linear-gradient" x1="15.85" y1="635.89" x2="15.85" y2="553.49" gradientTransform="matrix(5.22, 0, 0, -5.22, 173.2, 3362.95)" gradientUnits="userSpaceOnUse"><stop offset="0" stop-color="red"/><stop offset="0.01" stop-color="#fc0103"/><stop offset="0.2" stop-color="#c71931"/><stop offset="0.38" stop-color="#9b2d58"/><stop offset="0.56" stop-color="#793d76"/><stop offset="0.72" stop-color="#61488b"/><stop offset="0.87" stop-color="#524f98"/><stop offset="1" stop-color="#4d519d"/></linearGradient></defs><path class="cls-1" d="M256,40.75C137.4,40.75,40.75,137.4,40.75,256S137.4,471.25,256,471.25,471.25,374.6,471.25,256,374.6,40.75,256,40.75ZM72.1,256C72.1,154.64,154.64,72.1,256,72.1a181.71,181.71,0,0,1,118.6,43.36L115.46,374.6A181.71,181.71,0,0,1,72.1,256ZM256,439.9a183.69,183.69,0,0,1-118.07-42.84L397.06,137.93A183.69,183.69,0,0,1,439.9,256C439.9,357.36,357.36,439.9,256,439.9Z"/></svg>