<svg xmlns="http://www.w3.org/2000/svg" width="62" height="46.19" viewBox="0 0 62 46.19">
  <g id="open" transform="translate(0 -7.905)">
    <path id="Caminho_1589" data-name="Caminho 1589" d="M61.09,50.752v0Z" fill="#7a402b"/>
    <g id="Grupo_178" data-name="Grupo 178">
      <path id="Caminho_1592" data-name="Caminho 1592" d="M16.218,35.919v4.229a3.427,3.427,0,1,0,6.855,0V35.919a3.427,3.427,0,1,0-6.855,0Zm5.035,0v4.229a1.607,1.607,0,1,1-3.215,0V35.919a1.607,1.607,0,1,1,3.215,0Z" fill="#4d9fd5"/>
      <path id="Caminho_1593" data-name="Caminho 1593" d="M25.724,32.492a.91.91,0,0,0-.91.91v9.264a.91.91,0,1,0,1.82,0V39.609h.78a3.559,3.559,0,0,0,0-7.117Zm3.429,3.558a1.741,1.741,0,0,1-1.739,1.739h-.78V34.312h.78A1.741,1.741,0,0,1,29.153,36.05Z" fill="#4d9fd5"/>
      <path id="Caminho_1594" data-name="Caminho 1594" d="M36.506,34.316a.91.91,0,0,0,0-1.82H32.791a.91.91,0,0,0-.91.91v9.255a.91.91,0,0,0,.91.91h3.715a.91.91,0,0,0,0-1.82H33.7V38.944h2.806a.91.91,0,0,0,0-1.82H33.7V34.316h2.806Z" fill="#4d9fd5"/>
      <path id="Caminho_1595" data-name="Caminho 1595" d="M43.961,33.416v5.779l-3.5-6.225a.91.91,0,0,0-1.7.446v9.25a.91.91,0,0,0,1.82,0V36.892l3.5,6.225a.91.91,0,0,0,1.7-.446V33.416a.91.91,0,0,0-1.82,0Z" fill="#4d9fd5"/>
      <path id="Caminho_1596" data-name="Caminho 1596" d="M58.657,21.978H54.639L34.73,12.144a3.54,3.54,0,1,0-6.941,0L7.88,21.978H3.343A3.347,3.347,0,0,0,0,25.321V50.752A3.347,3.347,0,0,0,3.343,54.1h9.84a.91.91,0,0,0,0-1.82H3.343A1.525,1.525,0,0,1,1.82,50.752V25.321A1.525,1.525,0,0,1,3.343,23.8H58.657a1.525,1.525,0,0,1,1.523,1.523V50.752a1.525,1.525,0,0,1-1.523,1.523H16.824a.91.91,0,0,0,0,1.82H58.657A3.347,3.347,0,0,0,62,50.752V25.321a3.347,3.347,0,0,0-3.343-3.343ZM31.26,9.725a1.72,1.72,0,1,1-1.72,1.72A1.722,1.722,0,0,1,31.26,9.725ZM11.99,21.978l16.608-8.2a3.533,3.533,0,0,0,5.324,0l16.608,8.2Z" fill="#4d9fd5"/>
      <path id="Caminho_1597" data-name="Caminho 1597" d="M51.016,48.636a.91.91,0,1,0,0,1.82h6.426a.91.91,0,0,0,.91-.91V26.527a.91.91,0,0,0-.91-.91H16.824a.91.91,0,1,0,0,1.82H56.532v21.2Z" fill="#4d9fd5"/>
      <path id="Caminho_1598" data-name="Caminho 1598" d="M13.184,27.437a.91.91,0,1,0,0-1.82H4.558a.91.91,0,0,0-.91.91V49.546a.91.91,0,0,0,.91.91H47.376a.91.91,0,1,0,0-1.82H5.468v-21.2Z" fill="#4d9fd5"/>
    </g>
  </g>
</svg>
