<svg id="Layer_1" data-name="Layer 1" xmlns="http://www.w3.org/2000/svg" xmlns:xlink="http://www.w3.org/1999/xlink" viewBox="0 0 512 512"><defs><style>.cls-1{fill:url(#linear-gradient);}.cls-2{fill:url(#linear-gradient-2);}</style><linearGradient id="linear-gradient" x1="24.61" y1="612.09" x2="24.61" y2="701.77" gradientTransform="translate(173.2 -3166.51) scale(5.22)" gradientUnits="userSpaceOnUse"><stop offset="0" stop-color="#4d9fd5"/><stop offset="1" stop-color="#4d519d"/></linearGradient><linearGradient id="linear-gradient-2" x1="15.85" y1="612.09" x2="15.85" y2="701.77" xlink:href="#linear-gradient"/></defs><path class="cls-1" d="M174,229.36a15.53,15.53,0,1,0-23,20.89l78.89,85.68c3.13,3.14,6.79,5.23,11,5.23h.52a14.24,14.24,0,0,0,11-4.7L451.92,137.4c6.27-6.27,6.27-16.19,0-21.94s-16.2-6.27-21.94,0L241.89,303Z"/><path class="cls-2" d="M448.26,250.78a15.39,15.39,0,0,0-15.67,15.67C432.59,363.62,353.18,443,256,443S79.41,363.62,79.41,266.45,158.82,89.86,256,89.86a15.68,15.68,0,0,0,0-31.35C141.58,58.51,48.07,152,48.07,266.45S141.58,474.38,256,474.38s207.93-93.51,207.93-207.93A15.39,15.39,0,0,0,448.26,250.78Z"/></svg>