<svg id="Layer_5" enable-background="new 0 0 64 64" height="512" viewBox="0 0 64 64" width="512" xmlns="http://www.w3.org/2000/svg"><g><path d="m39 17.781 2 .5v2.719c0 1.654 1.346 3 3 3h2c1.654 0 3-1.346 3-3v-.719l8 2v-14.562l-18 4.5zm8 3.219c0 .551-.449 1-1 1h-2c-.551 0-1-.449-1-1v-2.219l4 1zm-2-3.781v-4.438l6-1.5v7.438zm10 2.5-2-.5v-8.438l2-.5zm-14-5.938 2-.5v3.438l-2-.5z"/><path d="m63 15c0-7.72-6.28-14-14-14-7.523 0-13.662 5.969-13.971 13.418-.734-.86-1.812-1.418-3.029-1.418-1.2 0-2.266.542-3 1.382-.734-.84-1.8-1.382-3-1.382s-2.266.542-3 1.382c-.734-.84-1.8-1.382-3-1.382-2.206 0-4 1.794-4 4v2h-15v22h10v2.19c0 4.71 1.869 9.161 5.158 12.46-.699.549-1.158 1.393-1.158 2.35v5h26v-5c0-1.049-.543-1.971-1.361-2.507 2.165-3 3.361-6.633 3.361-10.342v-4.151h10v-12.59c5.775-1.726 10-7.081 10-13.41zm-31 0c1.103 0 2 .897 2 2v2h-4v-2c0-1.103.897-2 2-2zm-11.125 21.583-.531-5.841c.177.156.402.258.656.258.552 0 1-.448 1-1s-.448-1-1-1c-.362 0-.665.202-.84.49-.261-1.018-.85-1.88-1.643-2.497 1.259-3.561 4.651-5.993 8.483-5.993 4.962 0 9 4.038 9 9s-4.038 9-9 9c-2.291 0-4.454-.861-6.125-2.417zm5.125-21.583c1.103 0 2 .897 2 2v2h-4v-2c0-1.103.897-2 2-2zm-8 2c0-1.103.897-2 2-2s2 .897 2 2v2h-4zm-11.101 4c-.399 1.956-1.943 3.5-3.899 3.899v-3.899zm-3.899 14.101c1.956.399 3.5 1.943 3.899 3.899h-3.899zm8-4.442v8.341h-2.08c-.44-3.059-2.861-5.48-5.92-5.92v-6.16c3.059-.44 5.48-2.861 5.92-5.92h11.773c-1.784 1.25-3.195 3.019-3.988 5.129-.337-.077-.685-.129-1.046-.129-2.569 0-4.659 2.09-4.659 4.659zm28 30.341h-22v-3c0-.551.449-1 1-1h20c.551 0 1 .449 1 1zm2-15.849c0 3.546-1.22 7.023-3.436 9.792l-.045.057h-19.128c-3.423-2.98-5.391-7.258-5.391-11.81v-12.531c0-1.466 1.193-2.659 2.659-2.659 1.384 0 2.523 1.04 2.648 2.418l.738 8.115 1.155.867c1.753 1.315 2.8 3.409 2.8 5.6h2c0-1.401-.334-2.769-.945-4h16.945zm6.101-6.151c.399-1.956 1.943-3.5 3.899-3.899v3.899zm3.899-5.92c-3.059.441-5.48 2.861-5.92 5.92h-11.775c2.834-1.992 4.695-5.28 4.695-9s-1.861-7.008-4.695-9h3.065c2.253 4.722 7.059 8 12.63 8 .681 0 1.345-.065 2-.16zm-2-6.08c-6.617 0-12-5.383-12-12s5.383-12 12-12 12 5.383 12 12-5.383 12-12 12z"/><path d="m28 25.145v-2.145h-2v2.145c-1.155.366-2 1.435-2 2.709 0 1.087.604 2.066 1.578 2.553l1.95.974c.291.146.472.439.472.765 0 .471-.383.854-.854.854h-.292c-.471 0-.854-.383-.854-.854v-1.146h-2v1.146c0 1.274.845 2.343 2 2.709v2.145h2v-2.145c1.155-.366 2-1.435 2-2.709 0-1.087-.604-2.066-1.578-2.553l-1.95-.974c-.291-.146-.472-.439-.472-.765 0-.471.383-.854.854-.854h.292c.471 0 .854.383.854.854v.146h2v-.146c0-1.274-.845-2.343-2-2.709z"/><circle cx="33" cy="30" r="1"/></g></svg>