<svg height="512pt" viewBox="0 0 512 512" width="512pt" xmlns="http://www.w3.org/2000/svg"><path d="m469.332031 0h-273.066406c-23.550781.0273438-42.636719 19.113281-42.664063 42.667969v59.730469h-51.203124v-17.066407c0-28.277343-22.921876-51.199219-51.199219-51.199219-28.277344 0-51.199219 22.921876-51.199219 51.199219v375.46875c.0273438 28.265625 22.933594 51.171875 51.199219 51.199219h375.46875c28.265625-.027344 51.171875-22.933594 51.199219-51.199219v-171.519531c19.851562-4.082031 34.105468-21.546875 34.132812-41.816406v-204.796875c-.027344-23.554688-19.113281-42.6406252-42.667969-42.667969zm-298.664062 42.667969c0-14.140625 11.460937-25.601563 25.597656-25.601563h273.066406c14.140625 0 25.601563 11.460938 25.601563 25.601563v179.199219h-324.265625zm-119.46875 8.53125c18.851562 0 34.132812 15.28125 34.132812 34.132812v303.277344c-19.382812-17.523437-48.882812-17.523437-68.265625 0v-303.277344c0-18.851562 15.28125-34.132812 34.132813-34.132812zm375.46875 443.734375h-375.46875c-18.851563 0-34.132813-15.28125-34.132813-34.132813v-34.132812c0-18.851563 15.28125-34.132813 34.132813-34.132813 18.851562 0 34.132812 15.28125 34.132812 34.132813 0 4.710937 3.820313 8.53125 8.535157 8.53125 4.710937 0 8.53125-3.820313 8.53125-8.53125v-307.203125h51.203124v128c.027344 23.554687 19.113282 42.640625 42.664063 42.667968h85.335937v17.066407h-8.535156c-14.136718 0-25.601562 11.460937-25.601562 25.601562v17.066407c0 4.710937 3.824218 8.53125 8.535156 8.53125h153.601562c4.710938 0 8.53125-3.820313 8.53125-8.53125v-17.066407c0-14.140625-11.460937-25.601562-25.597656-25.601562h-8.535156v-17.066407h76.800781v170.667969c0 18.851563-15.28125 34.132813-34.132812 34.132813zm-136.535157-170.667969h102.402344c4.710938 0 8.53125 3.820313 8.53125 8.535156v8.53125h-136.53125v-8.53125c0-4.714843 3.820313-8.535156 8.53125-8.535156zm76.800782-17.066406h-68.265625v-17.066407h68.265625zm102.398437-34.132813h-273.066406c-14.136719 0-25.597656-11.460937-25.597656-25.601562v-8.53125h324.265625v8.53125c0 14.140625-11.460938 25.601562-25.601563 25.601562zm0 0"/><path d="m204.800781 128h51.199219c9.425781 0 17.066406-7.640625 17.066406-17.066406v-34.132813c0-9.425781-7.640625-17.066406-17.066406-17.066406h-51.199219c-9.425781 0-17.066406 7.640625-17.066406 17.066406v34.132813c0 9.425781 7.640625 17.066406 17.066406 17.066406zm0-51.199219h51.199219v34.132813h-51.199219zm0 0"/><path d="m196.265625 162.132812h8.535156c4.710938 0 8.53125-3.820312 8.53125-8.53125 0-4.714843-3.820312-8.535156-8.53125-8.535156h-8.535156c-4.710937 0-8.53125 3.820313-8.53125 8.535156 0 4.710938 3.820313 8.53125 8.53125 8.53125zm0 0"/><path d="m238.933594 145.066406c-4.714844 0-8.535156 3.820313-8.535156 8.535156 0 4.710938 3.820312 8.53125 8.535156 8.53125h25.601562c4.710938 0 8.53125-3.820312 8.53125-8.53125 0-4.714843-3.820312-8.535156-8.53125-8.535156zm0 0"/><path d="m196.265625 196.265625h68.269531c4.710938 0 8.53125-3.820313 8.53125-8.53125 0-4.714844-3.820312-8.535156-8.53125-8.535156h-68.269531c-4.710937 0-8.53125 3.820312-8.53125 8.535156 0 4.710937 3.820313 8.53125 8.53125 8.53125zm0 0"/><path d="m307.199219 128h51.199219c9.425781 0 17.066406-7.640625 17.066406-17.066406v-34.132813c0-9.425781-7.640625-17.066406-17.066406-17.066406h-51.199219c-9.425781 0-17.066407 7.640625-17.066407 17.066406v34.132813c0 9.425781 7.640626 17.066406 17.066407 17.066406zm0-51.199219h51.199219v34.132813h-51.199219zm0 0"/><path d="m298.667969 162.132812h8.53125c4.714843 0 8.535156-3.820312 8.535156-8.53125 0-4.714843-3.820313-8.535156-8.535156-8.535156h-8.53125c-4.714844 0-8.535157 3.820313-8.535157 8.535156 0 4.710938 3.820313 8.53125 8.535157 8.53125zm0 0"/><path d="m341.332031 145.066406c-4.710937 0-8.53125 3.820313-8.53125 8.535156 0 4.710938 3.820313 8.53125 8.53125 8.53125h25.601563c4.710937 0 8.53125-3.820312 8.53125-8.53125 0-4.714843-3.820313-8.535156-8.53125-8.535156zm0 0"/><path d="m298.667969 196.265625h68.265625c4.710937 0 8.53125-3.820313 8.53125-8.53125 0-4.714844-3.820313-8.535156-8.53125-8.535156h-68.265625c-4.714844 0-8.535157 3.820312-8.535157 8.535156 0 4.710937 3.820313 8.53125 8.535157 8.53125zm0 0"/><path d="m409.601562 128h51.199219c9.425781 0 17.066407-7.640625 17.066407-17.066406v-34.132813c0-9.425781-7.640626-17.066406-17.066407-17.066406h-51.199219c-9.425781 0-17.066406 7.640625-17.066406 17.066406v34.132813c0 9.425781 7.640625 17.066406 17.066406 17.066406zm0-51.199219h51.199219v34.132813h-51.199219zm0 0"/><path d="m401.066406 162.132812h8.535156c4.710938 0 8.53125-3.820312 8.53125-8.53125 0-4.714843-3.820312-8.535156-8.53125-8.535156h-8.535156c-4.710937 0-8.53125 3.820313-8.53125 8.535156 0 4.710938 3.820313 8.53125 8.53125 8.53125zm0 0"/><path d="m443.734375 145.066406c-4.714844 0-8.535156 3.820313-8.535156 8.535156 0 4.710938 3.820312 8.53125 8.535156 8.53125h25.597656c4.714844 0 8.535157-3.820312 8.535157-8.53125 0-4.714843-3.820313-8.535156-8.535157-8.535156zm0 0"/><path d="m401.066406 196.265625h68.265625c4.714844 0 8.535157-3.820313 8.535157-8.53125 0-4.714844-3.820313-8.535156-8.535157-8.535156h-68.265625c-4.710937 0-8.53125 3.820312-8.53125 8.535156 0 4.710937 3.820313 8.53125 8.53125 8.53125zm0 0"/><path d="m128 401.066406h17.066406c4.714844 0 8.535156-3.820312 8.535156-8.53125 0-4.714844-3.820312-8.535156-8.535156-8.535156h-17.066406c-4.710938 0-8.535156 3.820312-8.535156 8.535156 0 4.710938 3.824218 8.53125 8.535156 8.53125zm0 0"/><path d="m179.199219 401.066406h68.265625c4.714844 0 8.535156-3.820312 8.535156-8.53125 0-4.714844-3.820312-8.535156-8.535156-8.535156h-68.265625c-4.710938 0-8.53125 3.820312-8.53125 8.535156 0 4.710938 3.820312 8.53125 8.53125 8.53125zm0 0"/><path d="m435.199219 384h-153.597657c-4.714843 0-8.535156 3.820312-8.535156 8.535156 0 4.710938 3.820313 8.53125 8.535156 8.53125h153.597657c4.714843 0 8.535156-3.820312 8.535156-8.53125 0-4.714844-3.820313-8.535156-8.535156-8.535156zm0 0"/><path d="m435.199219 418.132812h-17.066407c-4.710937 0-8.53125 3.820313-8.53125 8.535157 0 4.710937 3.820313 8.53125 8.53125 8.53125h17.066407c4.714843 0 8.535156-3.820313 8.535156-8.53125 0-4.714844-3.820313-8.535157-8.535156-8.535157zm0 0"/><path d="m384 435.199219c4.710938 0 8.535156-3.820313 8.535156-8.53125 0-4.714844-3.824218-8.535157-8.535156-8.535157h-68.265625c-4.714844 0-8.535156 3.820313-8.535156 8.535157 0 4.710937 3.820312 8.53125 8.535156 8.53125zm0 0"/><path d="m128 435.199219h153.601562c4.710938 0 8.53125-3.820313 8.53125-8.53125 0-4.714844-3.820312-8.535157-8.53125-8.535157h-153.601562c-4.710938 0-8.535156 3.820313-8.535156 8.535157 0 4.710937 3.824218 8.53125 8.535156 8.53125zm0 0"/><path d="m145.066406 452.265625h-17.066406c-4.710938 0-8.535156 3.820313-8.535156 8.535156 0 4.710938 3.824218 8.53125 8.535156 8.53125h17.066406c4.714844 0 8.535156-3.820312 8.535156-8.53125 0-4.714843-3.820312-8.535156-8.535156-8.535156zm0 0"/><path d="m247.464844 452.265625h-68.265625c-4.710938 0-8.53125 3.820313-8.53125 8.535156 0 4.710938 3.820312 8.53125 8.53125 8.53125h68.265625c4.714844 0 8.535156-3.820312 8.535156-8.53125 0-4.714843-3.820312-8.535156-8.535156-8.535156zm0 0"/><path d="m435.199219 452.265625h-153.597657c-4.714843 0-8.535156 3.820313-8.535156 8.535156 0 4.710938 3.820313 8.53125 8.535156 8.53125h153.597657c4.714843 0 8.535156-3.820312 8.535156-8.53125 0-4.714843-3.820313-8.535156-8.535156-8.535156zm0 0"/></svg>