<svg xmlns="http://www.w3.org/2000/svg" width="590.871" height="412.292" viewBox="0 0 590.871 412.292">
  <g id="Arte-Quem-Somos" transform="translate(-0.004 0)">
    <path id="Caminho_1402" data-name="Caminho 1402" d="M108.209,474.731H624.9c42.827-35.726,20.788-143.227-14.985-165.02-38.5-23.459,22.64-104.588-36.676-130.919-38.729-17.192-100.325,1.547-92.04-44.453,11.489-63.8-122.8-80.138-221.733-62.946-106.966,18.59-9.284,109.992-126.908,128.4-60.482,9.47-48.8,90.49-43.156,107.222,4.912,14.577,37.409,37.717-7.754,69.557C15.427,423.272,106.648,473.862,108.209,474.731Z" transform="translate(-57.57 -65)" fill="#4d519d" opacity="0.18"/>
    <path id="Caminho_1403" data-name="Caminho 1403" d="M2045.133,668.28s-8.458,18.413-14.15,26.192-11.117,15.216-15.654,36.805-3.764,23.758-5.007,29.335-9.331,28.168-9.379,32.311-16.348,27.726-20.525,38.766-11.57,26.8-11.155,34.832l1.858-.472a86.356,86.356,0,0,1,14.4-37.634c12.886-18.917,11.044-22.487,25.68-32.216s24.085-36.554,24.085-36.554,14.9-29.155,14.2-44.315S2052.738,686.5,2045.133,668.28Z" transform="translate(-1535.537 -531.412)" fill="#256653"/>
    <path id="Caminho_1404" data-name="Caminho 1404" d="M1990.961,543.44s-.492,12.1-4.395,19.284-7.26,11.55-7.97,19.325-3.16,27.815-14.039,37.6-12.269,39.106-20.552,47.974-9.363,15.246-7.834,30.458,6.725,36.3-5.288,63.81l-2.722-6.845s8.594-22.637,6.513-35.893-9.32-33.284-6.67-42.879-7.206-11.482-1.271-26.011,3.5-19.577,11.57-32.139c0,0,.828-.588,2.949-11.217s19.246-30.108,27.136-36.753S1987.662,552.839,1990.961,543.44Z" transform="translate(-1501.173 -434.895)" fill="#256653"/>
    <path id="Caminho_1405" data-name="Caminho 1405" d="M1981.5,807.43s-9.449,16.176-9.583,26.587.994,18.883-3.786,33.139,4.708,23.272,1.971,31.145-2.949,17.192-2.863,24.259-10.822,30.46-12.478,42.3.454,11.884.454,11.884,1.815-15.636,4.311-20.807,10.139-23,11.922-29.895,6.613-11.323,10.781-23,10.094-21.519,9.642-38.094S1998.1,830.882,1981.5,807.43Z" transform="translate(-1523.846 -638.993)" fill="#3c8f7c"/>
    <path id="Caminho_1406" data-name="Caminho 1406" d="M1981.716,1235.339s4.406-20.53,22.984-22.581,29.493,1.624,42.62-13.374,20.75-38.8,24.942-42.9c0,0-6.595-3.4-17.558,6.856s-18.667,18.027-25.015,23.994-11.5,2.078-18.2,6.012c-5.617,3.3-12.879,12.827-16.078,17.818a22.464,22.464,0,0,1-3.687,4.415c-1.286,1.189-2.82,2.645-3.8,3.716-1.967,2.144-7.641,16.108-7.641,16.108Z" transform="translate(-1544.068 -908.439)" fill="#3c8f7c"/>
    <path id="Caminho_1407" data-name="Caminho 1407" d="M1831.852,1113.04s6.55-25.108,2.162-37.4-18.116-21.378-17.564-29.1,9.368-28.586,2.18-44.108c0,0-2.722,13.853-5.425,16.934s-21.183,15.509-17.907,31.923,21.253,20.248,25.68,25.081,10.4,4.826,10.436,8.038,1.2,14.894-.78,26.422Z" transform="translate(-1400.754 -789.761)" fill="#3c8f7c"/>
    <path id="Caminho_1408" data-name="Caminho 1408" d="M1962.111,945.47l9.2-26.5s5.4-21.315,8.535-39.088,1.658-72.454,1.658-72.454-9.449,16.176-9.583,26.587.994,18.883-3.786,33.139,4.708,23.272,1.972,31.145-2.949,17.192-2.863,24.259-10.822,30.46-12.478,42.3c-.908,6.489-.681,9.431-.293,10.767C1952.993,965.271,1962.111,945.47,1962.111,945.47Z" transform="translate(-1523.853 -638.993)" fill="#327f6b"/>
    <path id="Caminho_1409" data-name="Caminho 1409" d="M2027.617,1200.975c-8.206,1.638-15.543,1.08-25.285,8.331a81.472,81.472,0,0,0-15.47,14.994s-4.379,7.825-6.189,11.952c-.261.631-.413,1.007-.413,1.007l1.436-.075s4.406-20.53,22.985-22.581,29.493,1.624,42.62-13.374,20.75-38.8,24.942-42.9c0,0-13.959,10.86-22.587,20.473S2035.83,1199.335,2027.617,1200.975Z" transform="translate(-1544.053 -910.284)" fill="#327f6b"/>
    <path id="Caminho_1410" data-name="Caminho 1410" d="M1813.206,1019.327c-2.7,3.083-21.183,15.509-17.907,31.923s21.253,20.248,25.68,25.081,10.4,4.826,10.436,8.038,1.2,14.894-.781,26.422l.531.962a146.951,146.951,0,0,0,2.754-16.562c.715-8.447-.653-11.945-3.369-18.787s-19.588-20.784-23.822-28.112,8.154-19.579,10.89-25.494.991-20.418.991-20.418S1815.9,1016.246,1813.206,1019.327Z" transform="translate(-1400.754 -789.714)" fill="#327f6b"/>
    <path id="Caminho_1411" data-name="Caminho 1411" d="M1961.265,1391.445l2.888-6.981c2.242-5.134,7.974-7.584,12.807-5.475h0c12.181,5.316,17.469,20.112,11.827,33.051l-4.129,9.458a11.855,11.855,0,0,0,1.261,11.915,10.493,10.493,0,0,1,1.039,10.5l-2.176,4.991a19.837,19.837,0,0,1-12.374,11.042,12.024,12.024,0,0,0-7.475,6.754l-3.081,7.06c-3.4,7.8-12.126,11.532-19.475,8.326l-4.192-1.831c-7.349-3.208-10.543-12.135-7.135-19.942h0c5.511-9.333,5.07-16.3,3.117-21.024a28.265,28.265,0,0,1,.27-22.054l.436-1a28.057,28.057,0,0,1,17.145-15.516C1955.339,1399.66,1958.808,1397.071,1961.265,1391.445Z" transform="translate(-1504.952 -1080.296)" fill="#50bfa5"/>
    <path id="Caminho_1412" data-name="Caminho 1412" d="M1839.66,1616.976c5.9-7.664,38.319-48.714,59.44-55.556,23.327-7.55,1.341,22.442,1.341,22.442s41.379-45.247,56.566-41.168c13.919,3.739,0,31.785,0,31.785s15.677-15.532,34.689-15.532c18.5,0-12.932,55.08-14.624,58.029Z" transform="translate(-1435.351 -1207.245)" fill="#96d9c9"/>
    <path id="Caminho_1413" data-name="Caminho 1413" d="M2261.669,1427.1a272.67,272.67,0,0,0-36.3,86.892l-1.159-.311a274.414,274.414,0,0,1,36.159-86.166c3.923-6.125,8.167-13.4,15.5-15.793.141-.045.2.17.059.227C2269.224,1414.473,2265.34,1421.365,2261.669,1427.1Z" transform="translate(-1732.657 -1106.181)" fill="#3c8f7c"/>
    <path id="Caminho_1414" data-name="Caminho 1414" d="M2247.28,1628.354a340.746,340.746,0,0,1,69.171-70.088c.274-.206.642.27.367.481a340.411,340.411,0,0,0-68.1,69.99Z" transform="translate(-1750.493 -1219.447)" fill="#3c8f7c"/>
    <path id="Caminho_1415" data-name="Caminho 1415" d="M2391.773,1389.084a12.028,12.028,0,0,1,2.591,4.5,9.255,9.255,0,0,1,.082,4.594,9.992,9.992,0,0,0,2.571-4.444c.83-2.65.25-6.323-.785-7.539-1.783-2.752-4.9-3.031-5.506-1.7C2390.083,1385.829,2390.9,1387.628,2391.773,1389.084Z" transform="translate(-1861.217 -1084.543)" fill="#3c8f7c"/>
    <path id="Caminho_1416" data-name="Caminho 1416" d="M2383.176,1491.9a11.956,11.956,0,0,0-4.451-2.679,9.345,9.345,0,0,0-4.592-.172,10.018,10.018,0,0,1,4.5-2.48c2.664-.778,6.325-.125,7.521.932,2.723,1.838,2.934,4.959,1.588,5.538C2386.391,1493.66,2384.6,1492.8,2383.176,1491.9Z" transform="translate(-1848.565 -1163.788)" fill="#3c8f7c"/>
    <path id="Caminho_1417" data-name="Caminho 1417" d="M2356.233,1537.427a11.927,11.927,0,0,0-4.449-2.677,9.352,9.352,0,0,0-4.592-.175,10,10,0,0,1,4.494-2.48c2.666-.778,6.327-.125,7.523.932,2.722,1.838,2.933,4.96,1.588,5.538C2359.459,1539.183,2357.671,1538.332,2356.233,1537.427Z" transform="translate(-1827.737 -1198.988)" fill="#3c8f7c"/>
    <path id="Caminho_1418" data-name="Caminho 1418" d="M2452.183,1643.039a11.934,11.934,0,0,0-4.451-2.679,9.346,9.346,0,0,0-4.59-.175,9.987,9.987,0,0,1,4.495-2.48c2.664-.778,6.325-.125,7.521.932,2.723,1.838,2.934,4.959,1.588,5.538C2455.411,1644.793,2453.626,1643.942,2452.183,1643.039Z" transform="translate(-1901.918 -1280.638)" fill="#3c8f7c"/>
    <path id="Caminho_1419" data-name="Caminho 1419" d="M2501.226,1599.844a11.958,11.958,0,0,0-4.451-2.679,9.312,9.312,0,0,0-4.592-.172,10.016,10.016,0,0,1,4.5-2.482c2.663-.776,6.325-.122,7.521.932,2.723,1.838,2.934,4.959,1.588,5.54C2504.45,1601.6,2502.664,1600.75,2501.226,1599.844Z" transform="translate(-1939.833 -1247.244)" fill="#3c8f7c"/>
    <path id="Caminho_1420" data-name="Caminho 1420" d="M2352.178,1440.433a12,12,0,0,1,3.267,4.038,9.239,9.239,0,0,1,.805,4.522,10.013,10.013,0,0,0,1.838-4.794c.4-2.747-.751-6.282-1.962-7.321-2.2-2.437-5.318-2.219-5.706-.808C2350,1437.481,2351.085,1439.133,2352.178,1440.433Z" transform="translate(-1830.161 -1124.203)" fill="#3c8f7c"/>
    <path id="Caminho_1421" data-name="Caminho 1421" d="M2309.151,1488.549c.756.4,3.4,1.134,4.724,3.1a7.957,7.957,0,0,1,1.588,4.7,13.265,13.265,0,0,0,1.792-6.141c.188-3.237-1.736-6.688-3.431-7.326-3.137-1.776-7.153-.193-7.487,1.552C2305.968,1486.194,2307.581,1487.569,2309.151,1488.549Z" transform="translate(-1796.111 -1160.606)" fill="#3c8f7c"/>
    <path id="Caminho_1422" data-name="Caminho 1422" d="M2265.5,1565.834c.812.268,3.535.54,5.175,2.269a8.008,8.008,0,0,1,2.361,4.367,13.354,13.354,0,0,0,.735-6.352c-.361-3.224-2.836-6.3-4.615-6.647-3.392-1.221-7.083,1.014-7.115,2.788C2261.962,1564.046,2263.782,1565.133,2265.5,1565.834Z" transform="translate(-1761.904 -1220.147)" fill="#3c8f7c"/>
    <path id="Caminho_1423" data-name="Caminho 1423" d="M2393.262,1625.6c.592.37,2.7,1.109,3.664,2.793a6.542,6.542,0,0,1,1.028,3.913,10.875,10.875,0,0,0,1.815-4.891c.338-2.625-1.03-5.54-2.373-6.157-2.452-1.622-5.808-.563-6.176.837C2390.8,1623.5,2392.037,1624.716,2393.262,1625.6Z" transform="translate(-1861.714 -1267.556)" fill="#3c8f7c"/>
    <path id="Caminho_1424" data-name="Caminho 1424" d="M2446.841,1413.871a7.247,7.247,0,0,0-2.516-1.781,5.479,5.479,0,0,0-2.709-.3,5.913,5.913,0,0,1,2.768-1.271,5.807,5.807,0,0,1,4.408.88c1.527,1.2,1.518,3.061.7,3.344S2447.651,1414.468,2446.841,1413.871Z" transform="translate(-1900.739 -1105.175)" fill="#3c8f7c"/>
    <path id="Caminho_1425" data-name="Caminho 1425" d="M2444.45,1383.085a7.128,7.128,0,0,1-.127,3.079,5.516,5.516,0,0,1-1.413,2.332,6.127,6.127,0,0,0,4.69-5.447c-.023-1.944-1.5-3.072-2.224-2.593S2444.471,1382.083,2444.45,1383.085Z" transform="translate(-1901.738 -1081.931)" fill="#3c8f7c"/>
    <path id="Caminho_1426" data-name="Caminho 1426" d="M2549.551,1563.395a7.257,7.257,0,0,0-2.517-1.778,5.528,5.528,0,0,0-2.708-.3,5.948,5.948,0,0,1,2.768-1.271,5.828,5.828,0,0,1,4.408.88c1.527,1.207,1.518,3.063.7,3.346S2550.361,1563.994,2549.551,1563.395Z" transform="translate(-1980.147 -1220.777)" fill="#3c8f7c"/>
    <path id="Caminho_1427" data-name="Caminho 1427" d="M2545.6,1531.969a7.107,7.107,0,0,1,.127,3.079,5.552,5.552,0,0,1-1.218,2.439,6.111,6.111,0,0,0,4.229-5.81c-.181-1.937-1.744-2.949-2.43-2.4A3.244,3.244,0,0,0,2545.6,1531.969Z" transform="translate(-1980.288 -1196.956)" fill="#3c8f7c"/>
    <path id="Caminho_1428" data-name="Caminho 1428" d="M2327.536,1757.762c-17.262,1.892-33.35,9.513-48.821,16.943-10.436,5.012-9.909,6.439-12.024,7.185a.429.429,0,0,1-.522-.585c.817-1.62,2.963-2.723,4.453-3.648a58.229,58.229,0,0,1,5.393-2.949c3.941-1.912,7.981-3.63,12-5.377a173.757,173.757,0,0,1,25.1-9.15,88.1,88.1,0,0,1,14.42-2.57.07.07,0,0,1,.011.141Z" transform="translate(-1765.068 -1373.604)" fill="#3c8f7c"/>
    <path id="Caminho_1429" data-name="Caminho 1429" d="M2463.6,1719.289a11.152,11.152,0,0,1,.395,4.8,8.63,8.63,0,0,1-1.742,3.884,9.181,9.181,0,0,0,3.906-2.722c1.74-1.892,2.7-5.2,2.316-6.627-.408-3.011-2.911-4.474-3.946-3.594S2463.443,1717.724,2463.6,1719.289Z" transform="translate(-1916.692 -1340.485)" fill="#3c8f7c"/>
    <path id="Caminho_1430" data-name="Caminho 1430" d="M2396.562,1743.283a11.106,11.106,0,0,1,.395,4.8,8.569,8.569,0,0,1-1.742,3.882,9.166,9.166,0,0,0,3.907-2.723c1.74-1.892,2.7-5.2,2.319-6.629-.411-3.011-2.913-4.474-3.948-3.594S2396.4,1741.718,2396.562,1743.283Z" transform="translate(-1864.862 -1359.033)" fill="#3c8f7c"/>
    <path id="Caminho_1431" data-name="Caminho 1431" d="M2328.451,1773.644a11.18,11.18,0,0,1,.395,4.8,8.6,8.6,0,0,1-1.742,3.882,9.181,9.181,0,0,0,3.907-2.723c1.74-1.892,2.7-5.2,2.316-6.629-.408-3.008-2.913-4.474-3.945-3.594S2328.292,1772.079,2328.451,1773.644Z" transform="translate(-1812.204 -1382.505)" fill="#3c8f7c"/>
    <path id="Caminho_1432" data-name="Caminho 1432" d="M2468.318,1776.719a10.18,10.18,0,0,0-2.384-3.755,7.959,7.959,0,0,0-3.453-1.89,8.576,8.576,0,0,1,4.392-.182c2.339.422,4.9,2.323,5.408,3.591,1.377,2.446.35,4.921-.907,4.85S2469.074,1777.96,2468.318,1776.719Z" transform="translate(-1916.87 -1383.705)" fill="#3c8f7c"/>
    <path id="Caminho_1433" data-name="Caminho 1433" d="M2398.588,1801.4a10.158,10.158,0,0,0-2.385-3.755,7.958,7.958,0,0,0-3.453-1.89,8.583,8.583,0,0,1,4.395-.182c2.339.422,4.894,2.323,5.406,3.591,1.377,2.446.349,4.921-.907,4.851S2399.346,1802.641,2398.588,1801.4Z" transform="translate(-1862.959 -1402.785)" fill="#3c8f7c"/>
    <path id="Caminho_1434" data-name="Caminho 1434" d="M2526.286,1760.081a6.57,6.57,0,0,0-1.994-2.042,5.067,5.067,0,0,0-2.416-.73,5.5,5.5,0,0,1,2.722-.694,5.4,5.4,0,0,1,3.871,1.54c1.189,1.361.871,3.045.074,3.165S2526.926,1760.762,2526.286,1760.081Z" transform="translate(-1962.79 -1372.831)" fill="#3c8f7c"/>
    <path id="Caminho_1435" data-name="Caminho 1435" d="M2525.4,1731.328a6.626,6.626,0,0,1-.631,2.784,5.092,5.092,0,0,1-1.678,1.885,5.48,5.48,0,0,0,2.693-.837,5.406,5.406,0,0,0,2.5-3.337c.3-1.777-.851-3.052-1.588-2.736S2525.59,1730.414,2525.4,1731.328Z" transform="translate(-1963.73 -1351.515)" fill="#3c8f7c"/>
    <path id="Caminho_1436" data-name="Caminho 1436" d="M425.454,954.88c-20.287-18.088-30.716-44.063-35.893-62.671a185.112,185.112,0,0,1-6.448-36.481l-1.1-.068a185.838,185.838,0,0,0,6.484,36.737c5.218,18.79,15.768,45.032,36.3,63.343Z" transform="translate(-308.401 -676.281)" fill="#3c8f7c"/>
    <path id="Caminho_1437" data-name="Caminho 1437" d="M365.16,797.723a15.912,15.912,0,0,1-1.969,12.217,18.631,18.631,0,0,1-6.97-11.053,15.921,15.921,0,0,1,1.969-12.217A18.642,18.642,0,0,1,365.16,797.723Z" transform="translate(-288.139 -622.943)" fill="#3c8f7c"/>
    <path id="Caminho_1438" data-name="Caminho 1438" d="M330.255,877.93a18.687,18.687,0,0,1,5.933,11.634,16.187,16.187,0,0,1-11.552-4.633A18.622,18.622,0,0,1,318.7,873.3,16.2,16.2,0,0,1,330.255,877.93Z" transform="translate(-259.454 -689.905)" fill="#3c8f7c"/>
    <path id="Caminho_1439" data-name="Caminho 1439" d="M322.468,952.579a17.8,17.8,0,0,1,10.012,8.061,13.868,13.868,0,0,1-11.718,1.246,17.8,17.8,0,0,1-10.012-8.063A13.868,13.868,0,0,1,322.468,952.579Z" transform="translate(-253.308 -750.64)" fill="#3c8f7c"/>
    <path id="Caminho_1440" data-name="Caminho 1440" d="M359.625,1027.265a13.047,13.047,0,0,1,7.75,7.366,9.847,9.847,0,0,1-9.465,1.938,13.042,13.042,0,0,1-7.75-7.366A9.847,9.847,0,0,1,359.625,1027.265Z" transform="translate(-283.776 -808.587)" fill="#3c8f7c"/>
    <path id="Caminho_1441" data-name="Caminho 1441" d="M404.812,911.379a11.89,11.89,0,0,1,9.755-3.514,13.354,13.354,0,0,1-3.782,10.123,11.908,11.908,0,0,1-9.755,3.514A13.345,13.345,0,0,1,404.812,911.379Z" transform="translate(-323.087 -716.591)" fill="#3c8f7c"/>
    <path id="Caminho_1442" data-name="Caminho 1442" d="M418.684,964.253a11.9,11.9,0,0,1,9.755-3.517,13.338,13.338,0,0,1-3.768,10.123,11.9,11.9,0,0,1-9.756,3.517A13.331,13.331,0,0,1,418.684,964.253Z" transform="translate(-333.822 -757.468)" fill="#3c8f7c"/>
    <path id="Caminho_1443" data-name="Caminho 1443" d="M303.784,1260.118c-18.733-2.723-34.764-13.839-44.921-22.658a129.085,129.085,0,0,1-17.746-18.73l-.667.383a129.972,129.972,0,0,0,17.866,18.864c10.248,8.918,26.447,20.128,45.411,22.894Z" transform="translate(-198.957 -956.981)" fill="#50bfa5"/>
    <path id="Caminho_1444" data-name="Caminho 1444" d="M213.171,1190.052a11.081,11.081,0,0,1,3.544,7.857,12.99,12.99,0,0,1-8.294-3.75,11.079,11.079,0,0,1-3.541-7.859A13.04,13.04,0,0,1,213.171,1190.052Z" transform="translate(-171.455 -931.908)" fill="#50bfa5"/>
    <path id="Caminho_1445" data-name="Caminho 1445" d="M218.944,1246.673a12.953,12.953,0,0,1,7.913,4.485,11.272,11.272,0,0,1-8.492,1.74,12.979,12.979,0,0,1-7.916-4.487A11.257,11.257,0,0,1,218.944,1246.673Z" transform="translate(-175.763 -978.442)" fill="#50bfa5"/>
    <path id="Caminho_1446" data-name="Caminho 1446" d="M245.634,1284.132a12.405,12.405,0,0,1,8.916.844,9.66,9.66,0,0,1-6.337,5.218,12.4,12.4,0,0,1-8.914-.844A9.694,9.694,0,0,1,245.634,1284.132Z" transform="translate(-198.068 -1007.185)" fill="#50bfa5"/>
    <path id="Caminho_1447" data-name="Caminho 1447" d="M296.442,1316.311a9.133,9.133,0,0,1,7.333,1.307,6.857,6.857,0,0,1-4.764,4.764,9.131,9.131,0,0,1-7.33-1.307A6.856,6.856,0,0,1,296.442,1316.311Z" transform="translate(-238.564 -1032.199)" fill="#50bfa5"/>
    <path id="Caminho_1448" data-name="Caminho 1448" d="M286.742,1226.42a8.285,8.285,0,0,1,4.326-5.79,9.3,9.3,0,0,1,1.688,7.335,8.288,8.288,0,0,1-4.329,5.79A9.284,9.284,0,0,1,286.742,1226.42Z" transform="translate(-234.615 -958.45)" fill="#50bfa5"/>
    <path id="Caminho_1449" data-name="Caminho 1449" d="M315.076,1251.842a8.292,8.292,0,0,1,4.329-5.792,9.3,9.3,0,0,1,1.686,7.337,8.288,8.288,0,0,1-4.329,5.79A9.3,9.3,0,0,1,315.076,1251.842Z" transform="translate(-256.522 -978.103)" fill="#50bfa5"/>
    <path id="Caminho_1450" data-name="Caminho 1450" d="M254.961,1599.328c-21.61,8.2-45.395,3.871-61.544-1.209a153.305,153.305,0,0,1-30.228-13.159l-.479.907a155.162,155.162,0,0,0,30.435,13.249c16.31,5.132,40.34,9.506,62.215,1.2Z" transform="translate(-138.854 -1240.124)" fill="#96d9c9"/>
    <path id="Caminho_1451" data-name="Caminho 1451" d="M115.263,1562.177a15.607,15.607,0,0,1,8.524,7.961,13.579,13.579,0,0,1-11.1.338,15.606,15.606,0,0,1-8.524-7.961A13.57,13.57,0,0,1,115.263,1562.177Z" transform="translate(-93.587 -1221.721)" fill="#96d9c9"/>
    <path id="Caminho_1452" data-name="Caminho 1452" d="M159.62,1616.519a13.817,13.817,0,0,1,11.151.86,13.28,13.28,0,0,1-8,7.578,13.839,13.839,0,0,1-11.144-.855A13.286,13.286,0,0,1,159.62,1616.519Z" transform="translate(-130.287 -1263.912)" fill="#96d9c9"/>
    <path id="Caminho_1453" data-name="Caminho 1453" d="M218.246,1641.567a13.118,13.118,0,0,1,10.01-4.494,14.345,14.345,0,0,1-3.6,10.733,13.114,13.114,0,0,1-10.007,4.495,14.336,14.336,0,0,1,3.594-10.734Z" transform="translate(-178.974 -1280.412)" fill="#96d9c9"/>
    <path id="Caminho_1454" data-name="Caminho 1454" d="M279.586,1661.025a13.119,13.119,0,0,1,10.007-4.492A14.339,14.339,0,0,1,286,1667.266a13.129,13.129,0,0,1-10.007,4.494A14.34,14.34,0,0,1,279.586,1661.025Z" transform="translate(-226.398 -1295.457)" fill="#96d9c9"/>
    <path id="Caminho_1455" data-name="Caminho 1455" d="M223.241,1578.475a15.248,15.248,0,0,1-3.206-10.275,13.24,13.24,0,0,1,8.764,5.313A15.259,15.259,0,0,1,232,1583.788,13.224,13.224,0,0,1,223.241,1578.475Z" transform="translate(-183.145 -1227.166)" fill="#96d9c9"/>
    <path id="Caminho_1456" data-name="Caminho 1456" d="M286.459,1598.536a15.313,15.313,0,0,1-3.364-10.236,13.179,13.179,0,0,1,8.832,5.168,15.318,15.318,0,0,1,3.365,10.239A13.145,13.145,0,0,1,286.459,1598.536Z" transform="translate(-231.909 -1242.706)" fill="#96d9c9"/>
    <path id="Caminho_1457" data-name="Caminho 1457" d="M371.141,1670.715a5.381,5.381,0,0,1,3.4-3.215,6.162,6.162,0,0,1,.2,4.9,5.384,5.384,0,0,1-3.4,3.215A6.171,6.171,0,0,1,371.141,1670.715Z" transform="translate(-299.678 -1303.938)" fill="#96d9c9"/>
    <path id="Caminho_1458" data-name="Caminho 1458" d="M310.906,1210.444s27.531-108.9,18.4-119.829c-12.616-15.121-23.025,35.038-24.048,30.777-9.644-40.233-12.213-91.713-43.333-97.16-17.7-3.1,4.084,38.28,2.775,49.472s-33.171-25.966-52.537-45.438-29.371-7.142-17.133,17.335c11.834,23.67,50.114,49.535,42.223,52.6s-55.795-27.492-61.661-14.424c-7.192,16.022,64.659,37.824,57.9,41.425s-41.111-8.256-40.172,4,47.105,11.8,46.316,17.186c-1.277,8.725-31.812-11.026-33.155,1.048-1.373,12.349,40.172,10.1,39.453,19.738-.413,5.533-9.329-2.816-10.643,4.853-2.995,17.48,51.772,38.777,51.772,38.777Z" transform="translate(-148.422 -802.302)" fill="#3c8f7c"/>
    <path id="Caminho_1459" data-name="Caminho 1459" d="M499.429,1667.317s-26.2-40.172-38.809-47.756c-13.435-8.081-3.208,16.108-3.208,16.108s-27.452-32.67-35.083-26.031-.706,14.325-.706,14.325-24.645-7.3-29.076,1.742c-6.806,13.91,33.765,25.437,33.765,25.437s-17.419-.186-14.214,9.2C416.936,1674.495,499.429,1667.317,499.429,1667.317Z" transform="translate(-315.952 -1258.514)" fill="#50bfa5"/>
    <path id="Caminho_1460" data-name="Caminho 1460" d="M395.17,1624.141c4.431-9.046,29.076-1.742,29.076-1.742s-6.926-7.687.706-14.325,29.593,13.227,29.593,13.227-2.3-16.385,14.234-1.951c11.813,10.309,33.273,46.393,33.273,46.393Z" transform="translate(-318.575 -1256.944)" fill="#96d9c9"/>
    <path id="Caminho_1461" data-name="Caminho 1461" d="M622.426,915.573l1.175-.8c-21.326-32.307-27.844-70.664-29.55-97.153a257.941,257.941,0,0,1,1.432-50.323l-1.457-.424a259.5,259.5,0,0,0-1.45,50.64C594.294,844.224,600.866,882.922,622.426,915.573Z" transform="translate(-470.755 -607.635)" fill="#96d9c9"/>
    <path id="Caminho_1462" data-name="Caminho 1462" d="M585.519,687.269c.048,6.489-2.205,11.854-5.8,15.073a28.926,28.926,0,0,1-6.033-17.4c-.045-6.491,2.205-11.856,5.8-15.076A28.9,28.9,0,0,1,585.519,687.269Z" transform="translate(-456.592 -532.642)" fill="#96d9c9"/>
    <path id="Caminho_1463" data-name="Caminho 1463" d="M527.956,773.379a28.277,28.277,0,0,1,4.537,17.71c-4.991-1.42-10.016-5.261-13.653-11a28.248,28.248,0,0,1-4.538-17.71C519.3,763.8,524.322,767.639,527.956,773.379Z" transform="translate(-410.583 -604.164)" fill="#96d9c9"/>
    <path id="Caminho_1464" data-name="Caminho 1464" d="M496.647,874.286a28.414,28.414,0,0,1,10.754,14.8c-4.6,1.286-10.209.227-15.427-3.4a28.393,28.393,0,0,1-10.754-14.8C485.816,869.594,491.413,870.645,496.647,874.286Z" transform="translate(-385.103 -687.643)" fill="#96d9c9"/>
    <path id="Caminho_1465" data-name="Caminho 1465" d="M557.114,1017.379a11.854,11.854,0,0,1,4.907,5.9,7.56,7.56,0,0,1-6.513-.921,11.843,11.843,0,0,1-4.907-5.9A7.6,7.6,0,0,1,557.114,1017.379Z" transform="translate(-438.742 -800.307)" fill="#96d9c9"/>
    <path id="Caminho_1466" data-name="Caminho 1466" d="M565.293,1067.064a11.843,11.843,0,0,1,4.905,5.9,7.61,7.61,0,0,1-6.511-.921,11.827,11.827,0,0,1-4.907-5.9A7.619,7.619,0,0,1,565.293,1067.064Z" transform="translate(-445.067 -838.722)" fill="#96d9c9"/>
    <path id="Caminho_1467" data-name="Caminho 1467" d="M603.177,864.124a14.782,14.782,0,0,1,13.524-.39,15.726,15.726,0,0,1-7.578,11.57,14.781,14.781,0,0,1-13.524.39A15.724,15.724,0,0,1,603.177,864.124Z" transform="translate(-473.533 -681.406)" fill="#96d9c9"/>
    <path id="Caminho_1468" data-name="Caminho 1468" d="M606.9,938.971a14.788,14.788,0,0,1,13.524-.388,15.72,15.72,0,0,1-7.578,11.57,14.781,14.781,0,0,1-13.524.388A15.717,15.717,0,0,1,606.9,938.971Z" transform="translate(-476.409 -739.274)" fill="#96d9c9"/>
    <path id="Caminho_1469" data-name="Caminho 1469" d="M612.192,1048.275a9.629,9.629,0,0,1,8.8-.252,10.218,10.218,0,0,1-4.932,7.53,9.621,9.621,0,0,1-8.8.252A10.275,10.275,0,0,1,612.192,1048.275Z" transform="translate(-482.548 -824.275)" fill="#96d9c9"/>
    <path id="Caminho_1470" data-name="Caminho 1470" d="M1931.178,1405.52a5.489,5.489,0,0,1,2.65.851,47.02,47.02,0,0,0,4.851-2.2s13.233-6.532,13.934-6.911l9.551-12.024,7.362,3.4s-10.743,12.775-11.423,13.338-19.652,7.217-21.3,7.859c0,0-1.665,1.52-2.741,2.439a11.359,11.359,0,0,1-2.859,1.49,12.042,12.042,0,0,1-2.917,1.023c-1.445.315-.24-.667-.24-.667s2.559-1.08,2.432-1.275c-.1-.152-1.457.524-3.052.889-.411.093-.817.186-1.189.265-.98.211-1.409-.349-.427-.74a9.635,9.635,0,0,1,1.361-.454,8.065,8.065,0,0,0,1.257-.495,10.91,10.91,0,0,0,1.293-.517c-.041-.034.068-.2-.372-.118a23.234,23.234,0,0,1-2.382.667c-.454.052-1.375.227-1.375.227s-1.642.156-1.654-.073c-.023-.5.987-.783,1.608-.771a6.4,6.4,0,0,1,1.361-.343s1.9-.753,1.792-1.035a13.694,13.694,0,0,0-2.419.145c-1.293.089-2.23.089-2.3-.163-.109-.4.921-.547.921-.547s.908-.131,1.2-.2c.347-.079,1.361-.4,1.361-.4s3.5-1.286,3.376-1.543-.706-.8-.953-.8-.68.247-.935.25-.778-.048-.814-.358,1.334-.953,1.334-.953A4.05,4.05,0,0,1,1931.178,1405.52Z" transform="translate(-1500.509 -1085.714)" fill="#f8a492"/>
    <path id="Caminho_1471" data-name="Caminho 1471" d="M2063.13,1371.793s2.384,2.164,3.376,2.877c.823.592,4.839,2.527,4.839,2.527s3.993-6.126,5.74-9.184c2.119-3.723,3.587-9.256,3.085-9.406a7.317,7.317,0,0,0-5.125.141C2068.865,1361.584,2063.13,1371.793,2063.13,1371.793Z" transform="translate(-1608.122 -1064.817)" fill="#355389"/>
    <path id="Caminho_1472" data-name="Caminho 1472" d="M1957.121,1485.295a2.289,2.289,0,0,1-2.616-1.005C1954.4,1485.443,1956.145,1486.014,1957.121,1485.295Z" transform="translate(-1524.137 -1162.293)" fill="#fe875e"/>
    <path id="Caminho_1473" data-name="Caminho 1473" d="M535.759,1248.922a21.656,21.656,0,0,0-1.962-10.4c-1.361-2.854-4.744-4.474-7.825-4.476-9.783-.014-11.026,12.968-17.254,17.975-1.9,1.529-4.032,2.775-5.831,4.426-6.65,6.092-3.655,17.369,2.45,22.712,4.238,3.7,10.89,5.813,16.108,2.913a16.465,16.465,0,0,0,6.268-6.781c2.092-3.909,3.442-8.419,4.928-12.587A46.869,46.869,0,0,0,535.759,1248.922Z" transform="translate(-398.941 -968.825)" fill="#13375b"/>
    <path id="Caminho_1474" data-name="Caminho 1474" d="M643.5,1344.534c-3.056-9.27-7.09-9.125-7.09-9.125l3.26,19.738c1.885-.515,4.342-1.663,6.228-2.2A83.2,83.2,0,0,0,643.5,1344.534Z" transform="translate(-505.084 -1047.189)" fill="#f7cc7f"/>
    <path id="Caminho_1475" data-name="Caminho 1475" d="M670.053,1434.827l-11.171-8.521s-1.134-7.952-2.629-15.005c-1.885.531-3.587,2.01-5.472,2.525l2.84,15.8,14.642,7.555,4.134,5.313.942-5.445Z" transform="translate(-516.194 -1105.862)" fill="#f48c7f"/>
    <path id="Caminho_1476" data-name="Caminho 1476" d="M776.508,1105.77a19.247,19.247,0,0,1,9.529,2.514,10.449,10.449,0,0,0,1.152.556,13.141,13.141,0,0,0,17.977-12.285v-45.64H759.535a13.142,13.142,0,0,1-12.285-17.977,10.3,10.3,0,0,1,.556-1.155,19.346,19.346,0,1,0-33.82-.238,10.145,10.145,0,0,1,.549,1.171,13.373,13.373,0,0,1-12.535,18.2H656.76v104a44.418,44.418,0,0,0,44.419,44.417h104v-45.488a13.23,13.23,0,0,0-18.061-12.383,10.324,10.324,0,0,0-1.157.551,19.352,19.352,0,1,1-9.449-36.238Z" transform="translate(-520.818 -790.12)" fill="#42a9ee"/>
    <path id="Caminho_1477" data-name="Caminho 1477" d="M1262.987,1238.368a19.231,19.231,0,0,1,2.949-9.411,10.507,10.507,0,0,0,.608-1.134,13.14,13.14,0,0,0-11.43-18.531l-45.6-2.133-2.13,45.6a13.142,13.142,0,0,1-18.533,11.43,10.558,10.558,0,0,1-1.134-.608,19.353,19.353,0,1,0-1.82,33.763,10.853,10.853,0,0,1,1.2-.492,13.373,13.373,0,0,1,17.594,13.372l-2.115,45.2,103.882,4.857a44.429,44.429,0,0,0,46.445-42.3l4.855-103.882-45.438-2.124a13.234,13.234,0,0,0-13.213,17.469,10.7,10.7,0,0,0,.5,1.182,19.352,19.352,0,1,1-36.64,7.748Z" transform="translate(-908.379 -948.036)" fill="#4d519d"/>
    <path id="Caminho_1478" data-name="Caminho 1478" d="M729.129,611.354a19.227,19.227,0,0,1-2.042,9.651,10,10,0,0,0-.5,1.18,13.138,13.138,0,0,0,13.158,17.338l45.583-2.291-2.291-45.583c-.454-9.268,8.587-16.262,17.338-13.172a10,10,0,0,1,1.18.5,19.359,19.359,0,1,0-1.436-33.784,10.385,10.385,0,0,1-1.134.608,13.372,13.372,0,0,1-18.8-11.607L777.916,489l-103.878,5.218a44.418,44.418,0,0,0-42.132,46.593l5.218,103.864,45.431-2.285a13.229,13.229,0,0,0,11.459-18.66,10.345,10.345,0,0,0-.608-1.134,19.352,19.352,0,1,1,35.719-11.257Z" transform="translate(-501.558 -392.806)" fill="#4d519d"/>
    <path id="Caminho_1479" data-name="Caminho 1479" d="M1374.18,598.566a19.25,19.25,0,0,1-9.54-2.514,10.039,10.039,0,0,0-1.153-.556,13.142,13.142,0,0,0-17.977,12.285v45.64h45.642a13.143,13.143,0,0,1,12.283,17.98,10.041,10.041,0,0,1-.556,1.153,19.351,19.351,0,1,0,33.811.238,10.554,10.554,0,0,1-.549-1.171,13.374,13.374,0,0,1,12.537-18.2h45.247v-104A44.43,44.43,0,0,0,1449.506,505h-104v45.488a13.231,13.231,0,0,0,18.061,12.383,10.546,10.546,0,0,0,1.159-.551,19.35,19.35,0,1,1,9.449,36.238Z" transform="translate(-1053.31 -405.176)" fill="#42a9ee"/>
    <path id="Caminho_1480" data-name="Caminho 1480" d="M512.6,1805.09s-.681,4.792-1.876,6.337a11.787,11.787,0,0,0-1.6,2.114,6.218,6.218,0,0,0,.216,4.83c.281.615-.02.612.622.812a3.932,3.932,0,0,0,4.721-2.223,11.287,11.287,0,0,0,.926-4.084,14.81,14.81,0,0,1,1.552-6.564Z" transform="translate(-406.363 -1410.312)" fill="#f7a491"/>
    <path id="Caminho_1481" data-name="Caminho 1481" d="M614.585,1814.75s.427,5.4.079,7.158c-.184.942-1.214,2.877-.742,3.762a2.364,2.364,0,0,0,1.012,1.1l12.251.2c.667.011.227-.417-.313-.814a24.6,24.6,0,0,0-4.4-2.441c-.184-.089-.851-.515-1.091-.662a8.447,8.447,0,0,1-1.754-1.55c-.878-.982-.955-5.74-.955-5.74Z" transform="translate(-487.604 -1417.781)" fill="#f7a491"/>
    <path id="Caminho_1482" data-name="Caminho 1482" d="M619.589,1493.567s1.54,8.771.529,14.52-5.871,59.061-5.871,59.061l-5.4.3s-1.134-22.268-.93-25.364a47.929,47.929,0,0,1,1.815-8.279l-.535-17.98L616,1492.21Z" transform="translate(-483.036 -1168.416)" fill="#355389"/>
    <path id="Caminho_1483" data-name="Caminho 1483" d="M537.976,1483.254s-4.252,6.416-5.266,11.725.744,21.623-1.2,28.586c-1.053,3.764-5.05,9.581-5.656,14.447s-2.99,17.6-2.99,17.6l5.4,1.073,12.544-31.835,9.839-28.774,2.523-14.819Z" transform="translate(-417.296 -1159.95)" fill="#466eb6"/>
    <path id="Caminho_1484" data-name="Caminho 1484" d="M576.427,1329.117s-5.629-.359-7.857,2.074,4.941,21.682,5.345,24.779-2.065,11.33-2.065,11.33,13.227,2.668,17.015.161c0,0,.4-22.27,0-24.482s-3.78-11.208-4.592-12.092S576.427,1329.117,576.427,1329.117Z" transform="translate(-452.305 -1042.31)" fill="#f7cc7f"/>
    <path id="Caminho_1485" data-name="Caminho 1485" d="M605.886,1295.552s-.029.166-.082.454a42.563,42.563,0,0,1-1.869,7.094c-.79,1.5,2.7,6.264,6.062,5.672,1-.175-.846-4.381-.758-4.828.17-.853.4-2.017.635-3.21.134-.681.268-1.361.395-2l.651-3.315Z" transform="translate(-479.89 -1016.272)" fill="#f7a491"/>
    <path id="Caminho_1486" data-name="Caminho 1486" d="M612.065,1295.941c.052-.281.082-.454.082-.454l5.034-.127-.651,3.321c-.127.638-.261,1.318-.392,1.988a4.716,4.716,0,0,1-2.4-1.209,6.351,6.351,0,0,1-1.815-2.723C611.974,1296.426,612.027,1296.152,612.065,1295.941Z" transform="translate(-486.151 -1016.226)" fill="#f47458"/>
    <path id="Caminho_1487" data-name="Caminho 1487" d="M609.07,1245.344a4.525,4.525,0,0,0-3.857,1.654c-1.484,1.928-3.09,7.891.606,11.133s7.346-.429,7.886-4.311S614.454,1245.2,609.07,1245.344Z" transform="translate(-479.684 -977.547)" fill="#f7a491"/>
    <path id="Caminho_1488" data-name="Caminho 1488" d="M646.19,1275.25c-.44.86-1.182,1.336-1.654,1.064s-.5-1.191-.057-2.042,1.182-1.334,1.654-1.062S646.623,1274.391,646.19,1275.25Z" transform="translate(-511.08 -999.043)" fill="#f7a491"/>
    <path id="Caminho_1489" data-name="Caminho 1489" d="M601.7,1242.375s-3.176,5.672-5.445,5.933-2.566,3.274-2.566,3.274.81-6.942,3.056-8.281A8.347,8.347,0,0,1,601.7,1242.375Z" transform="translate(-472.056 -975.215)" fill="#13375b"/>
    <path id="Caminho_1490" data-name="Caminho 1490" d="M513.635,1844.747a6.017,6.017,0,0,1-5.917-2.478c-.749,1.461-1.114,3.644-.563,4.846.483,1.06,1.9,1.028,3.013,1.071a2.907,2.907,0,0,0,2.675-1.643A9.688,9.688,0,0,0,513.635,1844.747Z" transform="translate(-404.949 -1439.057)" fill="#f47458"/>
    <path id="Caminho_1491" data-name="Caminho 1491" d="M621.28,1850.415a11.071,11.071,0,0,1-6.972-.274c-.345.98-.8,2.212-.56,2.92.3.869.721,1.066,1.094,1.075,2.949.079,10.835.184,13.093.213a.37.37,0,0,0,.286-.606C627.66,1853.073,621.521,1850.562,621.28,1850.415Z" transform="translate(-487.511 -1445.142)" fill="#f47458"/>
    <path id="Caminho_1492" data-name="Caminho 1492" d="M599.595,1269.535c.184,1.007-.186,1.931-.828,2.062s-1.313-.576-1.5-1.588.186-1.931.828-2.062S599.411,1268.53,599.595,1269.535Z" transform="translate(-474.787 -995.02)" fill="#f7a491"/>
    <path id="Caminho_1493" data-name="Caminho 1493" d="M624,1290.38l2.863.129a1.253,1.253,0,0,1-1.375,1.064C623.949,1291.548,624,1290.38,624,1290.38Z" transform="translate(-495.489 -1012.375)" fill="#fff"/>
    <path id="Caminho_1494" data-name="Caminho 1494" d="M1688.372,284.26c.359.014,1.334.34,2.763,3.04,1.815,3.448,4.49,13.862,4.49,13.862l-7.959,2.963-1.023-2.173-1.683-16.734S1688.266,284.255,1688.372,284.26Z" transform="translate(-1315.748 -234.516)" fill="#dd513a"/>
    <path id="Caminho_1495" data-name="Caminho 1495" d="M1605.509,277.64a48.493,48.493,0,0,1,10.52,1.5s1.922,16.5-1.729,29.04c-.814,2.806.681,11.634.681,11.634L1591.4,319.5s2.8-21.342,1.742-24.79-1.077-15.461-1.077-15.461.161-.025,5.3-.908A53.373,53.373,0,0,1,1605.509,277.64Z" transform="translate(-1243.414 -229.398)" fill="#f47458"/>
    <path id="Caminho_1496" data-name="Caminho 1496" d="M1618.642,598.54s.522,6.021,1.482,7.689-.05,4.5-.1,4.891-2.019.944-5.15.61-3.081-1.055-2.827-2.223,1.917-2.668,2.019-3.78a28.859,28.859,0,0,0-.96-5.111Z" transform="translate(-1259.294 -477.494)" fill="#f7a491"/>
    <path id="Caminho_1497" data-name="Caminho 1497" d="M1610.945,440.379s16.278-.908,19.915,1.3-2.579,13-2.579,13-11.325-.522-33.511.76c-5.254.3-5.708-13.7-4.726-14.858S1610.945,440.379,1610.945,440.379Z" transform="translate(-1242.043 -354.93)" fill="#e0973f"/>
    <path id="Caminho_1498" data-name="Caminho 1498" d="M1613.83,639.636c-3.224-.343-2.825-1.926-2.566-3.128a10.6,10.6,0,0,1,1.64-2.477,5.424,5.424,0,0,0,2.155,1.048c1.454.429,3.446-.422,4.717-.953a15.532,15.532,0,0,1,.429,4.156C1620.148,638.683,1617.051,639.981,1613.83,639.636Z" transform="translate(-1258.641 -504.933)" fill="#dd513a"/>
    <path id="Caminho_1499" data-name="Caminho 1499" d="M1588.967,452.6c.651,4.921,3.87,29.421,3.87,29.421l-7.471.926s-9.188-31.989-8.716-36.869,3.909-5.3,3.909-5.3S1587.243,439.57,1588.967,452.6Z" transform="translate(-1231.997 -355.502)" fill="#f7cc7f"/>
    <path id="Caminho_1500" data-name="Caminho 1500" d="M1580.648,292.745c2.2-.826,3.283,19.039,3.58,27.225a96.305,96.305,0,0,0,12.4-.125c.8-.059,2.636-.733,3.428-.835a7.9,7.9,0,0,1,1.949-.093,36.67,36.67,0,0,1,4.562,2.056c.433.454,1.588,1.588,1.4,2.087s-2.244-1.375-2.244-1.375l-1-.563c1.245,1.218,3.63,2.82,3.281,3.4s-2.478-1.057-4.007-2.164c1.311,1.182,2.949,3.3,2.564,3.63-.338.3-2.189-2.155-4.167-2.861-.733-.261-1.466.454-2.042.551a4.165,4.165,0,0,1-1.495.082l-2.142-.606c-.73.066-.749.5-1.486.653-.855.181-2.269.374-3.349.64-6.277,1.534-8.369,2.246-10.291,2.246C1575.775,326.683,1575.437,294.7,1580.648,292.745Z" transform="translate(-1232.259 -241.056)" fill="#f7a491"/>
    <path id="Caminho_1501" data-name="Caminho 1501" d="M1574.187,305.034c-.413-8.376-.352-18.7,4.345-20.459,1.851-.7,5.118,3.482,4.537,20.629A34.5,34.5,0,0,1,1574.187,305.034Z" transform="translate(-1229.983 -234.704)" fill="#dd513a"/>
    <path id="Caminho_1502" data-name="Caminho 1502" d="M1717.851,621.24a4.067,4.067,0,0,0,.515,3.473c1.168,1.384,6.017,2.738,6.654,3.487a2.1,2.1,0,0,1,.592,1.379L1712,629.206l.15-4.113.626-2.949Z" transform="translate(-1336.653 -495.044)" fill="#f7a491"/>
    <path id="Caminho_1503" data-name="Caminho 1503" d="M1716.6,638.518s-3.5,1.413-5.189.576-1.638-1.071-2.128-.758-.662,4.168-.662,4.168l15.307.454c1.066-.025,1.6-.81.74-1.481a12.351,12.351,0,0,0-1.67-.991A47.241,47.241,0,0,0,1716.6,638.518Z" transform="translate(-1334.041 -508.159)" fill="#dd513a"/>
    <path id="Caminho_1504" data-name="Caminho 1504" d="M1718.207,445.381c1.053-2.214,3.446-5.1,7.657-3.362,4.015,1.656,5.093,5.726,3.825,9.894s-9.608,28.67-9.9,32.039l-6.661.043s1.211-19.4,1.509-24.089A45.148,45.148,0,0,1,1718.207,445.381Z" transform="translate(-1337.527 -356.073)" fill="#f7cc7f"/>
    <path id="Caminho_1505" data-name="Caminho 1505" d="M1635.394,359.18h-22.272a1.454,1.454,0,0,0-1.343.907l-6.854,16.777h-12.276a.621.621,0,0,0-.619.624h0a.622.622,0,0,0,.619.622h34.938a2.434,2.434,0,0,0,2.223-1.445l6.9-15.427a1.457,1.457,0,0,0-1.32-2.058Z" transform="translate(-1243.901 -292.438)"/>
    <path id="Caminho_1506" data-name="Caminho 1506" d="M1722.107,396.711a1.324,1.324,0,0,1-1.463,1.134,1.311,1.311,0,0,1-.919-1.6,1.327,1.327,0,0,1,1.466-1.134A1.308,1.308,0,0,1,1722.107,396.711Z" transform="translate(-1342.602 -320.201)" fill="#fff"/>
    <path id="Caminho_1507" data-name="Caminho 1507" d="M1634.683,182.991a16.97,16.97,0,0,1-1.969-.79,9.916,9.916,0,0,0-2.246-.846c-1.243-.193-3.378-.064-4.558,1.214-1.468,1.588-4.084.288-3.551,8.632.594,9.445,5.847,8.408,5.974,8.247s4.683-6.042,4.683-6.042,1.588,3.485,1.588,3.358S1642.742,185.7,1634.683,182.991Z" transform="translate(-1267.295 -154.901)" fill="#0e2e35"/>
    <path id="Caminho_1508" data-name="Caminho 1508" d="M1640.963,246.316l.454,3.374s1.016,4.862-.291,5.8-5.556-5.937-5.556-5.937l.454-8.551Z" transform="translate(-1277.563 -201.07)" fill="#f7a491"/>
    <path id="Caminho_1509" data-name="Caminho 1509" d="M1636.91,243.772a9.638,9.638,0,0,0,5.465,5.395l-.386-2.861L1637.055,241Z" transform="translate(-1278.599 -201.07)" fill="#f47458"/>
    <path id="Caminho_1510" data-name="Caminho 1510" d="M1638.715,199.822a4.5,4.5,0,0,1,5.182,4.537,33.782,33.782,0,0,1-.379,4.329c-.6,3.9-3.26,7.326-5.016,7.019s-6.18-3.666-5.4-9.209C1633.581,203.084,1635.811,200.287,1638.715,199.822Z" transform="translate(-1275.583 -169.194)" fill="#f7a491"/>
    <path id="Caminho_1511" data-name="Caminho 1511" d="M1630.088,226.289a1.31,1.31,0,1,1-1-1.772A1.45,1.45,0,0,1,1630.088,226.289Z" transform="translate(-1271.35 -188.315)" fill="#f7a491"/>
    <path id="Caminho_1512" data-name="Caminho 1512" d="M1632.111,200.959s2.126.529,2.913-.837,3.609-4.311,7.192-3.094-3.153-2.972-3.439-2.972l-3.728-.025s-2.652,2.183-2.747,2.423-.862,2.852-.862,2.852Z" transform="translate(-1274.37 -164.756)" fill="#0e2e35"/>
    <path id="Caminho_1513" data-name="Caminho 1513" d="M1651.49,249.71l3.857.737a1.723,1.723,0,0,1-2.078,1.182C1651.193,251.294,1651.49,249.71,1651.49,249.71Z" transform="translate(-1289.86 -207.804)" fill="#fff"/>
    <path id="Caminho_1514" data-name="Caminho 1514" d="M1363.27,1428.456a3.991,3.991,0,0,0,.42,1.021,38.659,38.659,0,0,0,4.025,5.357l2.178-4.9s-.356-1.541-.971-3.741C1366.821,1426.739,1364.817,1427.054,1363.27,1428.456Z" transform="translate(-1067.04 -1117.374)" fill="#f8a492"/>
    <path id="Caminho_1515" data-name="Caminho 1515" d="M1358.42,1359.028s-12.138,5.218-12.53,5.127c-.252-.066-4.978-7.975-5.03-15.414-.023-3.435,3.546-7.569,7.525-6.75,2.006.411,1.974.969,4.939,5.277S1358.42,1359.028,1358.42,1359.028Z" transform="translate(-1049.714 -1052.197)" fill="#13375b"/>
    <path id="Caminho_1516" data-name="Caminho 1516" d="M1461.152,1830.47l-.288,4.764a25.933,25.933,0,0,0-.524,2.652c0,2.067,9.815-1.756,7.616-2.672-.2-.082-1.243-.708-1.309-1.411-.1-1.084-.356-3.278-.356-3.278Z" transform="translate(-1142.088 -1429.934)" fill="#f7a491"/>
    <path id="Caminho_1517" data-name="Caminho 1517" d="M1466.748,1851.061s-2.3.631-3.485.79-2.736-1.173-3.571-.812c-.907.395-.883,3.957-.883,3.957s12.355,1.014,15.831-.034C1476.018,1854.543,1471.458,1852.533,1466.748,1851.061Z" transform="translate(-1140.905 -1445.788)" fill="#dd513a"/>
    <path id="Caminho_1518" data-name="Caminho 1518" d="M1372.662,1830.47s-.288,4.764-.291,4.764a26.549,26.549,0,0,0-.522,2.652c0,2.067,9.814-1.756,7.614-2.672-.2-.082-1.55-1.177-1.616-1.881-.1-1.082-.048-2.809-.048-2.809Z" transform="translate(-1073.674 -1429.934)" fill="#f7a491"/>
    <path id="Caminho_1519" data-name="Caminho 1519" d="M1378.011,1851.061s-2.3.631-3.485.79-2.736-1.173-3.571-.812c-.907.395-.955,3.957-.955,3.957s12.412,1.182,15.9-.034C1387.258,1854.486,1382.721,1852.533,1378.011,1851.061Z" transform="translate(-1072.244 -1445.788)" fill="#dd513a"/>
    <path id="Caminho_1520" data-name="Caminho 1520" d="M1388.65,1320.287l8.644-12.111c.036-.1.116-.322.227-.653.436-1.2,1.341-3.7,2.13-6.189v-.027c.25-.869.774-2.384,1.282-3.857.565-1.631,1.266-3.655,1.291-4-.02-.059-.061-.166-.116-.306a29.465,29.465,0,0,1-.907-3.63c-.1-.542-.193-1.863.454-1.863,1.012,0,.531,1.318,1,2.139a21.135,21.135,0,0,0,.7-2.743l.17-2.575c.032-.193-.175-1.613.538-1.613h.034c.637.048.624,1.556.889,4.111.084-.295.168-.649.227-.973a9.447,9.447,0,0,1,.227-1.348c-.127-.712-.052-1.835.706-1.729.379.052.347,1.62.347,1.62,0,.213-.025,1.87-.014,2.2.077-.556.381-2.927.975-2.927.492,0,.533.637.522,1.134,0,.3-.315,2.865-.331,3.176.227-.39.506-2.652.737-2.652.96,0,.613,3.217.259,4.054a4.1,4.1,0,0,0-.109.454,7.865,7.865,0,0,1-.824,2.393c-.6,1.032-1.436,2.675-1.563,2.927-.093.513-.383,2.357-.746,4.678-.157.992-.327,2.08-.5,3.208h0c-.034.245-.213,1.021-.907,3.932a34.892,34.892,0,0,1-1.073,4.229c-.406.719-9.726,13.374-10.123,13.914l-.227.318Z" transform="translate(-1086.662 -1006.562)" fill="#f7a491"/>
    <path id="Caminho_1521" data-name="Caminho 1521" d="M1452.869,1317s-.7-1.795-1.949-1.8a1.434,1.434,0,0,1,1.3.227A2.453,2.453,0,0,1,1452.869,1317Z" transform="translate(-1134.805 -1031.512)" fill="#f47458"/>
    <path id="Caminho_1522" data-name="Caminho 1522" d="M1375.654,1306.659l-1.114,7.033s4.24,3.4,6.711,2.686c2.074-.6.653-3.312.653-3.312s-1.1-3.757-.767-5.726S1375.654,1306.659,1375.654,1306.659Z" transform="translate(-1075.754 -1024.641)" fill="#f7a491"/>
    <path id="Caminho_1523" data-name="Caminho 1523" d="M1379.506,1308.817a17.3,17.3,0,0,0,4.8,1.361,9.377,9.377,0,0,1-.114-2.8c.157-.907-1-1.123-2.289-1.091-1.69.143-3.194.408-3.194.408l-.227,1.361A3.488,3.488,0,0,0,1379.506,1308.817Z" transform="translate(-1078.8 -1024.674)" fill="#fe875e"/>
    <path id="Caminho_1524" data-name="Caminho 1524" d="M1355.821,1259.4c-.175,0,1.677,7.861,4.537,9.213s7.135.649,7.941-1.47c.887-2.341-2.346-10.361-6.375-11.38S1355.821,1259.4,1355.821,1259.4Z" transform="translate(-1061.273 -985.5)" fill="#f7a491"/>
    <path id="Caminho_1525" data-name="Caminho 1525" d="M1347.232,1239.187a9.037,9.037,0,0,0-3.691,4.084c-1.073.51-2.373,1.611-3,4.581-.767,3.653,1.96,6.468,4.851,7.314s3.337,2.759,3.337,2.759l.329-2.058a8.178,8.178,0,0,0-1.611-2.691c-.967-.9.454-2.2.583-3.269.1-.821-.508-2.416-.376-3.764,0,0,1.606-2.434,3.19-3.036C1353.546,1242.078,1350.167,1237.5,1347.232,1239.187Z" transform="translate(-1049.369 -972.51)" fill="#13375b"/>
    <path id="Caminho_1526" data-name="Caminho 1526" d="M1368.187,1289.229c.375.907.227,1.815-.342,2.015s-1.323-.368-1.7-1.275-.227-1.815.343-2.015S1367.812,1288.321,1368.187,1289.229Z" transform="translate(-1069.105 -1010.469)" fill="#f7a491"/>
    <path id="Caminho_1527" data-name="Caminho 1527" d="M1422.87,1423.167l16.673-2.723s-1.9-4.764-2.575-4.764-12.607,5.218-12.607,5.218l-.948,1.9Z" transform="translate(-1113.119 -1109.249)" fill="#f8a492"/>
    <path id="Caminho_1528" data-name="Caminho 1528" d="M1375.543,1496.472s-1.663,8.041-.987,14.139.733,27.753.733,27.753l-2.589,34.652,6.126.134s7.278-34.637,7.142-33.747,2.455-24.386,2.455-24.386l-8.675-19.307Z" transform="translate(-1074.331 -1171.122)" fill="#184655"/>
    <path id="Caminho_1529" data-name="Caminho 1529" d="M1391,1488.329s-1.084,7.239.27,10.416,11.627,34.332,11.763,36.871,3.551,30.628,3.551,30.628l7.135-.2,1.545-31.218-3.233-39.235-3.138-9.921Z" transform="translate(-1088.161 -1163.36)" fill="#13375b"/>
    <path id="Caminho_1530" data-name="Caminho 1530" d="M1374.54,1331.323a6.413,6.413,0,0,0,3.4,1.021,11.315,11.315,0,0,0,3.964-1.647l-.325-1.094s-4.245-.619-4.351-.551S1374.54,1331.323,1374.54,1331.323Z" transform="translate(-1075.754 -1042.27)" fill="#f7a491"/>
    <path id="Caminho_1531" data-name="Caminho 1531" d="M1457.21,1394.505s6.307,5.953,9.154,4.937,4.025-4.49-2.922-9.572C1457.226,1385.321,1457.21,1394.505,1457.21,1394.505Z" transform="translate(-1139.668 -1088.316)" fill="#f8a492"/>
    <path id="Caminho_1532" data-name="Caminho 1532" d="M1377.517,1361.04c-.937-5.1-7.727-20.956-8.27-23.878-.263-1.42-3.927-1.452-7.414-1.266-3.684.2-7.346.66-7.346.66s-3.262.538-4.7,1.881-1.815,5.064.245,12.124c1.629,5.574,3.648,8.635,4.649,12.7.2,1.361.374,2.7.606,4.274.365,6.071,0,14.089,0,14.089s17.757,3.684,24.4-1.906C1379.686,1379.712,1378.477,1366.258,1377.517,1361.04Z" transform="translate(-1055.701 -1047.503)" fill="#355389"/>
    <path id="Caminho_1533" data-name="Caminho 1533" d="M1428.3,1350.773s-6.967,5.751-7.373,5.751c-.261,0-9.944-7.121-12.179-12.973-1.234-3.235,1.361-6.854,4.311-6.843,2.053,0,2.965.538,7.033,3.966S1428.3,1350.773,1428.3,1350.773Z" transform="translate(-1101.957 -1048.194)" fill="#466eb6"/>
    <path id="Caminho_1534" data-name="Caminho 1534" d="M947.4,241.346c1.134-2.747,2.3-5.5,5.266-6.892a6.6,6.6,0,0,1,7.033.907c6.037,4.537.776,9.54,7.648,18.15,2.135,2.675,4.719,4.835,6,7.968,1.79,4.388-.343,6.493-3.762,8.6-16.355,10.05-24.929-10.579-24.616-15.314C945.2,251.249,946.669,243.123,947.4,241.346Z" transform="translate(-743.636 -195.518)" fill="#13375b"/>
    <path id="Caminho_1535" data-name="Caminho 1535" d="M880.031,383.317c.681-.109,2.364-1.309,2.949-1.418.454-.084,1.45-.227,1.872-.3.517-1.933,3.144-12.462,3.437-15.55.32-3.344,2.684-17.812,2.684-17.812l6.125,1.114s-2.539,11.13-3.242,16.528c-.6,4.635-5.688,15.057-6.334,16.158v.079c-.1,1.636-.885,1.091-.885,1.091l-1.282.327s-4.537.436-4.828.544S879.341,383.426,880.031,383.317Z" transform="translate(-693.238 -283.98)" fill="#f7a491"/>
    <path id="Caminho_1536" data-name="Caminho 1536" d="M929.56,311c-4.329,1.468-6.79,13.236-6.79,13.236s6.79,1.894,8.53.907c0,0,1.976-8.755,2.684-8.449Z" transform="translate(-726.477 -255.189)" fill="#6a97ce"/>
    <path id="Caminho_1537" data-name="Caminho 1537" d="M765.562,592.47a46.532,46.532,0,0,0-2.074,7.26c-.029.2.247,1.134.227,1.361-2.659,3.63-6.482,4.42-9.755,4.651,1.667-1.629,4.12-3.176,4.238-3.691a64.16,64.16,0,0,0,1.69-9.549C761.923,593.439,763.3,592.69,765.562,592.47Z" transform="translate(-595.966 -472.802)" fill="#f7a491"/>
    <path id="Caminho_1538" data-name="Caminho 1538" d="M819.9,420.21l5.862,16.478s-9.4,1.77-12.916,2.414-23.141,1.5-23.649,1.851c-.37.259-4.426,13.385-6.239,20.611a17.006,17.006,0,0,1-7.446-.735c1.012-10.352,4.665-26.75,5.835-28.536C783.237,429.387,819.9,420.21,819.9,420.21Z" transform="translate(-612.627 -339.623)" fill="#256653"/>
    <path id="Caminho_1539" data-name="Caminho 1539" d="M840.023,624.31a46.268,46.268,0,0,0-.681,7.525c0,.2.454,1.078.47,1.282-1.933,4.061-5.538,5.556-8.712,6.4,1.334-1.915,3.453-3.891,3.473-4.419a64.321,64.321,0,0,0-.129-9.7C836.627,625.941,837.845,624.95,840.023,624.31Z" transform="translate(-655.605 -497.418)" fill="#f7a491"/>
    <path id="Caminho_1540" data-name="Caminho 1540" d="M876.821,424l2.269,3.875a11.117,11.117,0,0,1-5.57,15.965l-.1.041c-3.33,1.291-22.46,5.815-22.882,6.25-.315.322-1.84,13.971-2.269,21.417a17.173,17.173,0,0,1-7.453.681c-.946-10.357-.431-27.15.383-29.124C842.532,439.881,876.821,424,876.821,424Z" transform="translate(-662.721 -342.553)" fill="#327f6b"/>
    <path id="Caminho_1541" data-name="Caminho 1541" d="M831.662,657.768c.508-.563,2.378,2.534,2.845,3.194a1.471,1.471,0,0,1,.313,1.418c-.166.306-10.025,6.107-12.43,6.52a1.208,1.208,0,0,1-.719-.191c-.939-.833,3.385-6.976,5.327-7.782A9.4,9.4,0,0,0,831.662,657.768Z" transform="translate(-648.213 -523.233)" fill="#13375b"/>
    <path id="Caminho_1542" data-name="Caminho 1542" d="M753.862,624.858c.606-.454,1.86,2.936,2.2,3.671a1.475,1.475,0,0,1,.041,1.454c-.227.27-10.992,4.12-13.431,4.084a1.2,1.2,0,0,1-.681-.324c-.767-.991,4.633-6.216,6.693-6.645A9.5,9.5,0,0,0,753.862,624.858Z" transform="translate(-586.653 -497.81)" fill="#13375b"/>
    <path id="Caminho_1543" data-name="Caminho 1543" d="M941.975,309.972h0a1.621,1.621,0,0,1-.436-.091,7.517,7.517,0,0,0-3.93.227c-1.663.7-4.242,7.26-4.084,13.989.061,1.03.125,1.951.177,2.593.42,5.084,1.879,14.624,1.958,14.676,1.983,1.277,13.955-3.675,14.778-4.764s1.309-14.293,1.708-14.962l.787-11.493C951.551,309.732,944.1,309.956,941.975,309.972Z" transform="translate(-734.788 -254.202)" fill="#9bc1f9"/>
    <path id="Caminho_1544" data-name="Caminho 1544" d="M971.122,285.078a30.625,30.625,0,0,0-.617,5.561c.154,1.572-.588,6.641-3.916,6.654s-.633-6.443-.32-7.984a59.063,59.063,0,0,0,.388-6.309Z" transform="translate(-759.083 -233.542)" fill="#f7a491"/>
    <path id="Caminho_1545" data-name="Caminho 1545" d="M972.2,285.393c.052-1.307.068-2.393.068-2.393l4.465,2.078s-.159.814-.318,1.854A3.9,3.9,0,0,1,972.2,285.393Z" transform="translate(-764.693 -233.542)" fill="#f47458"/>
    <path id="Caminho_1546" data-name="Caminho 1546" d="M972.583,241.867a5.533,5.533,0,0,1,2.348,3.026c.631,2.069-.086,7.405-4.537,8.694s-6.368-2.938-5.445-6.241S967.855,239.852,972.583,241.867Z" transform="translate(-758.912 -201.334)" fill="#f7a491"/>
    <path id="Caminho_1547" data-name="Caminho 1547" d="M963.223,256.341c.086.887.576,1.565,1.094,1.515s.864-.812.778-1.7-.576-1.565-1.093-1.516S963.135,255.453,963.223,256.341Z" transform="translate(-757.742 -211.615)" fill="#f7a491"/>
    <path id="Caminho_1548" data-name="Caminho 1548" d="M997.07,242.47s.805,5.953,2.722,7.033,1.118,3.716,1.118,3.716,1.747-6.126.227-8.1A8.409,8.409,0,0,0,997.07,242.47Z" transform="translate(-783.921 -202.207)" fill="#13375b"/>
    <path id="Caminho_1549" data-name="Caminho 1549" d="M1002.749,274.142c-.522.776-.519,1.69,0,2.042s1.361,0,1.895-.765.522-1.69,0-2.042S1003.271,273.366,1002.749,274.142Z" transform="translate(-788.01 -225.995)" fill="#f7a491"/>
    <path id="Caminho_1550" data-name="Caminho 1550" d="M975.465,278.68l3.131.787a1.423,1.423,0,0,1-1.763.883C975.141,279.978,975.465,278.68,975.465,278.68Z" transform="translate(-767.198 -230.202)" fill="#fff"/>
    <path id="Caminho_1551" data-name="Caminho 1551" d="M1044.08,498.341l13.5-.681s-5.54,3.982-5.654,3.982-4.413-1.7-4.6-1.7S1044.08,498.341,1044.08,498.341Z" transform="translate(-820.266 -399.501)" fill="#50bfa5"/>
    <path id="Caminho_1552" data-name="Caminho 1552" d="M2213.249,1831.33s.263,4.683.266,4.692c.1.594.481,2.064.481,2.6,0,2.042-9.009-1.724-6.99-2.623.181-.082,1.134-.7,1.2-1.389.093-1.066.326-3.219.326-3.219Z" transform="translate(-1719.128 -1430.599)" fill="#f7a491"/>
    <path id="Caminho_1553" data-name="Caminho 1553" d="M2182.182,1851.715a32.819,32.819,0,0,0,3.2.776c1.085.154,2.512-1.152,3.278-.8.844.388.81,3.886.81,3.886s-11.344,1-14.52-.034C2173.673,1855.141,2177.858,1853.164,2182.182,1851.715Z" transform="translate(-1694.391 -1446.294)" fill="#f7cc7f"/>
    <path id="Caminho_1554" data-name="Caminho 1554" d="M2279.368,1830.26s.265,4.683.268,4.692c.095.595.479,2.065.479,2.6,0,2.031-9.009-1.724-6.99-2.623.184-.082,1.425-1.157,1.484-1.849.093-1.064.045-2.759.045-2.759Z" transform="translate(-1770.247 -1429.772)" fill="#f7a491"/>
    <path id="Caminho_1555" data-name="Caminho 1555" d="M2248.71,1850.487a32.077,32.077,0,0,0,3.2.776c1.082.157,2.511-1.15,3.276-.8.844.39.878,3.889.878,3.889s-11.262.454-14.6-.034C2240.153,1854.124,2244.386,1851.935,2248.71,1850.487Z" transform="translate(-1745.809 -1445.346)" fill="#f7cc7f"/>
    <path id="Caminho_1556" data-name="Caminho 1556" d="M2249.584,1499.841s1.527,7.9.908,13.889-.681,27.27-.681,27.27l2.87,34.031-6.125.143s-6.679-34.031-6.557-33.155-2.239-23.96-2.239-23.96l7.963-18.969Z" transform="translate(-1743.133 -1173.735)" fill="#355389"/>
    <path id="Caminho_1557" data-name="Caminho 1557" d="M2220.21,1479.92s6.917,7.285,4.345,15.241c-1.035,3.2-10.663,33.731-10.8,36.227s-3.26,30.081-3.26,30.081l-6.55-.2-1.418-30.671,1.872-41.325,3.977-6.969Z" transform="translate(-1715.896 -1158.914)" fill="#466eb6"/>
    <path id="Caminho_1558" data-name="Caminho 1558" d="M2094.481,1342.447a61.01,61.01,0,0,1,7.194-6.125,23.955,23.955,0,0,1,4.133-2.92c1.763-.608,4.78-2.228,9.147,4.388,3.122,4.735,22.834,29.248,26.07,30.072l-21.131,10.114c-.579-4.828-11.021-13.95-12.523-15.654C2104.012,1358.519,2092.337,1344.852,2094.481,1342.447Z" transform="translate(-1632.158 -1045.154)" fill="#f47458"/>
    <path id="Caminho_1559" data-name="Caminho 1559" d="M2088.446,1330.13l6.579,3.857s.186,5.62-1.967,7.078c-1.815,1.225-3.176-1.715-3.176-1.715s-2.448-3.4-4.311-4.447S2088.446,1330.13,2088.446,1330.13Z" transform="translate(-1625.136 -1043.107)" fill="#f7a491"/>
    <path id="Caminho_1560" data-name="Caminho 1560" d="M2089.554,1332.573a13.728,13.728,0,0,1-1.708,4.263,10.591,10.591,0,0,0-2.269-1.967c-.858-.488-.311-1.541.524-2.534,1.182-1.23,2.348-2.235,2.348-2.235l1.264.74A5.407,5.407,0,0,1,2089.554,1332.573Z" transform="translate(-1625.142 -1043.084)" fill="#f47458"/>
    <path id="Caminho_1561" data-name="Caminho 1561" d="M2059.981,1286.577c.111-.136,5.522,6.6,4.855,9.755s-3.938,6.042-6.212,5.25c-2.514-.878-7.189-8.807-5.513-12.657S2059.981,1286.577,2059.981,1286.577Z" transform="translate(-1600.103 -1009.212)" fill="#f7a491"/>
    <path id="Caminho_1562" data-name="Caminho 1562" d="M2048.753,1274.248a10.223,10.223,0,0,1,9.075-.184c3.535,1.849,4.34,6.507,3.233,9.347s.161,4.444.161,4.444l-1.876-1.094a8.931,8.931,0,0,1-1.239-3.072c-.143-1.361-2.13-1.121-3.1-1.74-.749-.476-1.7-2.021-2.91-2.825,0,0-3.042-.372-4.538.467C2045.012,1281.024,2045.375,1276.126,2048.753,1274.248Z" transform="translate(-1594.798 -999.007)" fill="#13375b"/>
    <path id="Caminho_1563" data-name="Caminho 1563" d="M2092.789,1310.975c-.018,1.01.454,1.835,1.066,1.847s1.112-.8,1.134-1.815-.454-1.838-1.066-1.847S2092.807,1309.963,2092.789,1310.975Z" transform="translate(-1631.051 -1026.895)" fill="#f7a491"/>
    <path id="Caminho_1564" data-name="Caminho 1564" d="M2068.36,1333.492l2.865-2.141a1.583,1.583,0,0,1-.474,2.137C2069.247,1334.674,2068.36,1333.492,2068.36,1333.492Z" transform="translate(-1612.165 -1044.051)" fill="#fff"/>
    <path id="Caminho_1565" data-name="Caminho 1565" d="M2008.615,1419.521c.717-1.048,1.03-2.561,2.024-3.716a8.768,8.768,0,0,1,1.466-1.259c4.764-2.793,17.206-9.982,17.7-10.55.574-.662,9.059-14.76,9.059-14.76l-7.62-1.726-7.448,13.158c-.621.492-12.444,9.231-12.444,9.231s-2.35,1.835-3.63,2.7a10.265,10.265,0,0,1-1.828.817,12.07,12.07,0,0,0-2.282,1.134c-.311.274-.932.858-1.3,1.214s-.817.76-.989.973a2.684,2.684,0,0,1-.68.427.438.438,0,0,0,.073.814,1.914,1.914,0,0,0,1.152-.265c.858-.4,1.9-1.488,1.958-1.361s-1.007,2.459-1.112,2.734a31.363,31.363,0,0,0-1.386,3.589c-.063.6.3.744.574.524.227-.19,2.194-3.812,2.194-3.812s.252-.454.349-.2-1.677,3.555-1.851,4.1-.034.982.454.794c.608-.227,2.285-3.857,2.285-3.857s.227-.454.367-.295-1.407,2.931-1.425,3.251a.411.411,0,0,0,.681.368c.492-.315,1.963-3.567,1.963-3.567s.181-.215.227-.063a31.1,31.1,0,0,0-1.014,2.97.288.288,0,0,0,.345.24C2007.106,1423.117,2007.9,1420.57,2008.615,1419.521Z" transform="translate(-1559.614 -1087.469)" fill="#f8a492"/>
    <path id="Caminho_1566" data-name="Caminho 1566" d="M2127.37,1353.891s-2.482-.79-4.073-1.52c-1.066-.488-5.717-2.8-5.717-2.8s2.005-8.458,3.36-11.5c4.975-11.16,10.627-3.462,11.393-1.667C2134.051,1340.4,2127.37,1353.891,2127.37,1353.891Z" transform="translate(-1650.219 -1044.665)" fill="#355389"/>
    <path id="Caminho_1567" data-name="Caminho 1567" d="M1396.61,1293.107l2.362-1.767a1.3,1.3,0,0,1-.39,1.763C1397.343,1294.087,1396.61,1293.107,1396.61,1293.107Z" transform="translate(-1092.817 -1013.118)" fill="#fff"/>
    <path id="Caminho_1568" data-name="Caminho 1568" d="M744.574,1868H195.841a1.45,1.45,0,0,0-1.241,1.588h0a1.448,1.448,0,0,0,1.241,1.588H744.574a1.448,1.448,0,0,0,1.241-1.588h0A1.439,1.439,0,0,0,744.574,1868Z" transform="translate(-163.509 -1458.95)" fill="#184655"/>
    <path id="Caminho_1569" data-name="Caminho 1569" d="M1030.5,380.612c-.057-.143-.182-.145-.309-.15a31.125,31.125,0,0,1-3.7-.277,2.618,2.618,0,0,1-.6-.152,1.545,1.545,0,0,0-1.025-.036,2.088,2.088,0,0,1-.569.059c-.622,0-2.4-.608-3.312-.767a.536.536,0,0,1-.427-.4c-.907-3.553-2.825-11.523-3.074-14.145-.32-3.351-2.634-18.465-2.634-18.465l-6.194,1.729s2.548,11.155,3.253,16.562c.545,4.177,4.719,13.041,6.028,15.588a2.611,2.611,0,0,0,2.4,1.992.769.769,0,0,1,.492.261,3.343,3.343,0,0,0,.78.681,1.828,1.828,0,0,1,.533.531c.263.383.5.785.733,1.189.154.265.315.352.544.288a.488.488,0,0,0,.358-.549,2.478,2.478,0,0,0-.37-1.221.663.663,0,0,1,.048-.883,2.807,2.807,0,0,1,.454-.517.81.81,0,0,1,.635-.227,10.1,10.1,0,0,0,1.361.252l.375.077.2.043c.032,0,.681.079.907.079.181,0,.474.014.724.025a4.023,4.023,0,0,0,.721-.107.871.871,0,0,0,.579-.227c.066-.061.131-.129.1-.227a.227.227,0,0,0-.2-.152c-.147-.027-.907-.12-.907-.152.227,0,.944-.018,1.173-.023a1.073,1.073,0,0,0,.787-.347C1030.454,380.846,1030.552,380.755,1030.5,380.612Z" transform="translate(-792.874 -282.465)" fill="#f7a491"/>
    <path id="Caminho_1570" data-name="Caminho 1570" d="M1000.205,311.414c3.056-.556,5.579,13.122,5.579,13.122s-6.793,1.894-8.533.908c0,0-1.976-8.755-2.682-8.449Z" transform="translate(-781.988 -255.496)" fill="#9bc1f9"/>
    <path id="Caminho_1571" data-name="Caminho 1571" d="M596.245,1366.139c.2-.581-2.616-1.048-2.766-1.633s3.56-.633,3.691-1.148c.245-.948-4.066-.2-3.979-.644s4.492-1.434,4.016-2.2-4.463,1.5-4.583.989,3.9-1.774,3.823-2.908c-.039-.606-6.593,3.02-7.353,2.691s.819-3.176.213-3.6-2.344,5.785-2.761,5.992-9.272,5.261-12.423,6.064c-.383-1.055-1.209-2.477-1.547-3.476-1.767,1.257-3.081,1.89-4.9,3.036,1.323,3.312,3.2,6.94,4.125,7.357,2.8,1.266,13.649-7.729,15.813-9.268s3.4-1.041,4.873-1.529S596.043,1366.724,596.245,1366.139Z" transform="translate(-451.94 -1064.399)" fill="#f7a491"/>
    <path id="Caminho_1572" data-name="Caminho 1572" d="M559,1351.246s-2.428-10.72-2.006-13.839,4.115-6.008,6.677-4.935,3.723,16.051,3.723,16.051Z" transform="translate(-443.646 -1044.741)" fill="#f7cc7f"/>
  </g>
</svg>
