<svg id="Desenvolvimento-Web-Icon-DG" xmlns="http://www.w3.org/2000/svg" xmlns:xlink="http://www.w3.org/1999/xlink" width="46.341" height="46.341" viewBox="0 0 46.341 46.341">
  <defs>
    <linearGradient id="linear-gradient" x1="1" y1="0.5" x2="0" y2="0.5" gradientUnits="objectBoundingBox">
      <stop offset="0" stop-color="#4d519d"/>
      <stop offset="1" stop-color="#4d9fd5"/>
    </linearGradient>
  </defs>
  <path id="Caminho_1016" data-name="Caminho 1016" d="M51.725,21.407H50.6V18.7A2.664,2.664,0,0,0,47.988,16H14.353a2.664,2.664,0,0,0-2.616,2.7v2.7H10.616A2.664,2.664,0,0,0,8,24.11V52.687a2.664,2.664,0,0,0,2.616,2.7H25.057l-.5,3.089h-3.1a.76.76,0,0,0-.747.772V60.8h-2.99a.773.773,0,0,0,0,1.545H44.625a.773.773,0,0,0,0-1.545h-2.99V59.252a.76.76,0,0,0-.747-.772h-3.1l-.5-3.089H51.725a2.664,2.664,0,0,0,2.616-2.7V24.11A2.664,2.664,0,0,0,51.725,21.407ZM13.232,18.7a1.141,1.141,0,0,1,1.121-1.159H47.988A1.141,1.141,0,0,1,49.109,18.7v1.931H13.232Zm0,3.476H49.109V42.646A1.141,1.141,0,0,1,47.988,43.8H14.353a1.141,1.141,0,0,1-1.121-1.159ZM40.14,60.024V60.8H22.2v-.772ZM26.073,58.48l.5-3.089h9.2l.5,3.089Zm26.773-5.793a1.141,1.141,0,0,1-1.121,1.159H10.616a1.141,1.141,0,0,1-1.121-1.159V50.756H52.847Zm0-3.476H9.495V24.11a1.141,1.141,0,0,1,1.121-1.159h1.121v19.7a2.664,2.664,0,0,0,2.616,2.7H47.988a2.664,2.664,0,0,0,2.616-2.7v-19.7h1.121a1.141,1.141,0,0,1,1.121,1.159Z" transform="translate(-8 -16)" fill="url(#linear-gradient)"/>
  <path id="Caminho_1017" data-name="Caminho 1017" d="M45.383,384H40.769a.769.769,0,0,0,0,1.538h4.614a.769.769,0,0,0,0-1.538Z" transform="translate(-36.924 -348.466)" fill="url(#linear-gradient)"/>
  <path id="Caminho_1018" data-name="Caminho 1018" d="M113.538,384h-.769a.769.769,0,0,0,0,1.538h.769a.769.769,0,0,0,0-1.538Z" transform="translate(-102.297 -348.466)" fill="url(#linear-gradient)"/>
  <path id="Caminho_1019" data-name="Caminho 1019" d="M72.769,41.538h.769a.769.769,0,0,0,0-1.538h-.769a.769.769,0,1,0,0,1.538Z" transform="translate(-65.848 -37.693)" fill="url(#linear-gradient)"/>
  <path id="Caminho_1020" data-name="Caminho 1020" d="M104.769,41.538h.769a.769.769,0,0,0,0-1.538h-.769a.769.769,0,0,0,0,1.538Z" transform="translate(-95.044 -37.693)" fill="url(#linear-gradient)"/>
  <path id="Caminho_1021" data-name="Caminho 1021" d="M136.769,41.538h.769a.769.769,0,0,0,0-1.538h-.769a.769.769,0,1,0,0,1.538Z" transform="translate(-124.058 -37.693)" fill="url(#linear-gradient)"/>
</svg>
