<svg id="Desenvolvimento-Mobile-Icon" xmlns="http://www.w3.org/2000/svg" width="26.594" height="47.278" viewBox="0 0 26.594 47.278">
  <g id="Grupo_145" data-name="Grupo 145" transform="translate(0 0)">
    <path id="Caminho_1022" data-name="Caminho 1022" d="M134.9,0H115.694A3.7,3.7,0,0,0,112,3.694v39.89a3.7,3.7,0,0,0,3.694,3.694H134.9a3.7,3.7,0,0,0,3.694-3.694V3.694A3.7,3.7,0,0,0,134.9,0Zm2.216,43.584A2.216,2.216,0,0,1,134.9,45.8H115.694a2.216,2.216,0,0,1-2.216-2.216V38.413h23.639Zm0-6.648H113.477V6.648h23.639Zm0-31.765H113.477V3.694a2.216,2.216,0,0,1,2.216-2.216H134.9a2.216,2.216,0,0,1,2.216,2.216Z" transform="translate(-112)" fill="#4d519d"/>
    <path id="Caminho_1023" data-name="Caminho 1023" d="M226.955,429.91A2.955,2.955,0,1,0,224,426.955,2.955,2.955,0,0,0,226.955,429.91Zm0-4.432a1.477,1.477,0,1,1-1.477,1.477A1.477,1.477,0,0,1,226.955,425.477Z" transform="translate(-213.658 -384.848)" fill="#4d519d"/>
    <path id="Caminho_1024" data-name="Caminho 1024" d="M152.427,164.482a4,4,0,0,0,.776.077h11.732a3.8,3.8,0,0,0,.8-.079,4,4,0,0,0,.4-7.732h0a6.279,6.279,0,0,0-12.15-.108,4,4,0,0,0-1.56,7.842Zm.69-6.441h.086a2.472,2.472,0,0,1,1.04.222.739.739,0,0,0,1.042-.582,4.8,4.8,0,0,1,9.5-.206.739.739,0,0,0,.6.6,2.521,2.521,0,0,1,.049,4.949v.005a2.3,2.3,0,0,1-.495.048H153.2a2.52,2.52,0,0,1-.086-5.04Z" transform="translate(-145.773 -137.965)" fill="#4d519d"/>
    <path id="Caminho_1025" data-name="Caminho 1025" d="M144.739,473.477h.739a.739.739,0,1,0,0-1.477h-.739a.739.739,0,1,0,0,1.477Z" transform="translate(-141.045 -428.416)" fill="#4d519d"/>
    <path id="Caminho_1026" data-name="Caminho 1026" d="M345.477,32h-.739a.739.739,0,1,0,0,1.477h.739a.739.739,0,1,0,0-1.477Z" transform="translate(-322.577 -29.045)" fill="#4d519d"/>
    <path id="Caminho_1027" data-name="Caminho 1027" d="M328.739,444.432h2.216a1.477,1.477,0,0,0,1.477-1.477v-2.216a.739.739,0,0,0-1.477,0v2.216h-2.216a.739.739,0,0,0,0,1.477Z" transform="translate(-308.055 -399.371)" fill="#4d519d"/>
  </g>
</svg>
