<svg xmlns="http://www.w3.org/2000/svg" width="46.117" height="46.117" viewBox="0 0 46.117 46.117">
  <g id="Design-Icon" transform="translate(0 0)">
    <g id="_035---Creative-Thinking" data-name="035---Creative-Thinking" transform="translate(0 0)">
      <path id="Shape" d="M39.836,33.819a10.318,10.318,0,0,0-.018-3.92l3.524-8.5a.125.125,0,0,0,0-.017,14.431,14.431,0,0,1,2.474-4.29,1.145,1.145,0,0,0,.284-1.049L44.654,9.814a.751.751,0,0,0-.077-.186c-.006-.012-.008-.025-.015-.036s-.033-.037-.048-.057a.776.776,0,0,0-.108-.127.715.715,0,0,0-.084-.051.784.784,0,0,0-.119-.072.761.761,0,0,0-.18-.044c-.018,0-.033-.012-.051-.013a.77.77,0,0,0-.424.095c-.012.006-.025.008-.037.015H43.5L38.07,12.725a1.147,1.147,0,0,0-.543.945,14.415,14.415,0,0,1-1.293,4.791v.008l-1.761,4.253a10.33,10.33,0,0,0-2.748-.992,41.483,41.483,0,0,0,.4-7.558,8.383,8.383,0,0,0,1.91-6.158C33.551,3.536,29.5.3,29.325.164a.769.769,0,0,0-1.22.8c.4,1.487.053,3.055-2.874,6.281a4.5,4.5,0,0,0-1.055,4.9,5.966,5.966,0,0,0,1.1,1.768c-.186,1.188-.332,2.312-.433,3.407a38.45,38.45,0,0,0-.134,5.451,10.47,10.47,0,0,0-1.916,1.334L19.058,8.167c0-.016-.015-.028-.02-.042a.726.726,0,0,0-.054-.148L15.172.945a1.777,1.777,0,0,0-3.338.781l-.289,7.99a.793.793,0,0,0,.019.171v.035l3.807,16.231a8.674,8.674,0,0,0-1.779.265L9.4,16.314A1.556,1.556,0,0,0,7.4,15.492l-6.4,2.647a1.541,1.541,0,0,0-.833,2.008l5.68,13.688a6.145,6.145,0,0,0,.317,12.282H40.014a6.15,6.15,0,1,0-.179-12.3Zm-.784-19.895,3.226-2.011-1.142,2.755a.77.77,0,0,0,1.422.589L43.7,12.5l.855,3.7a15.2,15.2,0,0,0-2.231,3.679,3.166,3.166,0,0,1-4.3-1.777A15.17,15.17,0,0,0,39.052,13.924Zm-1.77,6.034a4.687,4.687,0,0,0,1.918,1.4,4.888,4.888,0,0,0,1.883.4,4.075,4.075,0,0,0,.466-.028L39.094,27.64a10.434,10.434,0,0,0-3.3-4.081ZM26.741,14.469l3.866.236c.024.718.015,1.46-.008,2.214a16.192,16.192,0,0,1-3.855-.186c-.1-.014-.192-.025-.288-.038.077-.724.171-1.457.284-2.227Zm-.367-6.19c2.043-2.251,3.1-3.983,3.348-5.611A10.276,10.276,0,0,1,32.5,8.178a6.882,6.882,0,0,1-1.557,5.005q-2.28-.138-4.51-.277a3.2,3.2,0,0,1-.059-4.627Zm-.058,9.948.223.029a21.942,21.942,0,0,0,3,.254c.319,0,.654-.025.99-.051-.07.989-.185,2.022-.33,3.09-.19-.01-.376-.028-.567-.028a10.316,10.316,0,0,0-3.41.586,37.049,37.049,0,0,1,.1-3.88Zm-5.952,8.988-2.2-9.367a.769.769,0,0,0-1.5.35l1.978,8.431a8.722,8.722,0,0,0-1.677-.417l-3.377-14.4a3.65,3.65,0,0,0,1.507.327c.048,0,.1-.007.149-.009l.544,2.32a.769.769,0,1,0,1.5-.35l-.545-2.322a3.644,3.644,0,0,0,1.344-1.022l3.433,14.664A10.311,10.311,0,0,0,20.363,27.216Zm-4.7-16.679a2.556,2.556,0,0,1-2.569-1.028l.1-2.707A4.533,4.533,0,0,0,14,6.879a3.432,3.432,0,0,0,.782-.087,3.922,3.922,0,0,0,1.427-.709l1.3,2.389a2.55,2.55,0,0,1-1.844,2.066ZM13.554,1.558a.24.24,0,0,1,.265.118l1.65,3.048A2.626,2.626,0,0,1,14.43,5.3a2.619,2.619,0,0,1-1.186-.056l.125-3.463A.238.238,0,0,1,13.554,1.558ZM7.986,16.91l.588,1.419L5.727,19.506a.768.768,0,0,0,.3,1.477.781.781,0,0,0,.295-.058l2.847-1.178.589,1.42-1.424.59a.768.768,0,0,0,.3,1.479.784.784,0,0,0,.294-.058l1.424-.59.589,1.42-2.849,1.18a.769.769,0,0,0,.3,1.479.78.78,0,0,0,.294-.058l2.847-1.178.622,1.5a8.925,8.925,0,0,0-4.982,6.057L1.582,19.557ZM40.014,44.58H6.158a4.612,4.612,0,1,1,0-9.223,4.537,4.537,0,0,1,1.317.191.769.769,0,0,0,.992-.722,7.311,7.311,0,0,1,11.7-5.695.77.77,0,0,0,1.18-.346A8.85,8.85,0,0,1,38.476,31.9a8.75,8.75,0,0,1-.389,2.593.769.769,0,0,0,.9.978,4.808,4.808,0,0,1,1.027-.112,4.612,4.612,0,1,1,0,9.223Z" transform="translate(-0.012 0)" fill="#4d519d"/>
      <path id="Shape-2" data-name="Shape" d="M38.608,15.153a.922.922,0,0,0,.738-.364,6.918,6.918,0,0,0,1.227-5.431.922.922,0,1,0-1.782.475,5.124,5.124,0,0,1-.915,3.842.922.922,0,0,0,.738,1.476Z" transform="translate(-9.03 -0.672)" fill="#4d519d"/>
      <path id="Shape-3" data-name="Shape" d="M36.361,45.848a4.534,4.534,0,0,0-1.978.461,5.534,5.534,0,0,0-9.56,5.433.922.922,0,0,0,.849.561.912.912,0,0,0,.362-.074.922.922,0,0,0,.487-1.21,3.757,3.757,0,0,1-.3-1.481A3.689,3.689,0,0,1,29.9,45.848a3.652,3.652,0,0,1,3.334,2.121,1,1,0,0,0,.065.087.938.938,0,0,0,.049.092c.017.02.041.03.059.049a1.3,1.3,0,0,0,.291.212.918.918,0,0,0,.166.052.848.848,0,0,0,.173.027,1.134,1.134,0,0,0,.352-.059.7.7,0,0,0,.073-.018.834.834,0,0,0,.086-.064.959.959,0,0,0,.1-.05,2.72,2.72,0,0,1,1.712-.605A2.767,2.767,0,0,1,38.87,49.3a.922.922,0,1,0,1.679-.766A4.612,4.612,0,0,0,36.361,45.848Z" transform="translate(-7.181 -12.643)" fill="#4d519d"/>
      <path id="Shape-4" data-name="Shape" d="M17.4,39.047A5.005,5.005,0,0,0,14,43.611a.922.922,0,1,0,1.845,0A3.171,3.171,0,0,1,17.986,40.8a.924.924,0,0,0-.588-1.752Z" transform="translate(-3.432 -9.689)" fill="#4d519d"/>
      <path id="Shape-5" data-name="Shape" d="M31.7,37.506a.9.9,0,0,0,.224.028.922.922,0,0,0,.894-.7,3.934,3.934,0,0,1,3.723-2.991.922.922,0,0,0,0-1.845,5.745,5.745,0,0,0-5.506,4.388A.922.922,0,0,0,31.7,37.506Z" transform="translate(-7.783 -7.951)" fill="#4d519d"/>
    </g>
  </g>
</svg>
